<svg id="logo" xmlns="http://www.w3.org/2000/svg" xmlns:xlink="http://www.w3.org/1999/xlink" width="51.917" height="88.954" viewBox="0 0 51.917 88.954">
  <defs>
    <clipPath id="clip-path">
      <rect id="Rectangle_19" data-name="Rectangle 19" width="51.917" height="88.954" fill="none"/>
    </clipPath>
  </defs>
  <g id="Group_51" data-name="Group 51" clip-path="url(#clip-path)">
    <path id="Path_392" data-name="Path 392" d="M54.12,0c2.168.265,21.933,3.331,28.1,27.594a.034.034,0,0,1-.04.041l-3.71-.89a.033.033,0,0,1-.025-.026c-.126-.66-3.372-16.61-24.341-26.655A.033.033,0,0,1,54.12,0" transform="translate(-48.724 0)" fill="#006bbe"/>
    <path id="Path_393" data-name="Path 393" d="M2,0c0,.01-.02.023-.027.031-.026.03-.051.061-.076.092Q1.836.2,1.779.275q-.077.1-.15.212-.091.133-.176.27-.1.161-.194.327-.106.189-.2.383-.109.217-.206.439-.107.244-.2.493-.1.27-.187.546-.092.3-.165.6-.079.323-.136.65-.061.348-.1.7-.04.374-.054.749-.015.4,0,.8.014.423.058.845.047.448.127.891.084.472.2.936.126.5.286.981.171.518.378,1.024.221.541.477,1.066.274.563.585,1.107.332.584.7,1.148.394.605.822,1.187.46.625.953,1.225.529.645,1.091,1.262.6.664,1.238,1.3.681.683,1.392,1.334.762.7,1.554,1.368.848.717,1.723,1.4c.59.462,1.2.9,1.779,1.371.155.126.306.255.463.378q.17.133.342.263.205.155.414.307.242.176.487.348.279.2.562.386.317.214.638.422.356.231.715.455.4.246.794.486.435.261.875.513.476.274.957.539.518.285,1.04.561.56.3,1.125.581.6.3,1.211.6.647.312,1.3.612.691.318,1.388.624.736.323,1.478.633.782.327,1.57.639.829.329,1.664.642.876.33,1.759.643.924.329,1.855.641.973.327,1.953.637,1.023.324,2.052.63,1.074.32,2.152.62l.2.057a.03.03,0,0,0,.038-.021c.1-.362.572-4.173-19.992-12.082,0,0-23.2-9.881-18.414-25" transform="translate(0)" fill="#f78107"/>
    <path id="Path_394" data-name="Path 394" d="M173.1,171.962c-.029.574-.2,7.8,9.486,7.535a.048.048,0,0,0,.047-.053c-.1-.735-1.352-9.012-9.494-7.524a.046.046,0,0,0-.039.043" transform="translate(-155.942 -154.723)" fill="#006bbe"/>
    <path id="Path_395" data-name="Path 395" d="M280.9,435.707c-.01.6-.23,11.527-3.02,19.18a.021.021,0,0,0,.013.027l3.746,1.2a.02.02,0,0,0,.025-.01c.15-.314,2.447-5.3,3.473-19.343a.021.021,0,0,0-.016-.022l-4.2-1.049a.021.021,0,0,0-.026.019" transform="translate(-250.345 -392.516)" fill="#006bbe"/>
    <path id="Path_396" data-name="Path 396" d="M134.9,695.428A50.707,50.707,0,0,1,121.72,715.42a.023.023,0,0,0,.025.037c1.279-.695,10.053-5.821,16.633-18.966a.023.023,0,0,0-.014-.033l-3.433-1.045a.023.023,0,0,0-.029.014" transform="translate(-109.652 -626.506)" fill="#006bbe"/>
    <path id="Path_397" data-name="Path 397" d="M132.592,267.859a.032.032,0,0,1,.046-.044,21.63,21.63,0,0,0,2.255,1.749,49.17,49.17,0,0,0,5.1,3.047,87.808,87.808,0,0,0,8.577,3.9q2.683,1.064,5.415,2c3.416,1.177,6.872,2.1,9.849,4.225a17.808,17.808,0,0,1,5.13,5.657,18.541,18.541,0,0,1,2.249,6.893,21.286,21.286,0,0,1-.388,7.279,22.335,22.335,0,0,1-2.783,6.814,20.623,20.623,0,0,1-4.934,5.5,18.961,18.961,0,0,1-4.21,2.452.033.033,0,0,1-.032-.056,26.793,26.793,0,0,0,5.008-4.818,19.4,19.4,0,0,0,4.51-10.4,15.428,15.428,0,0,0-.915-6.823,13.864,13.864,0,0,0-4.3-5.536,58.693,58.693,0,0,0-7.33-5.481,57.935,57.935,0,0,0-9.251-4.423c-5.092-2.05-8.882-5.47-12.3-9.73q-.868-1.083-1.695-2.2" transform="translate(-119.448 -241.27)" fill="#006bbe"/>
    <path id="Path_398" data-name="Path 398" d="M268.329,758.966s-8.889-.151-11.036-1.654a.017.017,0,0,0-.025.006L255.778,760a.017.017,0,0,0,.013.026c.61.047,11.508.851,12.538-1.062" transform="translate(-230.431 -682.269)" fill="#f78107"/>
    <path id="Path_399" data-name="Path 399" d="M225.825,479.455a.026.026,0,0,1,.041-.02c.629.491,8.355,6.744,4.577,14.88-3.936,8.478-16.8,7.115-18.772.151-1.862-6.59,3.6-8.028,4.187-8.164a.025.025,0,0,1,.028.036c-.252.513-2.421,5.12-.279,7.977,2.271,3.028,11.354,3.33,12.111-4.239a11.148,11.148,0,0,0-1.964-7.411.025.025,0,0,1,0-.014Z" transform="translate(-190.35 -431.925)" fill="#f78107"/>
    <path id="Path_400" data-name="Path 400" d="M130.293,480.149a.028.028,0,0,0,0-.034c-.375-.4-7.8-8.354-5.587-15.88,2.265-7.7,8.6-9.83,12.235-9.69a.028.028,0,0,0,.03-.026l.222-2.29a.029.029,0,0,0-.027-.032c-.569-.04-9.214-.534-13.9,5.906-4.844,6.661-3.785,12.111-1.211,16.955a24.454,24.454,0,0,0,6.635,7.7.029.029,0,0,0,.042-.009Z" transform="translate(-108 -407.369)" fill="#f78107"/>
  </g>
</svg>
