<svg xmlns="http://www.w3.org/2000/svg" version="1.1" xmlns:xlink="http://www.w3.org/1999/xlink" width="512" height="512" x="0" y="0" viewBox="0 0 24 24" style="enable-background:new 0 0 512 512" xml:space="preserve"><g><path d="M21.379 16.913A6.698 6.698 0 0 1 19 11.788V9c0-3.519-2.614-6.432-6-6.92V1a1 1 0 1 0-2 0v1.08C7.613 2.568 5 5.481 5 9v2.788a6.705 6.705 0 0 1-2.388 5.133A1.752 1.752 0 0 0 3.75 20h16.5c.965 0 1.75-.785 1.75-1.75 0-.512-.223-.996-.621-1.337zM12 24a3.756 3.756 0 0 0 3.674-3H8.326A3.756 3.756 0 0 0 12 24z" fill="#000000" opacity="1" data-original="#000000"></path></g></svg>