<svg xmlns="http://www.w3.org/2000/svg" version="1.1" xmlns:xlink="http://www.w3.org/1999/xlink" width="512" height="512" x="0" y="0" viewBox="0 0 64 64" style="enable-background:new 0 0 512 512" xml:space="preserve"><g transform="matrix(-1,0,0,1,64,0)"><path d="M29 11v14a4 4 0 0 1-4 4H11a4 4 0 0 1-4-4V11a4 4 0 0 1 4-4h14a4 4 0 0 1 4 4zm24-4H39a4 4 0 0 0-4 4v14a4 4 0 0 0 4 4h14a4 4 0 0 0 4-4V11a4 4 0 0 0-4-4zM25 35H11a4 4 0 0 0-4 4v14a4 4 0 0 0 4 4h14a4 4 0 0 0 4-4V39a4 4 0 0 0-4-4zm21 0a11 11 0 1 0 11 11 11 11 0 0 0-11-11z" fill="#000000" opacity="1" data-original="#000000"></path></g></svg>