<svg xmlns="http://www.w3.org/2000/svg" version="1.1" xmlns:xlink="http://www.w3.org/1999/xlink" width="512" height="512" x="0" y="0" viewBox="0 0 459.904 459.904" style="enable-background:new 0 0 512 512" xml:space="preserve"><g><path d="M123.465 168.28h46.543v138.07c0 14.008 11.358 25.352 25.352 25.352h69.2c13.993 0 25.352-11.343 25.352-25.352V168.28h46.527c7.708 0 14.637-4.641 17.601-11.764 2.933-7.094 1.301-15.295-4.145-20.741L243.413 29.28c-7.437-7.422-19.485-7.422-26.938 0L110.011 135.775a19.023 19.023 0 0 0-4.13 20.741c2.962 7.109 9.876 11.764 17.584 11.764z" fill="#000000" opacity="1" data-original="#000000"></path><path d="M437.036 220.029c-12.617 0-22.852 10.237-22.852 22.867v95.615c0 28.643-23.317 51.944-51.961 51.944H97.679c-28.644 0-51.945-23.301-51.945-51.944v-95.615c0-12.63-10.251-22.867-22.867-22.867C10.236 220.029 0 230.266 0 242.897v95.615c0 53.859 43.818 97.679 97.679 97.679h264.544c53.861 0 97.681-43.819 97.681-97.679v-95.615c0-12.631-10.237-22.868-22.868-22.868z" fill="#000000" opacity="1" data-original="#000000"></path></g></svg>