<svg xmlns="http://www.w3.org/2000/svg" version="1.1" xmlns:xlink="http://www.w3.org/1999/xlink" width="512" height="512" x="0" y="0" viewBox="0 0 16.933 16.933" style="enable-background:new 0 0 512 512" xml:space="preserve" class=""><g><path d="M3.44.53a.796.796 0 0 0-.794.792V11.64h11.641V3.174h-1.851a.798.798 0 0 1-.795-.793V.53zm8.73.152v1.7c0 .15.115.263.266.263h1.695zM4.233 2.645h1.324c.146 0 .264.12.264.266v1.322a.265.265 0 0 1-.264.266H4.233a.265.265 0 0 1-.264-.266V2.911c0-.147.118-.266.264-.266zm2.647 0h3.702c.361-.008.361.537 0 .53H6.88c-.361.007-.361-.538 0-.53zm-5.558.53a.796.796 0 0 0-.793.792v9.526c0 .435.358.793.793.793h14.287a.798.798 0 0 0 .795-.793V3.967a.798.798 0 0 0-.795-.792h-.793V4.23h.264a.265.265 0 0 1 .265.266v7.408a.265.265 0 0 1-.265.264H1.852a.265.265 0 0 1-.264-.264V4.497a.265.265 0 0 1 .264-.266h.265V3.175zm5.558.792h3.703c.353 0 .353.53 0 .53H6.88c-.354 0-.354-.53 0-.53zm4.762 0H12.7c.354 0 .354.53 0 .53h-1.057c-.353 0-.353-.53 0-.53zM6.88 5.555h5.82c.353 0 .353.53 0 .53H6.88c-.353 0-.353-.53 0-.53zm-1.045.26c.202.008.367.264.173.457L4.95 7.33a.265.265 0 0 1-.375 0l-.53-.529c-.25-.25.125-.625.375-.375l.342.342.871-.869a.266.266 0 0 1 .202-.085zM6.88 6.878h3.703c.353 0 .353.53 0 .53H6.88c-.354 0-.354-.53 0-.53zm4.762 0H12.7c.354 0 .354.53 0 .53h-1.057c-.353 0-.353-.53 0-.53zM6.88 8.466h5.82c.353 0 .353.53 0 .53H6.88c-.354 0-.354-.53 0-.53zm-2.66.002h1.337c.146 0 .263.118.264.263v1.323a.265.265 0 0 1-.264.265H4.233a.265.265 0 0 1-.264-.265V8.73c0-.136.103-.25.25-.263zM6.88 9.79h3.703c.353 0 .353.53 0 .53H6.88c-.354 0-.354-.53 0-.53zm4.762 0H12.7c.354 0 .354.53 0 .53h-1.057c-.353 0-.353-.53 0-.53zm-3.704 2.909h1.058a.265.265 0 0 1 0 .529H7.938a.265.265 0 1 1 0-.53zm-1.261 2.117c-.083.183-.18.36-.283.515-.192.288-.348.46-.425.543h-.69c-.366.017-.341.547.012.53h6.35c.353 0 .353-.53 0-.53h-.677a4.077 4.077 0 0 1-.425-.543 3.62 3.62 0 0 1-.282-.515z" fill="#000000" opacity="1" data-original="#000000" class=""></path></g></svg>