<svg xmlns="http://www.w3.org/2000/svg" version="1.1" xmlns:xlink="http://www.w3.org/1999/xlink" width="512" height="512" x="0" y="0" viewBox="0 0 32 32" style="enable-background:new 0 0 512 512" xml:space="preserve"><g><g data-name="Layer 2"><path d="M10 18H4a2 2 0 0 0-2 2v6a2 2 0 0 0 2 2h6a2 2 0 0 0 2-2v-6a2 2 0 0 0-2-2zm-6 8v-6h6v6zM15 8h14a1 1 0 0 0 0-2H15a1 1 0 0 0 0 2zM15 12h9a1 1 0 0 0 0-2h-9a1 1 0 0 0 0 2zM29 20H15a1 1 0 0 0 0 2h14a1 1 0 0 0 0-2zM24 24h-9a1 1 0 0 0 0 2h9a1 1 0 0 0 0-2zM11 9a1 1 0 0 0-1 1v2H4V6h3a1 1 0 0 0 0-2H4a2 2 0 0 0-2 2v6a2 2 0 0 0 2 2h6a2 2 0 0 0 2-2v-2a1 1 0 0 0-1-1z" fill="#000000" opacity="1" data-original="#000000"></path><path d="M10.293 5.293 7 8.586l-.293-.293a1 1 0 0 0-1.414 1.414l1 1a1 1 0 0 0 1.414 0l4-4a1 1 0 1 0-1.414-1.414z" fill="#000000" opacity="1" data-original="#000000"></path></g></g></svg>