<svg xmlns="http://www.w3.org/2000/svg" version="1.1" xmlns:xlink="http://www.w3.org/1999/xlink" width="512" height="512" x="0" y="0" viewBox="0 0 512 512" style="enable-background:new 0 0 512 512" xml:space="preserve" class=""><g><path d="M450 85c0-30.327-24.673-55-55-55h-11v45c0 8.284-6.716 15-15 15s-15-6.716-15-15V30h-66v45c0 8.284-6.716 15-15 15s-15-6.716-15-15V30h-66v45c0 8.284-6.716 15-15 15s-15-6.716-15-15V30H96v45c0 8.284-6.716 15-15 15s-15-6.716-15-15V30H55C24.673 30 0 54.673 0 85v45h450zM96 15c0-8.284-6.716-15-15-15S66 6.716 66 15v15h30zM384 15c0-8.284-6.716-15-15-15s-15 6.716-15 15v15h30zM288 15c0-8.284-6.716-15-15-15s-15 6.716-15 15v15h30zM192 15c0-8.284-6.716-15-15-15s-15 6.716-15 15v15h30zM402 262c16.854 0 33.022 2.995 48 8.478V160H0v225c0 24.813 20.187 45 45 45h219.815A140.132 140.132 0 0 1 262 402c0-77.196 62.804-140 140-140zm-56-49.5h25c8.284 0 15 6.716 15 15s-6.716 15-15 15h-25c-8.284 0-15-6.716-15-15s6.716-15 15-15zm-89 0h25c8.284 0 15 6.716 15 15s-6.716 15-15 15h-25c-8.284 0-15-6.716-15-15s6.716-15 15-15zm-153 165H79c-8.284 0-15-6.716-15-15s6.716-15 15-15h25c8.284 0 15 6.716 15 15s-6.716 15-15 15zm0-67.5H79c-8.284 0-15-6.716-15-15s6.716-15 15-15h25c8.284 0 15 6.716 15 15s-6.716 15-15 15zm89 67.5h-25c-8.284 0-15-6.716-15-15s6.716-15 15-15h25c8.284 0 15 6.716 15 15s-6.716 15-15 15zm0-67.5h-25c-8.284 0-15-6.716-15-15s6.716-15 15-15h25c8.284 0 15 6.716 15 15s-6.716 15-15 15zm0-67.5h-25c-8.284 0-15-6.716-15-15s6.716-15 15-15h25c8.284 0 15 6.716 15 15s-6.716 15-15 15zm49 52.5c0-8.284 6.716-15 15-15h25c8.284 0 15 6.716 15 15s-6.716 15-15 15h-25c-8.284 0-15-6.716-15-15z" fill="#000000" opacity="1" data-original="#000000" class=""></path><path d="M402 292c-60.654 0-110 49.346-110 110s49.346 110 110 110 110-49.346 110-110-49.346-110-110-110zm50 125h-50c-8.284 0-15-6.716-15-15v-50c0-8.284 6.716-15 15-15s15 6.716 15 15v35h35c8.284 0 15 6.716 15 15s-6.716 15-15 15z" fill="#000000" opacity="1" data-original="#000000" class=""></path></g></svg>