<svg xmlns="http://www.w3.org/2000/svg" version="1.1" xmlns:xlink="http://www.w3.org/1999/xlink" width="512" height="512" x="0" y="0" viewBox="0 0 24 24" style="enable-background:new 0 0 512 512" xml:space="preserve"><g><g fill="#000" fill-rule="evenodd" clip-rule="evenodd"><path d="M12 7c-1.957 0-3.584 1.197-4.167 2.807a1 1 0 0 1-.813.652C5.277 10.683 4 12.09 4 13.714 4 15.484 5.52 17 7.5 17a1 1 0 1 1 0 2C4.509 19 2 16.679 2 13.714c0-2.514 1.81-4.57 4.181-5.132C7.2 6.45 9.438 5 12 5c3.174 0 5.872 2.24 6.331 5.234 2.066.412 3.669 2.164 3.669 4.337C22 17.063 19.894 19 17.4 19a1 1 0 1 1 0-2c1.482 0 2.6-1.133 2.6-2.429 0-1.295-1.117-2.428-2.6-2.428a1 1 0 0 1-1-1C16.4 8.9 14.477 7 12 7z" fill="#000000" opacity="1" data-original="#000000"></path><path d="M12 19a1 1 0 0 1-1-1v-6a1 1 0 1 1 2 0v6a1 1 0 0 1-1 1z" fill="#000000" opacity="1" data-original="#000000"></path><path d="M9.293 14.707a1 1 0 0 1 0-1.414l2-2a1 1 0 0 1 1.414 0l2 2a1 1 0 0 1-1.414 1.414L12 13.414l-1.293 1.293a1 1 0 0 1-1.414 0z" fill="#000000" opacity="1" data-original="#000000"></path></g></g></svg>