<svg xmlns="http://www.w3.org/2000/svg" version="1.1" xmlns:xlink="http://www.w3.org/1999/xlink" width="512" height="512" x="0" y="0" viewBox="0 0 511.999 511.999" style="enable-background:new 0 0 512 512" xml:space="preserve" class=""><g><path d="M438.09 273.32h-39.596c4.036 11.05 6.241 22.975 6.241 35.404v149.65c0 5.182-.902 10.156-2.543 14.782h65.461c24.453 0 44.346-19.894 44.346-44.346v-81.581c.001-40.753-33.155-73.909-73.909-73.909zM107.265 308.725c0-12.43 2.205-24.354 6.241-35.404H73.91c-40.754 0-73.91 33.156-73.91 73.91v81.581c0 24.452 19.893 44.346 44.346 44.346h65.462a44.144 44.144 0 0 1-2.543-14.783v-149.65zM301.261 234.815h-90.522c-40.754 0-73.91 33.156-73.91 73.91v149.65c0 8.163 6.618 14.782 14.782 14.782h208.778c8.164 0 14.782-6.618 14.782-14.782v-149.65c0-40.754-33.156-73.91-73.91-73.91zM256 38.84c-49.012 0-88.886 39.874-88.886 88.887 0 33.245 18.349 62.28 45.447 77.524 12.853 7.23 27.671 11.362 43.439 11.362s30.586-4.132 43.439-11.362c27.099-15.244 45.447-44.28 45.447-77.524 0-49.012-39.874-88.887-88.886-88.887zM99.918 121.689c-36.655 0-66.475 29.82-66.475 66.475 0 36.655 29.82 66.475 66.475 66.475a66.095 66.095 0 0 0 26.195-5.388c13.906-5.987 25.372-16.585 32.467-29.86a66.05 66.05 0 0 0 7.813-31.227c0-36.654-29.82-66.475-66.475-66.475zM412.082 121.689c-36.655 0-66.475 29.82-66.475 66.475a66.045 66.045 0 0 0 7.813 31.227c7.095 13.276 18.561 23.874 32.467 29.86a66.095 66.095 0 0 0 26.195 5.388c36.655 0 66.475-29.82 66.475-66.475 0-36.655-29.82-66.475-66.475-66.475z" fill="#000000" opacity="1" data-original="#000000"></path></g></svg>