<svg xmlns="http://www.w3.org/2000/svg" xmlns:xlink="http://www.w3.org/1999/xlink" width="40" height="40" viewBox="0 0 40 40">
  <defs>
    <clipPath id="clip-path">
      <circle id="Ellipse_34" data-name="Ellipse 34" cx="20" cy="20" r="20" transform="translate(0.269 -0.065)" fill="#f5f1f6" stroke="#f5f1f6" stroke-width="1"/>
    </clipPath>
  </defs>
  <g id="Groupe_de_masques_1" data-name="Groupe de masques 1" transform="translate(-0.269 0.065)" clip-path="url(#clip-path)">
    <ellipse id="Ellipse_35" data-name="Ellipse 35" cx="23.5" cy="23" rx="23.5" ry="23" transform="translate(-3.731 -3.065)" fill="#defee6"/>
    <g id="Layer_2" data-name="Layer 2" transform="translate(2.517 0.211)">
      <g id="OBJECTS" transform="translate(0 0)">
        <path id="Tracé_395" data-name="Tracé 395" d="M17.446,27.687s-3.459,2.182-1.58,5.492,14.893,2.405,8.2-5.492C18.545,21.164,17.446,27.687,17.446,27.687Z" transform="translate(-3.23 -5.23)" fill="#76413b"/>
        <path id="Tracé_396" data-name="Tracé 396" d="M31.263,17.726a5.263,5.263,0,0,0-1.2,3.61c.433,2.6-3.534,6.018-7.6,4.89s.3-8.726.3-8.726Z" transform="translate(-4.375 -3.692)" fill="#76413b"/>
        <path id="Tracé_397" data-name="Tracé 397" d="M10.01,17.726a5.254,5.254,0,0,1,1.2,3.61c-.424,2.6,3.536,6.018,7.6,4.89s-.3-8.726-.3-8.726Z" transform="translate(-2.112 -3.692)" fill="#76413b"/>
        <path id="Tracé_398" data-name="Tracé 398" d="M22.61,23.408a11.454,11.454,0,0,0,5.415-1.169,5.8,5.8,0,0,0,2.031-1.785,5.984,5.984,0,0,1,1.216-2.728l-8.5-.226a16.717,16.717,0,0,0-2.017,5.781A17.869,17.869,0,0,0,22.61,23.408Z" transform="translate(-4.38 -3.692)" fill="#965450"/>
        <path id="Tracé_399" data-name="Tracé 399" d="M11.256,21.021a20.382,20.382,0,0,0,9.087,2.387h.2c-.115-2.577-2.031-5.905-2.031-5.905l-8.5.223A5.424,5.424,0,0,1,11.256,21.021Z" transform="translate(-2.112 -3.693)" fill="#965450"/>
        <path id="Tracé_400" data-name="Tracé 400" d="M22.016,31.6C20.1,30.56,20.624,25.51,20.624,25.51l-2.866.181v-.185l-.309.1-.307-.093v.178l-2.852-.178S14.811,30.56,12.9,31.6-.776,33.171.44,44.83H34.474C35.692,33.169,23.932,32.647,22.016,31.6Z" transform="translate(-0.074 -5.382)" fill="#ffac9d"/>
        <path id="Tracé_401" data-name="Tracé 401" d="M17.495,30.3q3.434-.512,6.864-1.056a15.274,15.274,0,0,1-.117-3.732l-2.866.178v-.185l-.309.1-.307-.093v.178l-2.852-.178A13.065,13.065,0,0,1,17.495,30.3Z" transform="translate(-3.691 -5.382)" fill="#cc887f"/>
        <path id="Tracé_402" data-name="Tracé 402" d="M25.834,34.372a12.143,12.143,0,0,1-6.97,2.841L17.345,42.68l-.806-5.415A12.355,12.355,0,0,1,9,34.379C5.027,35.647-.779,38.406.086,46.7H34.749C35.615,38.406,29.81,35.647,25.834,34.372Z" transform="translate(0.001 -7.253)" fill="#5d8584"/>
        <path id="Tracé_403" data-name="Tracé 403" d="M18.591,38.652l-.208-1.385a12.355,12.355,0,0,1-7.539-2.886,20.685,20.685,0,0,0-2.108.8C10.145,37.088,13.984,38.5,18.591,38.652Z" transform="translate(-1.843 -7.255)" fill="#78a8a5"/>
        <path id="Tracé_404" data-name="Tracé 404" d="M33.116,35.277a19.478,19.478,0,0,0-2.342-.9,12.143,12.143,0,0,1-6.97,2.841l-.4,1.435C27.9,38.488,31.654,37.132,33.116,35.277Z" transform="translate(-4.939 -7.254)" fill="#78a8a5"/>
        <path id="Tracé_405" data-name="Tracé 405" d="M21.547,46.418a.632.632,0,1,0,.632-.632A.632.632,0,0,0,21.547,46.418Z" transform="translate(-4.547 -9.662)" fill="#78a8a5"/>
        <path id="Tracé_406" data-name="Tracé 406" d="M14.033,15.785c-.564-1.751-1.9-1.354-2.031-1.3s-1.51.226-1.273,2.044,1.309,2.827,2.306,2.536C14.062,18.9,14.6,17.543,14.033,15.785Z" transform="translate(-2.258 -3.04)" fill="#cc887f"/>
        <path id="Tracé_407" data-name="Tracé 407" d="M29.133,15.785c.564-1.751,1.9-1.354,2.031-1.3s1.512.226,1.273,2.044-1.311,2.827-2.308,2.536C29.1,18.9,28.565,17.543,29.133,15.785Z" transform="translate(-6.099 -3.04)" fill="#cc887f"/>
        <path id="Tracé_408" data-name="Tracé 408" d="M13.163,10.865c.7-7.672,6.53-7.241,7.081-7.182.548-.059,6.379-.487,7.078,7.182.709,7.715-2.733,12.753-7.078,12.471C15.9,23.619,12.461,18.58,13.163,10.865Z" transform="translate(-2.758 -0.772)" fill="#ffac9d"/>
        <path id="Tracé_409" data-name="Tracé 409" d="M12.869,13.993s-.377,10.08,5.567,11.208,9.626-3.836,9.1-11.733l-.751-.077s-.49,7.974-2.295,8.049.864-2.482-2.595-2.633-5.172-1.3-5.454,1.618c-.187,1.956-2.586-1.392-2.9-6.582S12.869,13.993,12.869,13.993Z" transform="translate(-2.714 -2.442)" fill="#965450"/>
        <path id="Tracé_410" data-name="Tracé 410" d="M13.839,16.16a18.126,18.126,0,0,1-.293-2.317c-.3-5.19-.677.151-.677.151a20.4,20.4,0,0,0,.117,2.6Z" transform="translate(-2.714 -2.442)" fill="#76413b"/>
        <path id="Tracé_411" data-name="Tracé 411" d="M31.214,16.711a20.849,20.849,0,0,0,0-2.757l-.751-.077s-.068,1.092-.244,2.471Z" transform="translate(-6.377 -2.928)" fill="#76413b"/>
        <path id="Tracé_412" data-name="Tracé 412" d="M23.2,13.934c.1.352.171.706.239,1.061s.124.713.174,1.07c.027.178.045.357.068.537s.043.357.059.537c.038.359.065.718.086,1.079v.1l-.07.043c-.226.142-.463.278-.7.411s-.474.264-.722.379c.2-.187.406-.361.614-.535s.42-.338.636-.5l-.065.142c-.059-.357-.111-.715-.151-1.072-.023-.181-.045-.359-.061-.537s-.038-.359-.052-.539c-.029-.359-.052-.72-.063-1.081S23.186,14.3,23.2,13.934Z" transform="translate(-4.714 -2.94)" fill="#cc887f"/>
        <path id="Tracé_413" data-name="Tracé 413" d="M28.157,12.854l-.167-.093-.187-.1-.237-.124c-.088-.038-.178-.09-.28-.129l-.149-.068-.158-.056c-.1-.047-.226-.063-.323-.1a2.482,2.482,0,0,0-.334-.047l-.165-.016h-.165a1.9,1.9,0,0,0-.32.05c-.106.018-.2.07-.3.095l-.074.023-.068.036-.133.061a2.107,2.107,0,0,0-.226.117c-.068.043-.131.077-.183.106-.106.056-.174.086-.174.086s.027-.063.086-.171c.029-.054.065-.12.113-.192A1.1,1.1,0,0,1,24.9,12.1a1.4,1.4,0,0,1,.259-.239,2.074,2.074,0,0,1,.325-.194c.068-.027.135-.05.205-.074a.81.81,0,0,1,.226-.052c.074,0,.151-.023.226-.029h.226a1.943,1.943,0,0,1,.451.09c.07.025.138.056.2.083a.977.977,0,0,1,.187.1c.059.036.117.07.171.106l.149.12a2.3,2.3,0,0,1,.248.239,2.148,2.148,0,0,1,.3.417,1.178,1.178,0,0,1,.088.19Z" transform="translate(-5.173 -2.429)" fill="#352c38"/>
        <path id="Tracé_414" data-name="Tracé 414" d="M18.947,12.852l-.167-.093-.187-.1-.226-.124c-.088-.038-.178-.09-.278-.129l-.151-.068-.156-.056c-.1-.047-.226-.063-.325-.1a2.482,2.482,0,0,0-.345-.047l-.167-.014h-.165a1.932,1.932,0,0,0-.32.05c-.106.018-.2.07-.3.095l-.074.023-.068.036-.133.061a2.32,2.32,0,0,0-.237.117c-.068.043-.131.077-.183.106-.106.056-.174.086-.174.086s.027-.063.086-.171c.032-.054.068-.12.115-.192a1.018,1.018,0,0,1,.183-.226,1.4,1.4,0,0,1,.259-.239,2.074,2.074,0,0,1,.347-.205c.068-.027.135-.05.205-.074a.81.81,0,0,1,.226-.052c.074,0,.151-.023.226-.029h.226a1.988,1.988,0,0,1,.451.09c.068.025.135.056.2.083a.977.977,0,0,1,.187.1c.059.036.117.07.171.106l.151.12a2.809,2.809,0,0,1,.246.259,2.223,2.223,0,0,1,.293.417A1.178,1.178,0,0,1,18.947,12.852Z" transform="translate(-3.226 -2.426)" fill="#352c38"/>
        <path id="Tracé_415" data-name="Tracé 415" d="M19,16.333s-.016-.061-.052-.167a2.807,2.807,0,0,0-.176-.4,1.415,1.415,0,0,0-.379-.451.851.851,0,0,0-.284-.147.521.521,0,0,0-.158-.056.584.584,0,0,0-.167-.014h-.165a1.176,1.176,0,0,0-.176.032.857.857,0,0,0-.275.131.9.9,0,0,0-.208.226,1.333,1.333,0,0,0-.138.244,2.242,2.242,0,0,0-.12.431c-.018.108-.025.171-.025.171a1.462,1.462,0,0,1-.029-.174,1.622,1.622,0,0,1,.025-.472,1.144,1.144,0,0,1,.106-.309.963.963,0,0,1,.226-.3.934.934,0,0,1,.368-.2,1.37,1.37,0,0,1,.19-.041,1.823,1.823,0,0,1,.226,0,1.06,1.06,0,0,1,.205.023.794.794,0,0,1,.2.054.742.742,0,0,1,.185.09.862.862,0,0,1,.162.12,1.336,1.336,0,0,1,.368.58,1.758,1.758,0,0,1,.088.451,1.175,1.175,0,0,1,0,.176Z" transform="translate(-3.512 -3.13)" fill="#352c38"/>
        <path id="Tracé_416" data-name="Tracé 416" d="M27.276,16.2s-.016-.063-.052-.167a2.678,2.678,0,0,0-.176-.413,1.4,1.4,0,0,0-.377-.451.918.918,0,0,0-.284-.147.639.639,0,0,0-.16-.038.835.835,0,0,0-.167-.014,1.266,1.266,0,0,0-.165,0,.97.97,0,0,0-.178.032.828.828,0,0,0-.275.129.945.945,0,0,0-.208.226,1.686,1.686,0,0,0-.131.253,2.155,2.155,0,0,0-.117.429,1.673,1.673,0,0,0-.025.174,1.11,1.11,0,0,1-.029-.176,1.534,1.534,0,0,1,.023-.472,1.324,1.324,0,0,1,.106-.309.955.955,0,0,1,.226-.3.934.934,0,0,1,.37-.2,1.228,1.228,0,0,1,.19-.038,1.155,1.155,0,0,1,.212,0,.8.8,0,0,1,.208.023.779.779,0,0,1,.2.054.711.711,0,0,1,.187.088,1.076,1.076,0,0,1,.162.12,1.336,1.336,0,0,1,.368.58,1.79,1.79,0,0,1,.088.451A1.384,1.384,0,0,1,27.276,16.2Z" transform="translate(-5.259 -3.105)" fill="#352c38"/>
        <path id="Tracé_417" data-name="Tracé 417" d="M24.453,22.288c-1.388,1.354-3.739,1.275-5.519.072" transform="translate(-3.995 -4.703)" fill="#fff"/>
        <path id="Tracé_418" data-name="Tracé 418" d="M19.363,4.03s-4.213-.754-4.89,1.88.3,6.167-2.782,5.641c0,0-2.236.451-.808,3.987,0,0-4.231-4.062-1.749-6.995,2.013-2.394,1.2-7.6,6.167-8.426S19.363,3.05,19.363,4.03Z" transform="translate(-1.762 0.001)" fill="#76413b"/>
        <path id="Tracé_419" data-name="Tracé 419" d="M19.363,4.03s-4.213-.754-4.89,1.88.3,6.167-2.782,5.641c0,0-2.236.451-.808,3.987,0,0-4.231-4.062-1.749-6.995,2.013-2.394,1.2-7.6,6.167-8.426S19.363,3.05,19.363,4.03Z" transform="translate(-1.762 0.001)" fill="#965450"/>
        <path id="Tracé_420" data-name="Tracé 420" d="M21.791,4.03S26,3.276,26.678,5.909s-.3,6.167,2.784,5.641c0,0,2.236.451.806,3.987,0,0,4.233-4.062,1.751-6.995-2.031-2.394-1.2-7.6-6.167-8.426S21.791,3.05,21.791,4.03Z" transform="translate(-4.584 0.001)" fill="#965450"/>
        <path id="Tracé_421" data-name="Tracé 421" d="M21.719,4.319c.3,0,.573,0,.857.027s.566.056.848.1a6.246,6.246,0,0,1,1.649.505A3.227,3.227,0,0,1,26.442,6.1a2.559,2.559,0,0,1,.341.848,6.092,6.092,0,0,1,.1.857,16.472,16.472,0,0,1,0,1.67,15.117,15.117,0,0,0,0,1.629,3.511,3.511,0,0,0,.131.776,1.5,1.5,0,0,0,.363.643,1.385,1.385,0,0,0,.677.345,2.92,2.92,0,0,0,.8.056h.014a2.356,2.356,0,0,1,.487.133,1.713,1.713,0,0,1,.438.248,1.061,1.061,0,0,1,.3.388,1.024,1.024,0,0,1,.086.483,1,1,0,0,0-.12-.465,1.049,1.049,0,0,0-.323-.345,1.7,1.7,0,0,0-.431-.2,2.089,2.089,0,0,0-.465-.09h.014a3.145,3.145,0,0,1-.848,0,1.638,1.638,0,0,1-.8-.357,1.722,1.722,0,0,1-.5-.756,3.809,3.809,0,0,1-.185-.839,15.426,15.426,0,0,1-.07-1.67c0-.548,0-1.094-.052-1.629a5.3,5.3,0,0,0-.117-.778,1.986,1.986,0,0,0-.291-.663,2.751,2.751,0,0,0-1.16-.914,6.092,6.092,0,0,0-1.5-.431q-.393-.065-.792-.095c-.264-.018-.537-.029-.792-.023Z" transform="translate(-4.583 -0.911)" fill="#965450"/>
      </g>
    </g>
  </g>
</svg>
