<svg xmlns="http://www.w3.org/2000/svg" xmlns:xlink="http://www.w3.org/1999/xlink" width="40" height="40" viewBox="0 0 40 40">
  <defs>
    <clipPath id="clip-path">
      <circle id="Ellipse_39" data-name="Ellipse 39" cx="20" cy="20" r="20" transform="translate(0.118 -0.065)" fill="#defee6"/>
    </clipPath>
    <clipPath id="clip-path-2">
      <path id="Tracé_429" data-name="Tracé 429" d="M23.1,23.468a3.578,3.578,0,0,1-1.41-2.644,16.933,16.933,0,0,1-7.122.014,3.526,3.526,0,0,1-1.408,2.62C11.081,24.578-1.231,25.126.1,37.619H36.179C37.505,25.152,25.194,24.588,23.1,23.468Z" transform="translate(0.004 -20.825)" fill="none"/>
    </clipPath>
  </defs>
  <g id="Groupe_de_masques_2" data-name="Groupe de masques 2" transform="translate(-0.118 0.065)" clip-path="url(#clip-path)">
    <g id="Layer_2" data-name="Layer 2" transform="translate(1.794 0)">
      <g id="OBJECTS" transform="translate(0 0)">
        <path id="Tracé_422" data-name="Tracé 422" d="M11.032,12.849S9.1,12.417,8.81,14.066s.862,2.008.862,2.008S7.95,14.137,6.733,15.5s.788,2.51.788,2.51-2.232-1.22-2.653.286,1.374,2.437,1.374,2.437-1.936-.143-1.863.715,1.934.143,1.934.143-2.725.5-2.294,2.653,2.58.931,2.58.931-1.648.86-1.217,3.573,12.688-2.8,12.688-2.8l.214-7.384Z" transform="translate(0.432 1.377)" fill="#352c38"/>
        <path id="Tracé_423" data-name="Tracé 423" d="M23.825,12.849s1.936-.431,2.222,1.217-.86,2.008-.86,2.008,1.72-1.936,2.939-.574-.788,2.51-.788,2.51,2.222-1.22,2.651.286-1.36,2.437-1.36,2.437,1.934-.143,1.863.715-1.936.143-1.936.143,2.725.5,2.3,2.653-2.582.931-2.582.931,1.648.86,1.22,3.573S16.8,25.965,16.8,25.965l-.217-7.384Z" transform="translate(1.787 1.377)" fill="#352c38"/>
        <path id="Tracé_424" data-name="Tracé 424" d="M11.032,12.849S9.1,12.417,8.81,14.066s.862,2.008.862,2.008S7.95,14.137,6.733,15.5s.788,2.51.788,2.51-2.232-1.22-2.653.286,1.374,2.437,1.374,2.437-1.936-.143-1.863.715,1.934.143,1.934.143-2.725.5-2.294,2.653,2.58.931,2.58.931-1.648.86-1.217,3.573,12.688-2.8,12.688-2.8l.214-7.384Z" transform="translate(0.432 1.377)" fill="#2a242d"/>
        <path id="Tracé_425" data-name="Tracé 425" d="M23.825,12.849s1.936-.431,2.222,1.217-.86,2.008-.86,2.008,1.72-1.936,2.939-.574-.788,2.51-.788,2.51,2.222-1.22,2.651.286-1.36,2.437-1.36,2.437,1.934-.143,1.863.715-1.936.143-1.936.143,2.725.5,2.3,2.653-2.582.931-2.582.931,1.648.86,1.22,3.573S16.8,25.965,16.8,25.965l-.217-7.384Z" transform="translate(1.787 1.377)" fill="#2a242d"/>
        <path id="Tracé_426" data-name="Tracé 426" d="M22.943,24.019c-2.02-1.1-1.47-6.431-1.47-6.431l-3.025.193v-.193l-.324.1-.319-.1v.193l-3.025-.193s.55,5.326-1.47,6.431S-.647,25.674.64,37.979H35.617C36.9,25.672,24.966,25.119,22.943,24.019Z" transform="translate(0.063 1.892)" fill="#965450"/>
        <path id="Tracé_427" data-name="Tracé 427" d="M13.011,22.642q3.628-.541,7.246-1.115a16.123,16.123,0,0,1-.124-3.94l-3.025.193v-.193l-.324.1-.319-.1v.193L13.44,17.59A13.71,13.71,0,0,1,13.011,22.642Z" transform="translate(1.403 1.892)" fill="#76413b"/>
        <path id="Tracé_428" data-name="Tracé 428" d="M23.1,23.468a3.578,3.578,0,0,1-1.41-2.644,16.933,16.933,0,0,1-7.122.014,3.526,3.526,0,0,1-1.408,2.62C11.081,24.578-1.231,25.126.1,37.619H36.179C37.505,25.152,25.194,24.588,23.1,23.468Z" transform="translate(0.004 2.24)" fill="#fc6a5a"/>
        <g id="Groupe_26" data-name="Groupe 26" transform="translate(0 23.064)" opacity="0.9">
          <g id="Groupe_25" data-name="Groupe 25" clip-path="url(#clip-path-2)">
            <line id="Ligne_1" data-name="Ligne 1" x2="39.615" transform="translate(-2.039 1.674)" fill="none" stroke="#fdedee" stroke-miterlimit="10" stroke-width="0.658"/>
            <line id="Ligne_2" data-name="Ligne 2" x2="39.615" transform="translate(-2.039 3.606)" fill="none" stroke="#fdedee" stroke-miterlimit="10" stroke-width="0.658"/>
            <line id="Ligne_3" data-name="Ligne 3" x2="39.615" transform="translate(-2.039 5.538)" fill="none" stroke="#fdedee" stroke-miterlimit="10" stroke-width="0.658"/>
            <line id="Ligne_4" data-name="Ligne 4" x2="39.615" transform="translate(-2.039 7.47)" fill="none" stroke="#fdedee" stroke-miterlimit="10" stroke-width="0.658"/>
            <line id="Ligne_5" data-name="Ligne 5" x2="39.615" transform="translate(-2.039 9.401)" fill="none" stroke="#fdedee" stroke-miterlimit="10" stroke-width="0.658"/>
            <line id="Ligne_6" data-name="Ligne 6" x2="39.615" transform="translate(-2.039 11.333)" fill="none" stroke="#fdedee" stroke-miterlimit="10" stroke-width="0.658"/>
            <line id="Ligne_7" data-name="Ligne 7" x2="39.615" transform="translate(-2.039 13.265)" fill="none" stroke="#fdedee" stroke-miterlimit="10" stroke-width="0.658"/>
            <line id="Ligne_8" data-name="Ligne 8" x2="39.615" transform="translate(-2.039 15.194)" fill="none" stroke="#fdedee" stroke-miterlimit="10" stroke-width="0.658"/>
          </g>
        </g>
        <path id="Tracé_430" data-name="Tracé 430" d="M1.148,36.859H36.055c.436-4.094-.6-6.907-2.256-8.877C22.845,30.664,12.065,34.02,1.148,36.859Z" transform="translate(0.128 3.009)" fill="#2a242d" opacity="0.3"/>
        <path id="Tracé_431" data-name="Tracé 431" d="M11.419,10.69c-.6-1.846-2.006-1.429-2.144-1.374a1.686,1.686,0,0,0-1.343,2.144c.25,1.905,1.377,2.984,2.43,2.677C11.45,13.977,12.012,12.548,11.419,10.69Z" transform="translate(0.854 0.994)" fill="#76413b"/>
        <path id="Tracé_432" data-name="Tracé 432" d="M21.833,10.69c.6-1.846,2-1.429,2.144-1.374a1.684,1.684,0,0,1,1.343,2.144c-.252,1.905-1.377,2.984-2.43,2.677C21.8,13.977,21.233,12.548,21.833,10.69Z" transform="translate(2.326 0.994)" fill="#76413b"/>
        <path id="Tracé_433" data-name="Tracé 433" d="M9.782,8.76c.738-8.1,6.893-7.641,7.474-7.582.579-.06,6.734-.514,7.472,7.582.743,8.146-2.884,13.465-7.472,13.172C12.669,22.225,9.041,16.906,9.782,8.76Z" transform="translate(1.046 0.125)" fill="#965450"/>
        <path id="Tracé_434" data-name="Tracé 434" d="M17.522,11.463a3.89,3.89,0,0,1,.238.572c.071.193.131.391.183.586.029.1.048.2.071.3s.045.2.062.3c.04.2.069.4.091.6v.1l-.052.048c-.164.152-.336.3-.507.443a6.558,6.558,0,0,1-.538.412c.124-.193.26-.372.4-.553s.276-.353.422-.522l-.04.143c-.06-.2-.117-.393-.16-.593-.024-.1-.048-.2-.064-.3s-.04-.2-.055-.3c-.029-.2-.055-.4-.067-.61a4.194,4.194,0,0,1,.021-.624Z" transform="translate(1.84 1.233)" fill="#76413b"/>
        <path id="Tracé_435" data-name="Tracé 435" d="M19.921,15.809c-1.465,1.429-3.947,1.346-5.826.076" transform="translate(1.52 1.7)" fill="#fff"/>
        <path id="Tracé_436" data-name="Tracé 436" d="M22.136,9.121l-.176-.1-.2-.107-.25-.131c-.093-.04-.188-.1-.3-.138l-.157-.069-.167-.062c-.11-.048-.238-.064-.341-.1a2.62,2.62,0,0,0-.353-.052l-.176-.014a.866.866,0,0,0-.174.012,2,2,0,0,0-.338.052,2.765,2.765,0,0,0-.319.1l-.079.024-.071.036-.141.067a1.882,1.882,0,0,0-.238.124c-.071.045-.138.079-.193.11-.112.06-.183.093-.183.093a1.988,1.988,0,0,1,.091-.181c.031-.057.069-.129.119-.2a1.219,1.219,0,0,1,.2-.238,1.479,1.479,0,0,1,.274-.252,2.039,2.039,0,0,1,.367-.217l.217-.081a.853.853,0,0,1,.238-.052c.079-.012.16-.024.238-.031a.994.994,0,0,1,.238.012,2.051,2.051,0,0,1,.476.1c.074.026.145.057.214.088a1.031,1.031,0,0,1,.2.1c.062.038.124.074.181.112l.157.126a2.427,2.427,0,0,1,.262.252,2.2,2.2,0,0,1,.3.445,1.3,1.3,0,0,1,.086.183Z" transform="translate(1.971 0.829)" fill="#352c38"/>
        <path id="Tracé_437" data-name="Tracé 437" d="M15.214,9.121l-.176-.1-.2-.107-.25-.131c-.093-.04-.188-.1-.293-.138l-.16-.069-.164-.062c-.11-.048-.238-.064-.343-.1a2.62,2.62,0,0,0-.353-.052L13.1,8.345a.866.866,0,0,0-.174.012,2.039,2.039,0,0,0-.338.052,2.765,2.765,0,0,0-.319.1l-.079.024-.071.036-.141.067a2.039,2.039,0,0,0-.25.124c-.071.045-.138.079-.193.11-.112.06-.183.093-.183.093a1.989,1.989,0,0,1,.091-.181c.033-.057.071-.129.121-.2a1.122,1.122,0,0,1,.193-.238,1.479,1.479,0,0,1,.274-.252,2.039,2.039,0,0,1,.367-.217l.217-.081a.853.853,0,0,1,.238-.052c.079-.012.16-.024.238-.031a.994.994,0,0,1,.238.012,2.1,2.1,0,0,1,.476.1c.071.026.143.057.212.088a1.031,1.031,0,0,1,.2.1c.062.038.124.074.181.112l.16.126a2.965,2.965,0,0,1,.262.252,2.272,2.272,0,0,1,.31.445A1.3,1.3,0,0,1,15.214,9.121Z" transform="translate(1.225 0.829)" fill="#352c38"/>
        <path id="Tracé_438" data-name="Tracé 438" d="M14.867,11.786s-.017-.067-.055-.176a2.963,2.963,0,0,0-.183-.434,1.5,1.5,0,0,0-.4-.476.938.938,0,0,0-.314-.162.629.629,0,0,0-.169-.043.715.715,0,0,0-.176-.012,1.039,1.039,0,0,0-.174,0,1.241,1.241,0,0,0-.186.033.858.858,0,0,0-.291.138.938.938,0,0,0-.219.226,1.429,1.429,0,0,0-.138.267,2.368,2.368,0,0,0-.126.455c-.019.114-.026.181-.026.181a1.543,1.543,0,0,1-.031-.183,1.71,1.71,0,0,1,.026-.5,1.222,1.222,0,0,1,.112-.329,1.008,1.008,0,0,1,.238-.314.989.989,0,0,1,.388-.212,1.429,1.429,0,0,1,.2-.04,1.925,1.925,0,0,1,.238,0,.953.953,0,0,1,.217.024.838.838,0,0,1,.214.057.715.715,0,0,1,.2.1.91.91,0,0,1,.171.126,1.384,1.384,0,0,1,.388.612,1.855,1.855,0,0,1,.1.479,1.241,1.241,0,0,1,0,.186Z" transform="translate(1.335 1.098)" fill="#352c38"/>
        <path id="Tracé_439" data-name="Tracé 439" d="M21.081,11.684s-.017-.064-.055-.176a2.72,2.72,0,0,0-.186-.434,1.479,1.479,0,0,0-.4-.476.922.922,0,0,0-.291-.162.586.586,0,0,0-.169-.04.631.631,0,0,0-.176-.014h-.174a1.277,1.277,0,0,0-.188.033.929.929,0,0,0-.291.138,1,1,0,0,0-.219.238,1.758,1.758,0,0,0-.148.269,2.334,2.334,0,0,0-.124.455,1.782,1.782,0,0,0-.026.181,1.1,1.1,0,0,1-.031-.183,1.62,1.62,0,0,1,.024-.5,1.4,1.4,0,0,1,.112-.326,1.015,1.015,0,0,1,.636-.526,1.313,1.313,0,0,1,.2-.043,1.86,1.86,0,0,1,.224,0,1.122,1.122,0,0,1,.219.024.929.929,0,0,1,.212.057.841.841,0,0,1,.2.1,1,1,0,0,1,.171.126,1.41,1.41,0,0,1,.388.612,1.855,1.855,0,0,1,.093.488,1.409,1.409,0,0,1,0,.162Z" transform="translate(2.004 1.088)" fill="#352c38"/>
        <path id="Tracé_440" data-name="Tracé 440" d="M17.627,1.3s.379,4.964-7.146,7.043a15.911,15.911,0,0,1-.434,4.873A9.957,9.957,0,0,1,8.759,5.55C9.9,1.391,15.717-1.939,17.627,1.3Z" transform="translate(0.913 0.001)" fill="#352c38"/>
        <path id="Tracé_441" data-name="Tracé 441" d="M16.2,1.3s-.143,4.964,7.384,7.043a17.586,17.586,0,0,0,.288,5.519S26.452,9.709,25.3,5.55,18.109-1.939,16.2,1.3Z" transform="translate(1.746 0.001)" fill="#352c38"/>
        <path id="Tracé_442" data-name="Tracé 442" d="M11.617,7.487A9.616,9.616,0,0,1,8.885,4.648c-.045.133-.088.267-.126.4a9.957,9.957,0,0,0,1.289,7.67,15.911,15.911,0,0,0,.431-4.883C10.881,7.734,11.258,7.613,11.617,7.487Z" transform="translate(0.913 0.5)" fill="#2a242d"/>
      </g>
    </g>
  </g>
</svg>
