<svg xmlns="http://www.w3.org/2000/svg" width="186.579" height="89.349" viewBox="0 0 186.579 89.349">
  <g id="divider" transform="translate(0 -111.52)">
    <path id="Path_485" data-name="Path 485" d="M3.487,141.9A3.487,3.487,0,0,0,0,145.383v21.622a3.487,3.487,0,1,0,6.975,0V145.383A3.487,3.487,0,0,0,3.487,141.9ZM17.3,124.284a3.487,3.487,0,0,0-3.487,3.487v56.846a3.487,3.487,0,0,0,6.975,0V127.772A3.487,3.487,0,0,0,17.3,124.284Zm13.81,6.1a3.487,3.487,0,0,0-3.487,3.487v44.639a3.487,3.487,0,0,0,6.975,0V133.875A3.487,3.487,0,0,0,31.108,130.387ZM44.918,141.9a3.487,3.487,0,0,0-3.487,3.487v21.622a3.487,3.487,0,1,0,6.975,0V145.383A3.487,3.487,0,0,0,44.918,141.9ZM58.764,111.52a3.487,3.487,0,0,0-3.487,3.487v82.374a3.487,3.487,0,0,0,6.975,0V115.007A3.487,3.487,0,0,0,58.764,111.52Zm13.81,17.019a3.487,3.487,0,0,0-3.487,3.487v48.336a3.487,3.487,0,0,0,6.975,0V132.026A3.487,3.487,0,0,0,72.574,128.539Zm13.741,5.824a3.487,3.487,0,0,0-3.487,3.487v36.688a3.487,3.487,0,1,0,6.975,0V137.85a3.487,3.487,0,0,0-3.487-3.487Zm13.95,7.533a3.487,3.487,0,0,0-3.487,3.487v21.622a3.487,3.487,0,1,0,6.975,0V145.383A3.487,3.487,0,0,0,100.265,141.9Zm13.741-7.533a3.487,3.487,0,0,0-3.487,3.487v36.688a3.487,3.487,0,1,0,6.975,0V137.85a3.487,3.487,0,0,0-3.487-3.487Zm13.81-5.824a3.487,3.487,0,0,0-3.487,3.487v48.336a3.487,3.487,0,0,0,6.975,0V132.026A3.487,3.487,0,0,0,127.815,128.539Zm13.845-17.019a3.487,3.487,0,0,0-3.487,3.487v82.374a3.487,3.487,0,0,0,6.975,0V115.007A3.487,3.487,0,0,0,141.661,111.52Zm13.81,18.867a3.487,3.487,0,0,0-3.487,3.487v44.639a3.487,3.487,0,1,0,6.975,0V133.875A3.487,3.487,0,0,0,155.471,130.387Zm13.81,11.509a3.487,3.487,0,0,0-3.487,3.487v21.622a3.487,3.487,0,1,0,6.975,0V145.383A3.487,3.487,0,0,0,169.281,141.9Zm13.81,0a3.487,3.487,0,0,0-3.487,3.487v21.622a3.487,3.487,0,1,0,6.975,0V145.383A3.487,3.487,0,0,0,183.092,141.9Z" transform="translate(0 0)" fill="#4a9aff"/>
  </g>
</svg>
