<svg xmlns="http://www.w3.org/2000/svg" width="31.096" height="31.096" viewBox="0 0 31.096 31.096">
  <g id="calendar-icon" transform="translate(-2.25 -2.25)">
    <path id="Path_394" data-name="Path 394" d="M25.772,3.845h-.4v-.4a1.2,1.2,0,0,0-2.392,0v.4H12.615v-.4a1.2,1.2,0,1,0-2.392,0v.4h-.4A7.584,7.584,0,0,0,2.25,11.419V25.772a7.584,7.584,0,0,0,7.575,7.575H25.772a7.584,7.584,0,0,0,7.575-7.575V11.419a7.584,7.584,0,0,0-7.575-7.575ZM9.825,6.237h.4V8.23a1.2,1.2,0,1,0,2.392,0V6.237H22.981V8.23a1.2,1.2,0,0,0,2.392,0V6.237h.4a5.189,5.189,0,0,1,5.183,5.183v.4H4.642v-.4A5.189,5.189,0,0,1,9.825,6.237ZM25.772,30.954H9.825a5.189,5.189,0,0,1-5.183-5.183V14.21H30.954V25.772a5.189,5.189,0,0,1-5.183,5.183Zm0-11.561A1.595,1.595,0,1,1,24.177,17.8,1.595,1.595,0,0,1,25.772,19.393Zm-6.379,0A1.595,1.595,0,1,1,17.8,17.8,1.595,1.595,0,0,1,19.393,19.393Zm-6.379,0A1.595,1.595,0,1,1,11.419,17.8,1.595,1.595,0,0,1,13.014,19.393Zm12.758,6.379a1.595,1.595,0,1,1-1.595-1.595A1.595,1.595,0,0,1,25.772,25.772Zm-6.379,0A1.595,1.595,0,1,1,17.8,24.177,1.595,1.595,0,0,1,19.393,25.772Zm-6.379,0a1.595,1.595,0,1,1-1.595-1.595A1.595,1.595,0,0,1,13.014,25.772Z" transform="translate(0 0)" fill="#7586ff"/>
  </g>
</svg>
