<svg xmlns="http://www.w3.org/2000/svg" version="1.1" xmlns:xlink="http://www.w3.org/1999/xlink" width="512" height="512" x="0" y="0" viewBox="0 0 24 24" style="enable-background:new 0 0 512 512" xml:space="preserve" class=""><g><path d="M18 1H6a5.006 5.006 0 0 0-5 5v8a5.009 5.009 0 0 0 4 4.9V22a1 1 0 0 0 1.555.832L12.3 19H18a5.006 5.006 0 0 0 5-5V6a5.006 5.006 0 0 0-5-5zm-2 12H8a1 1 0 0 1 0-2h8a1 1 0 0 1 0 2zm2-4H6a1 1 0 0 1 0-2h12a1 1 0 0 1 0 2z" fill="#7586FF" opacity="1" data-original="#000000" class=""></path></g></svg>