<svg xmlns="http://www.w3.org/2000/svg" width="140.849" height="140.849" viewBox="0 0 140.849 140.849">
  <g id="drum-icon" transform="translate(0 0)">
    <path id="Path_518" data-name="Path 518" d="M120.222,20.627a70.425,70.425,0,0,0-99.6,99.6,70.425,70.425,0,0,0,99.6-99.6Zm-49.8,114.611a64.813,64.813,0,1,1,64.813-64.813A64.887,64.887,0,0,1,70.425,135.238Z" fill="#7586ff"/>
    <path id="Path_519" data-name="Path 519" d="M100.738,154.047a53.37,53.37,0,0,1-53.309-53.309,2.806,2.806,0,1,0-5.611,0,58.988,58.988,0,0,0,58.921,58.921,2.806,2.806,0,0,0,0-5.611Zm48.427-86.883a58.843,58.843,0,0,0-26.92-21.3A2.806,2.806,0,0,0,120.2,51.09a53.019,53.019,0,0,1,33.852,49.648,2.806,2.806,0,1,0,5.611,0A58.577,58.577,0,0,0,149.164,67.164ZM107.51,42.2a59.768,59.768,0,0,0-6.773-.385,2.806,2.806,0,1,0,0,5.611,54.072,54.072,0,0,1,6.134.349,2.806,2.806,0,0,0,.639-5.575Z" transform="translate(-30.313 -30.313)" fill="#7586ff"/>
    <g id="svgexport-17_13_" data-name="svgexport-17 (13)" transform="translate(37.135 19.735)">
      <path id="Path_526" data-name="Path 526" d="M155.7,114.429V102.6l3.516-1.046a3.217,3.217,0,0,0,2.166-4l-1.133-3.8a3.22,3.22,0,0,0-4-2.166l-.55.164V69.04a1.04,1.04,0,0,0-2.081,0V92.365l-8.5,2.528a.587.587,0,0,0-.3.917,17.6,17.6,0,0,1,3.438,8.293.588.588,0,0,0,.75.488l.451-.134V108.8l-2.333.583a16.65,16.65,0,0,0-15.353-19.5V84.248l2.081-1.04v3.518a1.04,1.04,0,0,0,1.04,1.04h14.564a1.04,1.04,0,0,0,1.04-1.04v-10.4a1.04,1.04,0,0,0-1.04-1.04H134.889a1.04,1.04,0,0,0-1.04,1.04v4.559L130.8,82.4l-2.155-1.437V76.322a1.04,1.04,0,0,0-1.04-1.04H113.042a1.04,1.04,0,0,0-1.04,1.04v10.4a1.04,1.04,0,0,0,1.04,1.04h14.564a1.04,1.04,0,0,0,1.04-1.04V83.468l1.04.693V89.88a16.636,16.636,0,0,0-10.341,28.745c0,.007-.006.014-.008.021l-1.04,3.121a1.04,1.04,0,1,0,1.974.658l.8-2.387a16.612,16.612,0,0,0,19.322,0l.8,2.387a1.04,1.04,0,0,0,1.974-.658l-1.04-3.121-.008-.021a16.683,16.683,0,0,0,4.438-6.956l.037-.007,4.161-1.04a1.04,1.04,0,0,0,.788-1.009v-5.774l2.081-.619v11.21l-5.991,6.99a1.04,1.04,0,0,0,1.58,1.354l4.412-5.147v4.47a1.04,1.04,0,1,0,2.081,0v-4.47l4.412,5.147a1.04,1.04,0,0,0,1.58-1.354Zm-10.4-33.945a1.04,1.04,0,1,1,2.081,0v2.081a1.04,1.04,0,0,1-2.081,0Zm-4.161,0a1.04,1.04,0,0,1,2.081,0v2.081a1.04,1.04,0,0,1-2.081,0Zm-4.161,0a1.04,1.04,0,1,1,2.081,0v2.081a1.04,1.04,0,0,1-2.081,0ZM117.2,82.564a1.04,1.04,0,0,1-2.081,0V80.484a1.04,1.04,0,1,1,2.081,0Zm4.161,0a1.04,1.04,0,0,1-2.081,0V80.484a1.04,1.04,0,0,1,2.081,0Zm4.161,0a1.04,1.04,0,0,1-2.081,0V80.484a1.04,1.04,0,1,1,2.081,0Zm5.2,35.371a11.443,11.443,0,1,1,11.443-11.443A11.444,11.444,0,0,1,130.728,117.935Z" transform="translate(-97.438 -41.758)" fill="#7586ff"/>
      <path id="Path_527" data-name="Path 527" d="M48.894,27.282h5.2a1.04,1.04,0,0,0,.736-.3L55.808,26a2,2,0,0,1,2.818,0l.976.976a1.04,1.04,0,0,0,.736.3h5.2a1.04,1.04,0,1,0,0-2.081H60.768L60.1,24.53a4.073,4.073,0,0,0-5.76,0l-.672.672H48.894a1.04,1.04,0,0,0,0,2.081ZM7.282,72.78V41.18a1.015,1.015,0,0,0-.013-.156l3.806-10.658c.464.024.934.038,1.408.038a21.529,21.529,0,0,0,7.743-1.293c2.387-.955,3.7-2.343,3.7-3.908s-1.314-2.954-3.7-3.908A21.528,21.528,0,0,0,12.483,20a21.529,21.529,0,0,0-7.743,1.293c-2.386.955-3.7,2.343-3.7,3.908s1.314,2.954,3.7,3.908a18.121,18.121,0,0,0,4.2,1.055L.06,55.021a1.04,1.04,0,1,0,1.96.7L5.2,46.812V72.78L1.177,79.822a1.04,1.04,0,1,0,1.807,1.032l3.258-5.7,3.258,5.7a1.04,1.04,0,0,0,1.806-1.032Z" transform="translate(0)" fill="#7586ff"/>
      <path id="Path_528" data-name="Path 528" d="M78.244,120.411a17.577,17.577,0,0,1,2.175-8.492.587.587,0,0,0-.514-.871H75.219A3.217,3.217,0,0,0,72,114.265v12.291a3.217,3.217,0,0,0,3.217,3.217H77.9l-1.7,5.956a1.04,1.04,0,1,0,2,.572l1.872-6.553a.587.587,0,0,0,.343-.845,17.578,17.578,0,0,1-2.175-8.492ZM128.179,84h-5.2a1.04,1.04,0,1,0,0,2.081h5.2a1.04,1.04,0,1,0,0-2.081Zm-16.645,2.081h5.2a1.04,1.04,0,0,0,0-2.081h-5.2a1.04,1.04,0,1,0,0,2.081Z" transform="translate(-62.64 -55.678)" fill="#7586ff"/>
    </g>
  </g>
</svg>
