<svg xmlns="http://www.w3.org/2000/svg" version="1.1" xmlns:xlink="http://www.w3.org/1999/xlink" width="512" height="512" x="0" y="0" viewBox="0 0 24 24" style="enable-background:new 0 0 512 512" xml:space="preserve" class=""><g><g fill="#396CE8"><circle cx="10.009" cy="6.5" r="4" fill="#396CE8" opacity="1" data-original="#396ce8" class=""></circle><path d="M16.057 14.18a.309.309 0 0 1-.087.21l-4.03 4.05a1.5 1.5 0 0 0-.44 1.06v1.7a.324.324 0 0 1-.09.215.272.272 0 0 1-.21.09H6c-2.29 0-3.5-1.2-3.5-3.48 0-2.55 1.44-5.52 5.5-5.52h4a5.356 5.356 0 0 1 3.93 1.44.4.4 0 0 1 .127.235z" opacity="0.4" fill="#396CE8" data-original="#396ce840" class=""></path><path d="M20.038 17.481 15.5 22H13v-2.5l4.519-4.539zm1.67-3.069-1.12-1.12a1 1 0 0 0-1.41 0l-.959.97 2.519 2.519.97-.959a1 1 0 0 0 0-1.41z" fill="#396CE8" opacity="1" data-original="#396ce8" class=""></path></g></g></svg>