<svg xmlns="http://www.w3.org/2000/svg" width="47.919" height="47.919" viewBox="0 0 47.919 47.919">
  <g id="svgexport-17_22_" data-name="svgexport-17 (22)" transform="translate(-2.25 -2.25)">
    <path id="Path_561" data-name="Path 561" d="M5.936,18.837V13.923a7.979,7.979,0,0,1,7.986-7.986h4.915a1.843,1.843,0,1,0,0-3.686H13.923A11.673,11.673,0,0,0,2.25,13.923v4.915a1.843,1.843,0,1,0,3.686,0Zm27.645-12.9H38.5a7.979,7.979,0,0,1,7.986,7.986v4.915a1.843,1.843,0,1,0,3.686,0V13.923A11.673,11.673,0,0,0,38.5,2.25H33.581a1.843,1.843,0,0,0,0,3.686ZM2.25,33.581V38.5A11.673,11.673,0,0,0,13.923,50.169h4.915a1.843,1.843,0,1,0,0-3.686H13.923A7.979,7.979,0,0,1,5.936,38.5V33.581a1.843,1.843,0,0,0-3.686,0ZM33.581,50.169H38.5A11.673,11.673,0,0,0,50.169,38.5V33.581a1.843,1.843,0,0,0-3.686,0V38.5A7.979,7.979,0,0,1,38.5,46.483H33.581a1.843,1.843,0,0,0,0,3.686Zm-.614-32.56v2.457a1.843,1.843,0,1,0,3.686,0V17.609a1.843,1.843,0,1,0-3.686,0Zm-17.2,0v2.457a1.843,1.843,0,0,0,3.686,0V17.609a1.843,1.843,0,1,0-3.686,0ZM25.6,27.527V21.295a1.843,1.843,0,0,1,3.686,0v7.372a1.843,1.843,0,0,1-1.02,1.649L25.8,31.544a1.843,1.843,0,1,1-1.646-3.3Zm7.913,5.981a1.843,1.843,0,0,1,2.6,2.6c-.334.334,0,0,0,0a14,14,0,0,1-19.8,0l0,0a1.843,1.843,0,0,1,2.6-2.6c.334.334,0,0,0,0a10.316,10.316,0,0,0,14.587,0l0,0Z" transform="translate(0 0)" fill="#7586ff" fill-rule="evenodd"/>
  </g>
</svg>
