<svg xmlns="http://www.w3.org/2000/svg" xmlns:xlink="http://www.w3.org/1999/xlink" width="1921.532" height="623.961" viewBox="0 0 1921.532 623.961">
  <defs>
    <clipPath id="clip-path">
      <rect id="Rectangle_19" data-name="Rectangle 19" width="95" height="162.773" fill="#dbdffd"/>
    </clipPath>
  </defs>
  <g id="footer-bg" transform="translate(0.879 -10420.039)">
    <g id="header_devider" data-name="header devider" transform="translate(0 10421.65)">
      <g id="notes_line" data-name="notes line" transform="translate(0 0)">
        <path id="Path_404" data-name="Path 404" d="M1.03,182.658s180.461-81.5,444.4-36.5,494.932,76.9,725.361-13.55,749.816,50.05,749.816,50.05" transform="translate(-0.88 -12.983)" fill="none" stroke="#dbdffd" stroke-miterlimit="10" stroke-width="5"/>
        <path id="Path_405" data-name="Path 405" d="M.88,102.273s180.5-81.254,444.5-36.39,487.97,10.508,727-53.837c200-53.837,748.5,90.227,748.5,90.227Z" transform="translate(-0.88 177.092)" fill="#dbdffd" stroke="#dbdffd" stroke-width="1"/>
        <path id="Path_406" data-name="Path 406" d="M1.3,271.038s180.461-81.5,444.4-36.5,494.932,76.9,725.361-13.55,749.816,50.05,749.816,50.05" transform="translate(-0.88 -189.743)" fill="none" stroke="#dbdffd" stroke-miterlimit="10" stroke-width="5"/>
      </g>
      <g id="svgexport-6_3_" data-name="svgexport-6 (3)" transform="translate(333.02 36.68)">
        <path id="Path_407" data-name="Path 407" d="M47.661,24.247C41.5,19.734,35.186,14.172,30.689,7.427l-3.936-5.9a3.416,3.416,0,0,0-6.258,1.895V57.01a13.506,13.506,0,0,0-6.832-1.9A13.663,13.663,0,1,0,27.327,68.773V14.633a84.2,84.2,0,0,0,16.3,15.125,10.248,10.248,0,0,1-6.048,18.52,3.416,3.416,0,1,0,0,6.832A17.08,17.08,0,0,0,47.661,24.247Zm64.579,3.666L63.963,41.577a3.419,3.419,0,0,0-2.479,3.286V91.168a13.506,13.506,0,0,0-6.832-1.9,13.663,13.663,0,1,0,13.663,13.663V61.1l41.445-11.711V77.5a13.506,13.506,0,0,0-6.832-1.9,13.663,13.663,0,1,0,13.663,13.663V31.2A3.419,3.419,0,0,0,112.24,27.913Z" transform="translate(0 -0.002)" fill="#444"/>
      </g>
      <g id="svgexport-17_4_" data-name="svgexport-17 (4)" transform="translate(1503 97.976)">
        <path id="Path_408" data-name="Path 408" d="M110.014,46.057a30.079,30.079,0,0,0,4.034-13.243,18.489,18.489,0,0,0-1.95-9.187c-2.29-4.691-6.223-7.326-10.023-9.872-2.836-1.9-5.516-3.694-7.41-6.257l-.34-.457c-1.12-1.5-2.384-3.209-2.585-4.641A2.817,2.817,0,0,0,88.788,0,2.778,2.778,0,0,0,86.2,2.779v49.64a16.116,16.116,0,0,0-8.357-2.284c-7.677,0-13.928,5-13.928,11.143S70.163,72.42,77.84,72.42s13.928-5,13.928-11.143V28.808A20.053,20.053,0,0,1,104.683,43.99a15.71,15.71,0,0,1-1.075,1.521,2.783,2.783,0,0,0,4.178,3.677,20.711,20.711,0,0,0,2.045-2.875A1.755,1.755,0,0,0,110.014,46.057Z" transform="translate(-63.912 0)" fill="#444"/>
      </g>
      <g id="logo" transform="translate(31 72.901)">
        <g id="Group_51" data-name="Group 51" transform="translate(0 0)" clip-path="url(#clip-path)">
          <path id="Path_392" data-name="Path 392" d="M54.15,0c3.967.485,40.135,6.094,51.416,50.492a.062.062,0,0,1-.074.075L98.7,48.939a.061.061,0,0,1-.046-.048C98.428,47.683,92.489,18.5,54.119.116A.06.06,0,0,1,54.15,0" transform="translate(-44.277 0)" fill="#dbdffd"/>
          <path id="Path_393" data-name="Path 393" d="M3.658,0c-.006.018-.037.042-.049.056-.047.055-.093.111-.139.168Q3.361.362,3.256.5,3.115.694,2.981.89q-.166.243-.322.494-.184.3-.354.6-.195.346-.373.7-.2.4-.377.8-.2.446-.366.9-.185.495-.342,1-.168.543-.3,1.1Q.4,7.074.3,7.672.184,8.31.114,8.953q-.074.684-.1,1.371-.028.729,0,1.459.025.775.107,1.546.086.819.232,1.631.154.863.37,1.714.23.906.524,1.794.313.948.692,1.874.4.99.873,1.951.5,1.03,1.07,2.027.608,1.069,1.28,2.1.72,1.108,1.5,2.172.841,1.144,1.744,2.242.969,1.18,2,2.31,1.1,1.215,2.265,2.377,1.246,1.249,2.547,2.441,1.4,1.281,2.843,2.5,1.552,1.313,3.154,2.565c1.079.845,2.192,1.644,3.256,2.509.283.23.559.466.847.691q.311.244.626.481.376.284.757.561.443.322.891.637.511.358,1.028.707.58.391,1.167.773.651.422,1.309.833.723.451,1.454.889.8.477,1.6.939.871.5,1.751.985.947.522,1.9,1.026,1.024.54,2.058,1.062,1.1.557,2.216,1.094,1.183.571,2.377,1.12,1.264.582,2.54,1.141,1.347.591,2.705,1.158,1.432.6,2.874,1.169,1.517.6,3.044,1.175,1.6.6,3.218,1.177,1.692.6,3.394,1.174,1.781.6,3.573,1.166,1.872.593,3.754,1.153,1.964.585,3.938,1.135l.372.1a.055.055,0,0,0,.069-.038c.181-.662,1.047-7.636-36.583-22.109,0,0-42.457-18.08-33.694-45.744" transform="translate(0 0)" fill="#dbdffd"/>
          <path id="Path_394" data-name="Path 394" d="M173.1,172.145c-.053,1.051-.367,14.268,17.359,13.787a.087.087,0,0,0,.085-.1c-.174-1.346-2.474-16.49-17.373-13.768a.085.085,0,0,0-.071.078" transform="translate(-141.709 -140.601)" fill="#dbdffd"/>
          <path id="Path_395" data-name="Path 395" d="M283.407,435.724c-.018,1.1-.422,21.092-5.526,35.1a.038.038,0,0,0,.024.049l6.855,2.194a.037.037,0,0,0,.046-.019c.275-.574,4.478-9.7,6.355-35.4a.039.039,0,0,0-.029-.041l-7.677-1.919a.038.038,0,0,0-.048.036" transform="translate(-227.496 -356.691)" fill="#dbdffd"/>
          <path id="Path_396" data-name="Path 396" d="M145.849,695.44a92.787,92.787,0,0,1-24.122,36.583.042.042,0,0,0,.047.069c2.34-1.272,18.395-10.652,30.436-34.705a.043.043,0,0,0-.026-.06l-6.282-1.912a.042.042,0,0,0-.052.026" transform="translate(-99.644 -569.324)" fill="#dbdffd"/>
          <path id="Path_397" data-name="Path 397" d="M132.6,267.9a.059.059,0,0,1,.085-.081,39.578,39.578,0,0,0,4.126,3.2,89.988,89.988,0,0,0,9.329,5.576,160.692,160.692,0,0,0,15.695,7.133q4.91,1.947,9.909,3.66c6.251,2.153,12.575,3.836,18.023,7.731a32.586,32.586,0,0,1,9.387,10.351,33.928,33.928,0,0,1,4.116,12.613,38.95,38.95,0,0,1-.71,13.319,40.869,40.869,0,0,1-5.092,12.469,37.738,37.738,0,0,1-9.029,10.063,34.7,34.7,0,0,1-7.7,4.486.06.06,0,0,1-.059-.1,49.028,49.028,0,0,0,9.164-8.816c4.4-5.451,7.66-11.98,8.253-19.037a28.231,28.231,0,0,0-1.674-12.485c-1.658-4.289-4.472-7.181-7.875-10.131a107.4,107.4,0,0,0-13.413-10.03,106.021,106.021,0,0,0-16.927-8.094c-9.317-3.751-16.253-10.009-22.5-17.8q-1.588-1.981-3.1-4.021" transform="translate(-108.545 -219.249)" fill="#dbdffd"/>
          <path id="Path_398" data-name="Path 398" d="M278.747,760.342s-16.265-.276-20.194-3.027a.031.031,0,0,0-.045.011l-2.729,4.911a.031.031,0,0,0,.024.048c1.117.085,21.059,1.557,22.943-1.943" transform="translate(-209.4 -619.997)" fill="#dbdffd"/>
          <path id="Path_399" data-name="Path 399" d="M237.89,479.477a.047.047,0,0,1,.076-.037c1.15.9,15.288,12.341,8.375,27.229-7.2,15.513-30.748,13.02-34.35.277-3.408-12.059,6.581-14.691,7.662-14.938a.046.046,0,0,1,.051.065c-.462.938-4.431,9.37-.511,14.6,4.155,5.54,20.776,6.094,22.161-7.756a20.4,20.4,0,0,0-3.594-13.562.046.046,0,0,1-.007-.026Z" transform="translate(-172.977 -392.502)" fill="#dbdffd"/>
          <path id="Path_400" data-name="Path 400" d="M138.937,503.364a.052.052,0,0,0-.006-.063c-.686-.724-14.273-15.286-10.223-29.058,4.145-14.093,15.732-17.987,22.389-17.731a.052.052,0,0,0,.054-.048l.405-4.19a.053.053,0,0,0-.049-.058c-1.04-.073-16.861-.977-25.431,10.807-8.864,12.189-6.925,22.161-2.216,31.026A44.749,44.749,0,0,0,136,508.144a.053.053,0,0,0,.077-.016Z" transform="translate(-98.142 -370.188)" fill="#dbdffd"/>
        </g>
      </g>
      <g id="logo-2" data-name="logo" transform="translate(1773.195 72.901)">
        <g id="Group_51-2" data-name="Group 51" transform="translate(0 0)" clip-path="url(#clip-path)">
          <path id="Path_392-2" data-name="Path 392" d="M54.15,0c3.967.485,40.135,6.094,51.416,50.492a.062.062,0,0,1-.074.075L98.7,48.939a.061.061,0,0,1-.046-.048C98.428,47.683,92.489,18.5,54.119.116A.06.06,0,0,1,54.15,0" transform="translate(-44.277 0)" fill="#dbdffd"/>
          <path id="Path_393-2" data-name="Path 393" d="M3.658,0c-.006.018-.037.042-.049.056-.047.055-.093.111-.139.168Q3.361.362,3.256.5,3.115.694,2.981.89q-.166.243-.322.494-.184.3-.354.6-.195.346-.373.7-.2.4-.377.8-.2.446-.366.9-.185.495-.342,1-.168.543-.3,1.1Q.4,7.074.3,7.672.184,8.31.114,8.953q-.074.684-.1,1.371-.028.729,0,1.459.025.775.107,1.546.086.819.232,1.631.154.863.37,1.714.23.906.524,1.794.313.948.692,1.874.4.99.873,1.951.5,1.03,1.07,2.027.608,1.069,1.28,2.1.72,1.108,1.5,2.172.841,1.144,1.744,2.242.969,1.18,2,2.31,1.1,1.215,2.265,2.377,1.246,1.249,2.547,2.441,1.4,1.281,2.843,2.5,1.552,1.313,3.154,2.565c1.079.845,2.192,1.644,3.256,2.509.283.23.559.466.847.691q.311.244.626.481.376.284.757.561.443.322.891.637.511.358,1.028.707.58.391,1.167.773.651.422,1.309.833.723.451,1.454.889.8.477,1.6.939.871.5,1.751.985.947.522,1.9,1.026,1.024.54,2.058,1.062,1.1.557,2.216,1.094,1.183.571,2.377,1.12,1.264.582,2.54,1.141,1.347.591,2.705,1.158,1.432.6,2.874,1.169,1.517.6,3.044,1.175,1.6.6,3.218,1.177,1.692.6,3.394,1.174,1.781.6,3.573,1.166,1.872.593,3.754,1.153,1.964.585,3.938,1.135l.372.1a.055.055,0,0,0,.069-.038c.181-.662,1.047-7.636-36.583-22.109,0,0-42.457-18.08-33.694-45.744" transform="translate(0 0)" fill="#dbdffd"/>
          <path id="Path_394-2" data-name="Path 394" d="M173.1,172.145c-.053,1.051-.367,14.268,17.359,13.787a.087.087,0,0,0,.085-.1c-.174-1.346-2.474-16.49-17.373-13.768a.085.085,0,0,0-.071.078" transform="translate(-141.709 -140.601)" fill="#dbdffd"/>
          <path id="Path_395-2" data-name="Path 395" d="M283.407,435.724c-.018,1.1-.422,21.092-5.526,35.1a.038.038,0,0,0,.024.049l6.855,2.194a.037.037,0,0,0,.046-.019c.275-.574,4.478-9.7,6.355-35.4a.039.039,0,0,0-.029-.041l-7.677-1.919a.038.038,0,0,0-.048.036" transform="translate(-227.496 -356.691)" fill="#dbdffd"/>
          <path id="Path_396-2" data-name="Path 396" d="M145.849,695.44a92.787,92.787,0,0,1-24.122,36.583.042.042,0,0,0,.047.069c2.34-1.272,18.395-10.652,30.436-34.705a.043.043,0,0,0-.026-.06l-6.282-1.912a.042.042,0,0,0-.052.026" transform="translate(-99.644 -569.324)" fill="#dbdffd"/>
          <path id="Path_397-2" data-name="Path 397" d="M132.6,267.9a.059.059,0,0,1,.085-.081,39.578,39.578,0,0,0,4.126,3.2,89.988,89.988,0,0,0,9.329,5.576,160.692,160.692,0,0,0,15.695,7.133q4.91,1.947,9.909,3.66c6.251,2.153,12.575,3.836,18.023,7.731a32.586,32.586,0,0,1,9.387,10.351,33.928,33.928,0,0,1,4.116,12.613,38.95,38.95,0,0,1-.71,13.319,40.869,40.869,0,0,1-5.092,12.469,37.738,37.738,0,0,1-9.029,10.063,34.7,34.7,0,0,1-7.7,4.486.06.06,0,0,1-.059-.1,49.028,49.028,0,0,0,9.164-8.816c4.4-5.451,7.66-11.98,8.253-19.037a28.231,28.231,0,0,0-1.674-12.485c-1.658-4.289-4.472-7.181-7.875-10.131a107.4,107.4,0,0,0-13.413-10.03,106.021,106.021,0,0,0-16.927-8.094c-9.317-3.751-16.253-10.009-22.5-17.8q-1.588-1.981-3.1-4.021" transform="translate(-108.545 -219.249)" fill="#dbdffd"/>
          <path id="Path_398-2" data-name="Path 398" d="M278.747,760.342s-16.265-.276-20.194-3.027a.031.031,0,0,0-.045.011l-2.729,4.911a.031.031,0,0,0,.024.048c1.117.085,21.059,1.557,22.943-1.943" transform="translate(-209.4 -619.997)" fill="#dbdffd"/>
          <path id="Path_399-2" data-name="Path 399" d="M237.89,479.477a.047.047,0,0,1,.076-.037c1.15.9,15.288,12.341,8.375,27.229-7.2,15.513-30.748,13.02-34.35.277-3.408-12.059,6.581-14.691,7.662-14.938a.046.046,0,0,1,.051.065c-.462.938-4.431,9.37-.511,14.6,4.155,5.54,20.776,6.094,22.161-7.756a20.4,20.4,0,0,0-3.594-13.562.046.046,0,0,1-.007-.026Z" transform="translate(-172.977 -392.502)" fill="#dbdffd"/>
          <path id="Path_400-2" data-name="Path 400" d="M138.937,503.364a.052.052,0,0,0-.006-.063c-.686-.724-14.273-15.286-10.223-29.058,4.145-14.093,15.732-17.987,22.389-17.731a.052.052,0,0,0,.054-.048l.405-4.19a.053.053,0,0,0-.049-.058c-1.04-.073-16.861-.977-25.431,10.807-8.864,12.189-6.925,22.161-2.216,31.026A44.749,44.749,0,0,0,136,508.144a.053.053,0,0,0,.077-.016Z" transform="translate(-98.142 -370.188)" fill="#dbdffd"/>
        </g>
      </g>
    </g>
    <rect id="Rectangle_37" data-name="Rectangle 37" width="1920" height="343" transform="translate(0 10701)" fill="#dbdffd"/>
  </g>
</svg>
