<svg xmlns="http://www.w3.org/2000/svg" width="140.849" height="140.849" viewBox="0 0 140.849 140.849">
  <g id="guitar-icon" transform="translate(0 0)">
    <path id="Path_518" data-name="Path 518" d="M120.222,20.627a70.425,70.425,0,0,0-99.6,99.6,70.425,70.425,0,0,0,99.6-99.6Zm-49.8,114.611a64.813,64.813,0,1,1,64.813-64.813A64.887,64.887,0,0,1,70.425,135.238Z" fill="#7586ff"/>
    <path id="Path_519" data-name="Path 519" d="M100.738,154.047a53.37,53.37,0,0,1-53.309-53.309,2.806,2.806,0,1,0-5.611,0,58.988,58.988,0,0,0,58.921,58.921,2.806,2.806,0,0,0,0-5.611Zm48.427-86.883a58.843,58.843,0,0,0-26.92-21.3A2.806,2.806,0,0,0,120.2,51.09a53.019,53.019,0,0,1,33.852,49.648,2.806,2.806,0,1,0,5.611,0A58.577,58.577,0,0,0,149.164,67.164ZM107.51,42.2a59.768,59.768,0,0,0-6.773-.385,2.806,2.806,0,1,0,0,5.611,54.072,54.072,0,0,1,6.134.349,2.806,2.806,0,0,0,.639-5.575Z" transform="translate(-30.313 -30.313)" fill="#7586ff"/>
    <g id="svgexport-17_11_" data-name="svgexport-17 (11)" transform="translate(41.257 41.249)">
      <path id="Path_523" data-name="Path 523" d="M36.97,15.929l-8.192,8.185a5.9,5.9,0,0,1-1.663,4.109,5.753,5.753,0,0,1-4.032,1.666,5.7,5.7,0,1,1,0-11.393h.053L31.329,10.3a12.567,12.567,0,0,0-6.894-2.575,5.291,5.291,0,0,0-3.891,1.534,16.312,16.312,0,0,0-3.027,3.927,11.7,11.7,0,0,1-2.235,3.069A10.85,10.85,0,0,1,9.821,18.5a13.3,13.3,0,0,0-6.762,2.94c-6.4,6.371-1.534,13.914,3.667,19.115a22.979,22.979,0,0,0,9.831,6.422,9.226,9.226,0,0,0,9.284-2.782,13.943,13.943,0,0,0,2.991-6.867c1.216-5.381,2.653-6.162,4.785-7.358a17.729,17.729,0,0,0,4.394-3.278c2.342-2.339,1.926-6.5-1.041-10.76ZM17.415,37.9a.917.917,0,0,1-.625.26,1.019,1.019,0,0,1-.625-.26L9.378,31.09a.851.851,0,0,1,0-1.25.9.9,0,0,1,1.247,0l6.789,6.809a.854.854,0,0,1,0,1.25Z" transform="translate(0 11.062)" fill="#7586ff"/>
      <path id="Path_524" data-name="Path 524" d="M15.737,35.259a3.939,3.939,0,1,1-1.17-2.782,3.835,3.835,0,0,1,1.17,2.782Zm22.6-23.436L17.065,33.07a5.877,5.877,0,0,0-1.216-1.846,5.637,5.637,0,0,0-1.872-1.25L35.224,8.7Zm6.368-1.9-.6-.6L45.44,8l.6.6a.6.6,0,0,0,.844-.844l-.6-.6.766-.766V3.864L43.2.015H40.652L39.9.771l-.605-.6a.6.6,0,0,0-.844.841l.6.6-1.33,1.333-.591-.6a.6.6,0,1,0-.844.841l.6.6-.754.754V7.091l3.849,3.852H42.5l.766-.766.6.6a.6.6,0,0,0,.844-.844Z" transform="translate(11.273 0)" fill="#7586ff"/>
    </g>
  </g>
</svg>
