<svg xmlns="http://www.w3.org/2000/svg" xmlns:xlink="http://www.w3.org/1999/xlink" width="1836.754" height="829.511" viewBox="0 0 1836.754 829.511">
  <defs>
    <clipPath id="clip-path">
      <path id="Path_434" data-name="Path 434" d="M0-682.665H98.774v98.774H0Z" transform="translate(0 682.665)" fill="none" stroke="#ccdaff" stroke-width="1.333"/>
    </clipPath>
    <clipPath id="clip-path-2">
      <path id="Path_450" data-name="Path 450" d="M0-682.665H139.35v139.35H0Z" transform="translate(0 682.665)"/>
    </clipPath>
    <clipPath id="clip-path-3">
      <path id="Path_468" data-name="Path 468" d="M0-682.665H64.588v64.588H0Z" transform="translate(0 682.665)"/>
    </clipPath>
    <clipPath id="clip-path-4">
      <path id="Path_484" data-name="Path 484" d="M0-682.665H85.475v85.475H0Z" transform="translate(0 682.665)" stroke="#ccdaff" stroke-width="2"/>
    </clipPath>
  </defs>
  <g id="header_pattern" data-name="header pattern" transform="translate(-31.442 -204.338)">
    <g id="svgexport-10_6_" data-name="svgexport-10 (6)" transform="translate(821.613 706.611)">
      <g id="Group_53" data-name="Group 53" transform="translate(0 0.002)" clip-path="url(#clip-path)">
        <path id="Path_414" data-name="Path 414" d="M-205.984-298.593a25.971,25.971,0,0,1-8.823,1.534,26.022,26.022,0,0,1-26.023-26.023,25.976,25.976,0,0,1,9.818-20.363,25.919,25.919,0,0,1,16.205-5.66,25.891,25.891,0,0,1,14.129,4.167" transform="translate(262.993 394.104)" fill="none" stroke="#ccdaff" stroke-linecap="round" stroke-linejoin="round" stroke-miterlimit="10" stroke-width="3"/>
        <path id="Path_415" data-name="Path 415" d="M-21.8-77.949a7.01,7.01,0,0,1-3.688-6.175,7.011,7.011,0,0,1,7.011-7.011,7.011,7.011,0,0,1,7.011,7.011,7.01,7.01,0,0,1-3.759,6.213" transform="translate(95.146 152.465)" fill="none" stroke="#ccdaff" stroke-linecap="round" stroke-linejoin="round" stroke-miterlimit="10" stroke-width="3"/>
        <path id="Path_416" data-name="Path 416" d="M-142.228-.011a15.943,15.943,0,0,1,12.476,14.943A15.888,15.888,0,0,1-130.128,19a5.763,5.763,0,0,0,1.007,4.742,20.562,20.562,0,0,1,4.157,12.43A20.663,20.663,0,0,1-145.428,56.83a20.73,20.73,0,0,1-20.858-20.444,20.555,20.555,0,0,1,4.181-12.681,5.567,5.567,0,0,0,1.005-4.6,15.894,15.894,0,0,1-.411-3.6A15.894,15.894,0,0,1-149.024-.013" transform="translate(222.293 40.484)" fill="none" stroke="#ccdaff" stroke-linecap="round" stroke-linejoin="round" stroke-miterlimit="10" stroke-width="3"/>
        <path id="Path_417" data-name="Path 417" d="M-110.985-108.453a10.842,10.842,0,0,1-7.9,3.4,10.875,10.875,0,0,1-10.875-10.875A10.875,10.875,0,0,1-118.885-126.8a10.878,10.878,0,0,1,10.149,6.964" transform="translate(167.072 186.948)" fill="none" stroke="#ccdaff" stroke-linecap="round" stroke-linejoin="round" stroke-miterlimit="10" stroke-width="3"/>
        <path id="Path_418" data-name="Path 418" d="M0-77.343V-90.426H30.977v10.385" transform="translate(31.982 128.003)" fill="none" stroke="#ccdaff" stroke-linecap="round" stroke-linejoin="round" stroke-miterlimit="10" stroke-width="3"/>
        <path id="Path_419" data-name="Path 419" d="M-29.841,0l-5.048,8.659" transform="translate(58.647 88.386)" fill="none" stroke="#ccdaff" stroke-linecap="round" stroke-linejoin="round" stroke-miterlimit="10" stroke-width="3"/>
        <path id="Path_420" data-name="Path 420" d="M0,0V56.235" transform="translate(16.201 40.683)" fill="none" stroke="#ccdaff" stroke-linecap="round" stroke-linejoin="round" stroke-miterlimit="10" stroke-width="3"/>
        <path id="Path_421" data-name="Path 421" d="M0,0V8.9" transform="translate(16.201 25.03)" fill="none" stroke="#ccdaff" stroke-linecap="round" stroke-linejoin="round" stroke-miterlimit="10" stroke-width="3"/>
        <path id="Path_422" data-name="Path 422" d="M-216.531,0h-36.63" transform="translate(282.376 37.576)" fill="none" stroke="#ccdaff" stroke-linecap="round" stroke-linejoin="round" stroke-miterlimit="10" stroke-width="3"/>
        <path id="Path_423" data-name="Path 423" d="M-158.9-75.548l-24.671-6.84a3.014,3.014,0,0,1-2.1-3.709l.006-.022a3.013,3.013,0,0,1,3.709-2.1l24.671,6.84a3.014,3.014,0,0,1,2.1,3.709l-.006.022A3.013,3.013,0,0,1-158.9-75.548Z" transform="translate(187.227 103.795)" fill="none" stroke="#ccdaff" stroke-linecap="round" stroke-linejoin="round" stroke-miterlimit="10" stroke-width="3"/>
        <path id="Path_424" data-name="Path 424" d="M-40.177-265.944v-44.988h-6.8v44.988" transform="translate(120.242 328.15)" fill="none" stroke="#ccdaff" stroke-linecap="round" stroke-linejoin="round" stroke-miterlimit="10" stroke-width="3"/>
        <path id="Path_425" data-name="Path 425" d="M-59.69,0h-7.976a2.122,2.122,0,0,0-2.122,2.122v8.759l2.711,4.878h6.8l2.711-4.878V2.122A2.122,2.122,0,0,0-59.69,0Z" transform="translate(140.345 1.459)" fill="none" stroke="#ccdaff" stroke-linecap="round" stroke-linejoin="round" stroke-miterlimit="10" stroke-width="3"/>
        <path id="Path_426" data-name="Path 426" d="M0,0H12.673" transform="translate(70.23 84.882)" fill="none" stroke="#ccdaff" stroke-linecap="round" stroke-linejoin="round" stroke-miterlimit="10" stroke-width="3"/>
        <path id="Path_427" data-name="Path 427" d="M0-48.65v-8.23" transform="translate(41.738 94.456)" fill="none" stroke="#ccdaff" stroke-linecap="round" stroke-linejoin="round" stroke-miterlimit="10" stroke-width="3"/>
        <path id="Path_428" data-name="Path 428" d="M0-46.472v-7.861" transform="translate(52.973 91.91)" fill="none" stroke="#ccdaff" stroke-linecap="round" stroke-linejoin="round" stroke-miterlimit="10" stroke-width="3"/>
        <path id="Path_429" data-name="Path 429" d="M-40.177,0h-6.8" transform="translate(120.242 25.579)" fill="none" stroke="#ccdaff" stroke-linecap="round" stroke-linejoin="round" stroke-miterlimit="10" stroke-width="3"/>
        <path id="Path_430" data-name="Path 430" d="M-40.177,0h-6.8" transform="translate(120.242 32.931)" fill="none" stroke="#ccdaff" stroke-linecap="round" stroke-linejoin="round" stroke-miterlimit="10" stroke-width="3"/>
        <path id="Path_431" data-name="Path 431" d="M-40.177,0h-6.8" transform="translate(120.242 40.283)" fill="none" stroke="#ccdaff" stroke-linecap="round" stroke-linejoin="round" stroke-miterlimit="10" stroke-width="3"/>
        <path id="Path_432" data-name="Path 432" d="M-40.177,0h-6.8" transform="translate(120.242 47.633)" fill="none" stroke="#ccdaff" stroke-linecap="round" stroke-linejoin="round" stroke-miterlimit="10" stroke-width="3"/>
        <path id="Path_433" data-name="Path 433" d="M-40.177,0h-6.8" transform="translate(120.242 54.985)" fill="none" stroke="#ccdaff" stroke-linecap="round" stroke-linejoin="round" stroke-miterlimit="10" stroke-width="3"/>
      </g>
    </g>
    <g id="svgexport-10_7_" data-name="svgexport-10 (7)" transform="translate(310.263 755.998)">
      <g id="Group_54" data-name="Group 54" transform="translate(0 0.002)" clip-path="url(#clip-path-2)">
        <path id="Path_435" data-name="Path 435" d="M-139.189-37.141h-30.936a4.763,4.763,0,0,1-4.763-4.763h0a4.763,4.763,0,0,1,4.763-4.763H-44.385A4.763,4.763,0,0,1-39.622-41.9h0a4.763,4.763,0,0,1-4.763,4.763h-85.279" transform="translate(176.93 135.626)" fill="none" stroke="#ccdaff" stroke-linecap="round" stroke-linejoin="round" stroke-miterlimit="10" stroke-width="2"/>
        <path id="Path_436" data-name="Path 436" d="M-58.364-31.835V-40H-70.611a2.722,2.722,0,0,0-2.722,2.722v5.443" transform="translate(90.616 120.794)" fill="none" stroke="#ccdaff" stroke-linecap="round" stroke-linejoin="round" stroke-miterlimit="10" stroke-width="2"/>
        <path id="Path_437" data-name="Path 437" d="M-58.364-31.835V-40H-73.333v8.165" transform="translate(105.585 120.794)" fill="none" stroke="#ccdaff" stroke-linecap="round" stroke-linejoin="round" stroke-miterlimit="10" stroke-width="2"/>
        <path id="Path_438" data-name="Path 438" d="M-58.364-31.835V-40H-73.333v8.165" transform="translate(120.554 120.794)" fill="none" stroke="#ccdaff" stroke-linecap="round" stroke-linejoin="round" stroke-miterlimit="10" stroke-width="2"/>
        <path id="Path_439" data-name="Path 439" d="M-58.364-31.835V-40H-73.333v8.165" transform="translate(135.523 120.794)" fill="none" stroke="#ccdaff" stroke-linecap="round" stroke-linejoin="round" stroke-miterlimit="10" stroke-width="2"/>
        <path id="Path_440" data-name="Path 440" d="M-58.364-31.835V-40H-73.333v8.165" transform="translate(150.493 120.794)" fill="none" stroke="#ccdaff" stroke-linecap="round" stroke-linejoin="round" stroke-miterlimit="10" stroke-width="2"/>
        <path id="Path_441" data-name="Path 441" d="M-58.364-31.835V-40H-73.333v8.165" transform="translate(165.462 120.794)" fill="none" stroke="#ccdaff" stroke-linecap="round" stroke-linejoin="round" stroke-miterlimit="10" stroke-width="2"/>
        <path id="Path_442" data-name="Path 442" d="M-58.364-31.835v-5.443A2.722,2.722,0,0,0-61.086-40H-73.333v8.165" transform="translate(180.431 120.794)" fill="none" stroke="#ccdaff" stroke-linecap="round" stroke-linejoin="round" stroke-miterlimit="10" stroke-width="2"/>
        <path id="Path_443" data-name="Path 443" d="M-495.563-21.224v-1.361a4.083,4.083,0,0,0-4.083-4.083h-123.02V-3.534" transform="translate(628.925 92.493)" fill="none" stroke="#ccdaff" stroke-linecap="round" stroke-linejoin="round" stroke-miterlimit="10" stroke-width="2"/>
        <path id="Path_444" data-name="Path 444" d="M0-31.834V-40" transform="translate(133.362 120.793)" fill="none" stroke="#ccdaff" stroke-linecap="round" stroke-linejoin="round" stroke-miterlimit="10" stroke-width="2"/>
        <path id="Path_445" data-name="Path 445" d="M-419.674-1.407-523.167,42.526a6.8,6.8,0,0,0-4.145,6.263v5.158L-413.5,5.788a1.361,1.361,0,0,0,.766-1.666l-.874-2.743A4.517,4.517,0,0,0-419.674-1.407Z" transform="translate(533.572 11.877)" fill="none" stroke="#ccdaff" stroke-linecap="round" stroke-linejoin="round" stroke-miterlimit="10" stroke-width="2"/>
        <path id="Path_446" data-name="Path 446" d="M-45.63,0l-2.446,27.637a3.419,3.419,0,0,1-3.406,3.118h0a3.419,3.419,0,0,1-3.406-3.118L-57.333,0" transform="translate(76.249 98.485)" fill="none" stroke="#ccdaff" stroke-linecap="round" stroke-linejoin="round" stroke-miterlimit="10" stroke-width="2"/>
        <path id="Path_447" data-name="Path 447" d="M-45.63,0l-2.446,27.637a3.419,3.419,0,0,1-3.406,3.118,3.419,3.419,0,0,1-3.406-3.118L-57.333,0" transform="translate(166.064 98.485)" fill="none" stroke="#ccdaff" stroke-linecap="round" stroke-linejoin="round" stroke-miterlimit="10" stroke-width="2"/>
        <path id="Path_448" data-name="Path 448" d="M-87.112-161.9l-22.342-41.525" transform="translate(213.851 227.729)" fill="none" stroke="#ccdaff" stroke-linecap="round" stroke-linejoin="round" stroke-miterlimit="10" stroke-width="2"/>
        <path id="Path_449" data-name="Path 449" d="M-175.092-31.835l-2.1-6.3A2.721,2.721,0,0,0-179.775-40h-35.541a2.721,2.721,0,0,0-2.582,1.861l-2.1,6.3" transform="translate(267.22 97.66)" fill="none" stroke="#ccdaff" stroke-linecap="round" stroke-linejoin="round" stroke-miterlimit="10" stroke-width="2"/>
      </g>
    </g>
    <path id="Path_451" data-name="Path 451" d="M110.014,46.057a30.079,30.079,0,0,0,4.034-13.243,18.489,18.489,0,0,0-1.95-9.187c-2.29-4.691-6.223-7.326-10.023-9.872-2.836-1.9-5.516-3.694-7.41-6.257l-.34-.457c-1.12-1.5-2.384-3.209-2.585-4.641A2.817,2.817,0,0,0,88.788,0,2.778,2.778,0,0,0,86.2,2.779v49.64a16.116,16.116,0,0,0-8.357-2.284c-7.677,0-13.928,5-13.928,11.143S70.163,72.42,77.84,72.42s13.928-5,13.928-11.143V28.808A20.053,20.053,0,0,1,104.683,43.99a15.71,15.71,0,0,1-1.075,1.521,2.783,2.783,0,0,0,4.178,3.677,20.711,20.711,0,0,0,2.045-2.875A1.755,1.755,0,0,0,110.014,46.057Z" transform="matrix(0.848, -0.53, 0.53, 0.848, 564.423, 868.662)" fill="#ccdaff"/>
    <path id="Path_452" data-name="Path 452" d="M110.014,46.057a30.079,30.079,0,0,0,4.034-13.243,18.489,18.489,0,0,0-1.95-9.187c-2.29-4.691-6.223-7.326-10.023-9.872-2.836-1.9-5.516-3.694-7.41-6.257l-.34-.457c-1.12-1.5-2.384-3.209-2.585-4.641A2.817,2.817,0,0,0,88.788,0,2.778,2.778,0,0,0,86.2,2.779v49.64a16.116,16.116,0,0,0-8.357-2.284c-7.677,0-13.928,5-13.928,11.143S70.163,72.42,77.84,72.42s13.928-5,13.928-11.143V28.808A20.053,20.053,0,0,1,104.683,43.99a15.71,15.71,0,0,1-1.075,1.521,2.783,2.783,0,0,0,4.178,3.677,20.711,20.711,0,0,0,2.045-2.875A1.755,1.755,0,0,0,110.014,46.057Z" transform="matrix(0.998, 0.07, -0.07, 0.998, 873.748, 199.88)" fill="#ccdaff"/>
    <path id="Path_453" data-name="Path 453" d="M110.014,46.057a30.079,30.079,0,0,0,4.034-13.243,18.489,18.489,0,0,0-1.95-9.187c-2.29-4.691-6.223-7.326-10.023-9.872-2.836-1.9-5.516-3.694-7.41-6.257l-.34-.457c-1.12-1.5-2.384-3.209-2.585-4.641A2.817,2.817,0,0,0,88.788,0,2.778,2.778,0,0,0,86.2,2.779v49.64a16.116,16.116,0,0,0-8.357-2.284c-7.677,0-13.928,5-13.928,11.143S70.163,72.42,77.84,72.42s13.928-5,13.928-11.143V28.808A20.053,20.053,0,0,1,104.683,43.99a15.71,15.71,0,0,1-1.075,1.521,2.783,2.783,0,0,0,4.178,3.677,20.711,20.711,0,0,0,2.045-2.875A1.755,1.755,0,0,0,110.014,46.057Z" transform="matrix(0.998, 0.07, -0.07, 0.998, 1324.748, 933.299)" fill="#ccdaff"/>
    <path id="Path_455" data-name="Path 455" d="M110.014,46.057a30.079,30.079,0,0,0,4.034-13.243,18.489,18.489,0,0,0-1.95-9.187c-2.29-4.691-6.223-7.326-10.023-9.872-2.836-1.9-5.516-3.694-7.41-6.257l-.34-.457c-1.12-1.5-2.384-3.209-2.585-4.641A2.817,2.817,0,0,0,88.788,0,2.778,2.778,0,0,0,86.2,2.779v49.64a16.116,16.116,0,0,0-8.357-2.284c-7.677,0-13.928,5-13.928,11.143S70.163,72.42,77.84,72.42s13.928-5,13.928-11.143V28.808A20.053,20.053,0,0,1,104.683,43.99a15.71,15.71,0,0,1-1.075,1.521,2.783,2.783,0,0,0,4.178,3.677,20.711,20.711,0,0,0,2.045-2.875A1.755,1.755,0,0,0,110.014,46.057Z" transform="matrix(0.998, 0.07, -0.07, 0.998, 1748.748, 254.505)" fill="#ccdaff"/>
    <path id="Path_456" data-name="Path 456" d="M91.689,27.75a18.123,18.123,0,0,0,2.43-7.979,11.14,11.14,0,0,0-1.175-5.535c-1.38-2.826-3.749-4.414-6.039-5.948a17.073,17.073,0,0,1-4.464-3.77l-.2-.275a7.431,7.431,0,0,1-1.558-2.8A1.7,1.7,0,0,0,78.9,0a1.674,1.674,0,0,0-1.561,1.672V31.583A9.71,9.71,0,0,0,72.3,30.207c-4.626,0-8.392,3.011-8.392,6.714s3.766,6.714,8.392,6.714S80.7,40.623,80.7,36.92V17.357A12.082,12.082,0,0,1,88.477,26.5a9.465,9.465,0,0,1-.648.916,1.677,1.677,0,0,0,2.518,2.215A12.479,12.479,0,0,0,91.578,27.9,1.058,1.058,0,0,0,91.689,27.75Z" transform="matrix(0.998, 0.07, -0.07, 0.998, 1774.287, 713.222)" fill="#ccdaff"/>
    <path id="Path_454" data-name="Path 454" d="M110.014,46.057a30.079,30.079,0,0,0,4.034-13.243,18.489,18.489,0,0,0-1.95-9.187c-2.29-4.691-6.223-7.326-10.023-9.872-2.836-1.9-5.516-3.694-7.41-6.257l-.34-.457c-1.12-1.5-2.384-3.209-2.585-4.641A2.817,2.817,0,0,0,88.788,0,2.778,2.778,0,0,0,86.2,2.779v49.64a16.116,16.116,0,0,0-8.357-2.284c-7.677,0-13.928,5-13.928,11.143S70.163,72.42,77.84,72.42s13.928-5,13.928-11.143V28.808A20.053,20.053,0,0,1,104.683,43.99a15.71,15.71,0,0,1-1.075,1.521,2.783,2.783,0,0,0,4.178,3.677,20.711,20.711,0,0,0,2.045-2.875A1.755,1.755,0,0,0,110.014,46.057Z" transform="translate(-31.296 860.808) rotate(-11)" fill="#ccdaff"/>
    <g id="svgexport-6_3_" data-name="svgexport-6 (3)" transform="translate(938.133 449.619) rotate(25)">
      <path id="Path_407" data-name="Path 407" d="M18.871,9.6a27.56,27.56,0,0,1-6.72-6.66L10.593.6a1.352,1.352,0,0,0-2.478.75v21.22a5.348,5.348,0,0,0-2.7-.752,5.41,5.41,0,1,0,5.41,5.41V5.8a33.337,33.337,0,0,0,6.452,5.989,4.058,4.058,0,0,1-2.395,7.333,1.352,1.352,0,1,0,0,2.7A6.763,6.763,0,0,0,18.871,9.6Zm25.57,1.452-19.115,5.41a1.354,1.354,0,0,0-.981,1.3V36.1a5.348,5.348,0,0,0-2.7-.752,5.41,5.41,0,1,0,5.41,5.41V24.2l16.41-4.637V30.69a5.348,5.348,0,0,0-2.7-.752,5.41,5.41,0,1,0,5.41,5.41V12.355a1.354,1.354,0,0,0-1.724-1.3Z" transform="translate(0 0)" fill="#ccdaff"/>
    </g>
    <g id="svgexport-6_3_2" data-name="svgexport-6 (3)" transform="matrix(0.946, -0.326, 0.326, 0.946, 264.659, 282.523)">
      <path id="Path_407-2" data-name="Path 407" d="M18.871,9.6a27.56,27.56,0,0,1-6.72-6.66L10.593.6a1.352,1.352,0,0,0-2.478.75v21.22a5.348,5.348,0,0,0-2.7-.752,5.41,5.41,0,1,0,5.41,5.41V5.8a33.337,33.337,0,0,0,6.452,5.989,4.058,4.058,0,0,1-2.395,7.333,1.352,1.352,0,1,0,0,2.7A6.763,6.763,0,0,0,18.871,9.6Zm25.57,1.452-19.115,5.41a1.354,1.354,0,0,0-.981,1.3V36.1a5.348,5.348,0,0,0-2.7-.752,5.41,5.41,0,1,0,5.41,5.41V24.2l16.41-4.637V30.69a5.348,5.348,0,0,0-2.7-.752,5.41,5.41,0,1,0,5.41,5.41V12.355a1.354,1.354,0,0,0-1.724-1.3Z" transform="translate(0 0)" fill="#ccdaff"/>
    </g>
    <g id="svgexport-6_3_3" data-name="svgexport-6 (3)" transform="translate(529.161 972.498) rotate(25)">
      <path id="Path_407-3" data-name="Path 407" d="M18.871,9.6a27.56,27.56,0,0,1-6.72-6.66L10.593.6a1.352,1.352,0,0,0-2.478.75v21.22a5.348,5.348,0,0,0-2.7-.752,5.41,5.41,0,1,0,5.41,5.41V5.8a33.337,33.337,0,0,0,6.452,5.989,4.058,4.058,0,0,1-2.395,7.333,1.352,1.352,0,1,0,0,2.7A6.763,6.763,0,0,0,18.871,9.6Zm25.57,1.452-19.115,5.41a1.354,1.354,0,0,0-.981,1.3V36.1a5.348,5.348,0,0,0-2.7-.752,5.41,5.41,0,1,0,5.41,5.41V24.2l16.41-4.637V30.69a5.348,5.348,0,0,0-2.7-.752,5.41,5.41,0,1,0,5.41,5.41V12.355a1.354,1.354,0,0,0-1.724-1.3Z" transform="translate(0 0)" fill="#ccdaff"/>
    </g>
    <g id="svgexport-10_8_" data-name="svgexport-10 (8)" transform="translate(601.675 666.41)">
      <g id="Group_55" data-name="Group 55" transform="translate(0 0.002)" clip-path="url(#clip-path-3)">
        <path id="Path_457" data-name="Path 457" d="M-65.442-144.921c7.461-3.871,18.541-2.414,35.312-15.144l4.348,4.348C-40.423-135.724-36.142-124.25-43.5-116.9c-7.035,7.03-17.079,1.543-22.049-3.424-4.7-4.7-10.237-14.6-3.83-21.614" transform="translate(73.226 177.197)" fill="none" stroke="#ccdaff" stroke-linecap="round" stroke-linejoin="round" stroke-miterlimit="10" stroke-width="2"/>
        <path id="Path_458" data-name="Path 458" d="M0-84.785l8.865-8.86L13.215-89.3,4.348-80.437Z" transform="translate(43.096 101.918)" fill="none" stroke="#ccdaff" stroke-linecap="round" stroke-linejoin="round" stroke-miterlimit="10" stroke-width="2"/>
        <path id="Path_459" data-name="Path 459" d="M0,0,5.782,5.778" transform="translate(52.935 16.227)" fill="none" stroke="#ccdaff" stroke-linecap="round" stroke-linejoin="round" stroke-miterlimit="10" stroke-width="2"/>
        <path id="Path_460" data-name="Path 460" d="M0,0,5.782,5.778" transform="translate(49.536 19.624)" fill="none" stroke="#ccdaff" stroke-linecap="round" stroke-linejoin="round" stroke-miterlimit="10" stroke-width="2"/>
        <path id="Path_461" data-name="Path 461" d="M0,0,5.782,5.778" transform="translate(44.326 4.108)" fill="none" stroke="#ccdaff" stroke-linecap="round" stroke-linejoin="round" stroke-miterlimit="10" stroke-width="2"/>
        <path id="Path_462" data-name="Path 462" d="M0,0,5.782,5.778" transform="translate(40.927 7.505)" fill="none" stroke="#ccdaff" stroke-linecap="round" stroke-linejoin="round" stroke-miterlimit="10" stroke-width="2"/>
        <path id="Path_463" data-name="Path 463" d="M-65.57-107.882l-2.5.4-4.349-4.346.4-2.5a2.628,2.628,0,0,1,.738-1.445l2.611-2.61a2.632,2.632,0,0,1,3.721,0l3.44,3.438a2.628,2.628,0,0,1,0,3.719" transform="translate(124.384 120.102)" fill="none" stroke="#ccdaff" stroke-linecap="round" stroke-linejoin="round" stroke-miterlimit="10" stroke-width="2"/>
        <path id="Path_464" data-name="Path 464" d="M-71.853-101.016l-7.508-7.5,3.054-3.052,7.508,7.5Z" transform="translate(87.717 157.287)" fill="none" stroke="#ccdaff" stroke-linecap="round" stroke-linejoin="round" stroke-miterlimit="10" stroke-width="2"/>
        <path id="Path_465" data-name="Path 465" d="M-288.228,0l-30.119,30.119" transform="translate(331.324 17.132)" fill="none" stroke="#ccdaff" stroke-linecap="round" stroke-linejoin="round" stroke-miterlimit="10" stroke-width="2"/>
        <path id="Path_466" data-name="Path 466" d="M-288.228,0l-30.119,30.119" transform="translate(335.695 21.503)" fill="none" stroke="#ccdaff" stroke-linecap="round" stroke-linejoin="round" stroke-miterlimit="10" stroke-width="2"/>
        <path id="Path_467" data-name="Path 467" d="M-288.228,0l-30.119,30.119" transform="translate(333.51 19.318)" fill="none" stroke="#ccdaff" stroke-linecap="round" stroke-linejoin="round" stroke-miterlimit="10" stroke-width="2"/>
      </g>
    </g>
    <g id="svgexport-17_5_" data-name="svgexport-17 (5)" transform="translate(707.083 291.967)">
      <path id="Path_469" data-name="Path 469" d="M0,0,16.748,20.2h7.49l-5.386-4.04L7.322.463" transform="translate(17.411 56.372)" fill="none" stroke="#ccdaff" stroke-linecap="round" stroke-linejoin="round" stroke-miterlimit="10" stroke-width="2"/>
      <g id="Group_56" data-name="Group 56" transform="translate(0 0.002)" clip-path="url(#clip-path-4)">
        <path id="Path_470" data-name="Path 470" d="M-150.529,0h-8.079l-13.466,4.282A7.119,7.119,0,0,1-170.1,5.3c1.2,1.005,1.712,3.007,3.073,3.794s3.338.232,4.822.772c1.457.531,2.627,2.235,4.189,2.508,1.52.266,3.2-.931,4.8-.931s3.275,1.2,4.794.932c1.562-.274,2.732-1.978,4.189-2.508,1.483-.54,3.473.009,4.821-.771,1.055-.61,1.6-1.946,2.355-2.985l-8.076-3.666" transform="translate(173.326 44.251)" fill="none" stroke="#ccdaff" stroke-linecap="round" stroke-linejoin="round" stroke-miterlimit="10" stroke-width="2"/>
        <path id="Path_471" data-name="Path 471" d="M-24.92,0l-3.316,4.642a1.347,1.347,0,0,0-.109,1.385l2.331,4.661h4.04l-2.188-4.881L-19.576.379" transform="translate(44.772 65.881)" fill="none" stroke="#ccdaff" stroke-linecap="round" stroke-linejoin="round" stroke-miterlimit="10" stroke-width="2"/>
        <path id="Path_472" data-name="Path 472" d="M0-56.448l1.347-8.079" transform="translate(14.718 100.7)" fill="none" stroke="#ccdaff" stroke-linecap="round" stroke-linejoin="round" stroke-miterlimit="10" stroke-width="2"/>
        <path id="Path_473" data-name="Path 473" d="M0-56.448l4.04-8.079" transform="translate(22.797 100.7)" fill="none" stroke="#ccdaff" stroke-linecap="round" stroke-linejoin="round" stroke-miterlimit="10" stroke-width="2"/>
        <path id="Path_474" data-name="Path 474" d="M-56.448-28.224a4.04,4.04,0,0,1-4.04,4.04,4.04,4.04,0,0,1-4.04-4.04,4.04,4.04,0,0,1,4.04-4.04A4.04,4.04,0,0,1-56.448-28.224Z" transform="translate(80.592 52.277)" fill="none" stroke="#ccdaff" stroke-linecap="round" stroke-linejoin="round" stroke-miterlimit="10" stroke-width="2"/>
        <path id="Path_475" data-name="Path 475" d="M-37.632-18.816a2.693,2.693,0,0,1-2.693,2.693,2.693,2.693,0,0,1-2.693-2.693,2.693,2.693,0,0,1,2.693-2.693A2.693,2.693,0,0,1-37.632-18.816Z" transform="translate(55.043 38.83)" fill="none" stroke="#ccdaff" stroke-linecap="round" stroke-linejoin="round" stroke-miterlimit="10" stroke-width="2"/>
        <path id="Path_476" data-name="Path 476" d="M0,0V4.04" transform="translate(36.262 32.133)" fill="none" stroke="#ccdaff" stroke-linecap="round" stroke-linejoin="round" stroke-miterlimit="10" stroke-width="2"/>
        <path id="Path_477" data-name="Path 477" d="M-282.241,0l-10.772,4.617h-27.6a2.02,2.02,0,0,0-2.02,2.02,2.02,2.02,0,0,0,2.02,2.02h28.951l8.079-2.693,6.733,10.772h9.426" transform="translate(337.356 27.516)" fill="none" stroke="#ccdaff" stroke-linecap="round" stroke-linejoin="round" stroke-miterlimit="10" stroke-width="2"/>
        <path id="Path_478" data-name="Path 478" d="M-35.3-284.585l-4.3,6.019a4.04,4.04,0,0,0-.259,4.283l6.867,12.59-4.04,4.04H-27.6v-5.386l-6.733-13.466,7.872-7.872a4.039,4.039,0,0,0,1.093-3.7l-3.579-16.7,7.9-4.513a6.734,6.734,0,0,0,2.433-2.382l6.375-10.624a1.99,1.99,0,0,0-.3-2.431,1.99,1.99,0,0,0-2.978.185l-8.042,10.339-12.119,5.194" transform="translate(96.182 334.223)" fill="none" stroke="#ccdaff" stroke-linecap="round" stroke-linejoin="round" stroke-miterlimit="10" stroke-width="2"/>
        <path id="Path_479" data-name="Path 479" d="M0-9.408l5.386-1.347" transform="translate(63.194 81.937)" fill="none" stroke="#ccdaff" stroke-linecap="round" stroke-linejoin="round" stroke-miterlimit="10" stroke-width="2"/>
        <path id="Path_480" data-name="Path 480" d="M-169.344,0-182.81,10.772l-10.772,17.505" transform="translate(229.845 44.251)" fill="none" stroke="#ccdaff" stroke-linecap="round" stroke-linejoin="round" stroke-miterlimit="10" stroke-width="2"/>
        <path id="Path_481" data-name="Path 481" d="M0-103.489,10.772-118.3" transform="translate(40.302 178.711)" fill="none" stroke="#ccdaff" stroke-linecap="round" stroke-linejoin="round" stroke-miterlimit="10" stroke-width="2"/>
        <path id="Path_482" data-name="Path 482" d="M-56.448-28.224a4.04,4.04,0,0,1-4.04,4.04,4.04,4.04,0,0,1-4.04-4.04,4.04,4.04,0,0,1,4.04-4.04A4.04,4.04,0,0,1-56.448-28.224Z" transform="translate(114.256 48.238)" fill="none" stroke="#ccdaff" stroke-linecap="round" stroke-linejoin="round" stroke-miterlimit="10" stroke-width="2"/>
        <path id="Path_483" data-name="Path 483" d="M0,0,2.917,2.244" transform="translate(78.389 13.36)" fill="none" stroke="#ccdaff" stroke-linecap="round" stroke-linejoin="round" stroke-miterlimit="10" stroke-width="2"/>
      </g>
    </g>
  </g>
</svg>
