<svg id="insta" xmlns="http://www.w3.org/2000/svg" width="40.261" height="40.261" viewBox="0 0 40.261 40.261">
  <circle id="Ellipse_31" data-name="Ellipse 31" cx="18" cy="18" r="18" transform="translate(2.027 2.132)" fill="#627bbc"/>
  <path id="circle-insta" d="M20.131,0A20.131,20.131,0,1,1,0,20.131,20.14,20.14,0,0,1,20.131,0Zm0,7.549c-3.417,0-3.845.014-5.187.076a9.236,9.236,0,0,0-3.054.585,6.434,6.434,0,0,0-3.68,3.68,9.237,9.237,0,0,0-.585,3.054c-.061,1.342-.076,1.77-.076,5.187s.014,3.845.076,5.187a9.237,9.237,0,0,0,.585,3.054,6.434,6.434,0,0,0,3.68,3.68,9.238,9.238,0,0,0,3.054.585c1.342.061,1.77.076,5.187.076s3.845-.014,5.187-.076a9.237,9.237,0,0,0,3.054-.585,6.434,6.434,0,0,0,3.68-3.68,9.237,9.237,0,0,0,.585-3.054c.061-1.342.076-1.77.076-5.187s-.014-3.845-.076-5.187a9.237,9.237,0,0,0-.585-3.054,6.434,6.434,0,0,0-3.68-3.68,9.235,9.235,0,0,0-3.054-.585C23.976,7.563,23.547,7.549,20.131,7.549Zm0,2.267c3.359,0,3.757.013,5.084.073a6.962,6.962,0,0,1,2.336.433,4.167,4.167,0,0,1,2.388,2.388,6.96,6.96,0,0,1,.433,2.336c.061,1.327.073,1.725.073,5.084s-.013,3.757-.073,5.084a6.96,6.96,0,0,1-.433,2.336,4.167,4.167,0,0,1-2.388,2.388,6.96,6.96,0,0,1-2.336.433c-1.326.061-1.724.073-5.084.073s-3.757-.013-5.084-.073a6.96,6.96,0,0,1-2.336-.433,4.166,4.166,0,0,1-2.388-2.388,6.961,6.961,0,0,1-.433-2.336c-.061-1.327-.073-1.725-.073-5.084s.013-3.757.073-5.084a6.961,6.961,0,0,1,.433-2.336,4.166,4.166,0,0,1,2.388-2.388,6.962,6.962,0,0,1,2.336-.433c1.327-.061,1.725-.073,5.084-.073Zm0,3.854a6.461,6.461,0,1,0,6.461,6.461,6.461,6.461,0,0,0-6.461-6.461Zm0,10.655a4.194,4.194,0,1,1,4.194-4.194A4.194,4.194,0,0,1,20.131,24.324Zm8.226-10.91a1.51,1.51,0,1,1-1.51-1.51A1.51,1.51,0,0,1,28.356,13.414Z" fill="#aed2ff" fill-rule="evenodd"/>
</svg>
