<svg xmlns="http://www.w3.org/2000/svg" width="32.495" height="39.923" viewBox="0 0 32.495 39.923">
  <g id="location-icon" transform="translate(-3.25 -1.25)">
    <path id="Path_392" data-name="Path 392" d="M17.784,1.25A12.606,12.606,0,0,0,5.25,13.916c0,2.369,1.044,5.309,2.562,8.241a80.65,80.65,0,0,0,8.915,12.959,1.393,1.393,0,0,0,2.113,0,80.65,80.65,0,0,0,8.915-12.959c1.519-2.932,2.562-5.871,2.562-8.241A12.606,12.606,0,0,0,17.784,1.25Zm0,7.428a5.108,5.108,0,0,0,0,10.213,5.108,5.108,0,0,0,0-10.213Z" transform="translate(1.714 0)" fill="#7586ff"/>
    <path id="Path_393" data-name="Path 393" d="M28.381,18.636a11.514,11.514,0,0,1,3.613,1.671c.557.423.966.837.966,1.343a1.312,1.312,0,0,1-.407.836,5.821,5.821,0,0,1-1.7,1.214c-2.559,1.309-6.7,2.128-11.353,2.128S10.7,25.009,8.145,23.7a5.821,5.821,0,0,1-1.7-1.214,1.312,1.312,0,0,1-.407-.836c0-.505.409-.919.966-1.343a11.514,11.514,0,0,1,3.613-1.671,1.393,1.393,0,0,0-.8-2.668,12.769,12.769,0,0,0-5.158,2.691,4.168,4.168,0,0,0-1.4,2.991,4.664,4.664,0,0,0,2.236,3.688c2.629,1.9,7.91,3.276,14.012,3.276S30.88,27.239,33.51,25.337a4.664,4.664,0,0,0,2.236-3.688,4.168,4.168,0,0,0-1.4-2.991,12.769,12.769,0,0,0-5.158-2.691,1.393,1.393,0,0,0-.8,2.668Z" transform="translate(0 12.56)" fill="#7586ff"/>
    <circle id="Ellipse_32" data-name="Ellipse 32" cx="5" cy="5" r="5" transform="translate(14.748 8.461)" fill="#e9f6ff"/>
  </g>
</svg>
