<svg xmlns="http://www.w3.org/2000/svg" width="55.095" height="75.743" viewBox="0 0 55.095 75.743">
  <path id="Path_453" data-name="Path 453" d="M110.014,46.057a30.079,30.079,0,0,0,4.034-13.243,18.489,18.489,0,0,0-1.95-9.187c-2.29-4.691-6.223-7.326-10.023-9.872-2.836-1.9-5.516-3.694-7.41-6.257l-.34-.457c-1.12-1.5-2.384-3.209-2.585-4.641A2.817,2.817,0,0,0,88.788,0,2.778,2.778,0,0,0,86.2,2.779v49.64a16.116,16.116,0,0,0-8.357-2.284c-7.677,0-13.928,5-13.928,11.143S70.163,72.42,77.84,72.42s13.928-5,13.928-11.143V28.808A20.053,20.053,0,0,1,104.683,43.99a15.71,15.71,0,0,1-1.075,1.521,2.783,2.783,0,0,0,4.178,3.677,20.711,20.711,0,0,0,2.045-2.875A1.755,1.755,0,0,0,110.014,46.057Z" transform="matrix(0.998, 0.07, -0.07, 0.998, -58.705, -4.458)" fill="#ccdaff"/>
</svg>
