<svg xmlns="http://www.w3.org/2000/svg" width="28.924" height="39.764" viewBox="0 0 28.924 39.764">
  <path id="Path_455" data-name="Path 455" d="M88.115,24.179a15.791,15.791,0,0,0,2.118-6.952A9.706,9.706,0,0,0,89.209,12.4c-1.2-2.463-3.267-3.846-5.262-5.183a14.876,14.876,0,0,1-3.89-3.285l-.178-.24A6.474,6.474,0,0,1,78.521,1.26,1.479,1.479,0,0,0,76.971,0a1.458,1.458,0,0,0-1.36,1.457v26.06a8.461,8.461,0,0,0-4.387-1.2c-4.03,0-7.312,2.624-7.312,5.85s3.282,5.85,7.312,5.85,7.312-2.624,7.312-5.85V15.124a10.527,10.527,0,0,1,6.78,7.97,8.247,8.247,0,0,1-.564.8,1.461,1.461,0,0,0,2.194,1.93,10.873,10.873,0,0,0,1.073-1.509A.921.921,0,0,0,88.115,24.179Z" transform="matrix(0.998, 0.07, -0.07, 0.998, -61.104, -4.458)" fill="#ccdaff"/>
</svg>
