<svg xmlns="http://www.w3.org/2000/svg" width="61.35" height="61.349" viewBox="0 0 61.35 61.349">
  <g id="svgexport-6_3_" data-name="svgexport-6 (3)" transform="translate(-183.489 -79.002) rotate(25)">
    <path id="Path_407" data-name="Path 407" d="M18.871,9.6a27.56,27.56,0,0,1-6.72-6.66L10.593.6a1.352,1.352,0,0,0-2.478.75v21.22a5.348,5.348,0,0,0-2.7-.752,5.41,5.41,0,1,0,5.41,5.41V5.8a33.337,33.337,0,0,0,6.452,5.989,4.058,4.058,0,0,1-2.395,7.333,1.352,1.352,0,1,0,0,2.7A6.763,6.763,0,0,0,18.871,9.6Zm25.57,1.452-19.115,5.41a1.354,1.354,0,0,0-.981,1.3V36.1a5.348,5.348,0,0,0-2.7-.752,5.41,5.41,0,1,0,5.41,5.41V24.2l16.41-4.637V30.69a5.348,5.348,0,0,0-2.7-.752,5.41,5.41,0,1,0,5.41,5.41V12.355a1.354,1.354,0,0,0-1.724-1.3Z" transform="translate(217.367 -14.193)" fill="#ccdaff"/>
  </g>
</svg>
