<svg xmlns="http://www.w3.org/2000/svg" xmlns:xlink="http://www.w3.org/1999/xlink" width="64.588" height="64.588" viewBox="0 0 64.588 64.588">
  <defs>
    <clipPath id="clip-path">
      <path id="Path_468" data-name="Path 468" d="M0-682.665H64.588v64.588H0Z" transform="translate(0 682.665)"/>
    </clipPath>
  </defs>
  <g id="oud" transform="translate(0 -0.002)">
    <g id="Group_55" data-name="Group 55" transform="translate(0 0.002)" clip-path="url(#clip-path)">
      <path id="Path_457" data-name="Path 457" d="M-65.442-144.921c7.461-3.871,18.541-2.414,35.312-15.144l4.348,4.348C-40.423-135.724-36.142-124.25-43.5-116.9c-7.035,7.03-17.079,1.543-22.049-3.424-4.7-4.7-10.237-14.6-3.83-21.614" transform="translate(73.226 177.197)" fill="none" stroke="#ccdaff" stroke-linecap="round" stroke-linejoin="round" stroke-miterlimit="10" stroke-width="2"/>
      <path id="Path_458" data-name="Path 458" d="M0-84.785l8.865-8.86L13.215-89.3,4.348-80.437Z" transform="translate(43.096 101.918)" fill="none" stroke="#ccdaff" stroke-linecap="round" stroke-linejoin="round" stroke-miterlimit="10" stroke-width="2"/>
      <path id="Path_459" data-name="Path 459" d="M0,0,5.782,5.778" transform="translate(52.935 16.227)" fill="none" stroke="#ccdaff" stroke-linecap="round" stroke-linejoin="round" stroke-miterlimit="10" stroke-width="2"/>
      <path id="Path_460" data-name="Path 460" d="M0,0,5.782,5.778" transform="translate(49.536 19.624)" fill="none" stroke="#ccdaff" stroke-linecap="round" stroke-linejoin="round" stroke-miterlimit="10" stroke-width="2"/>
      <path id="Path_461" data-name="Path 461" d="M0,0,5.782,5.778" transform="translate(44.326 4.108)" fill="none" stroke="#ccdaff" stroke-linecap="round" stroke-linejoin="round" stroke-miterlimit="10" stroke-width="2"/>
      <path id="Path_462" data-name="Path 462" d="M0,0,5.782,5.778" transform="translate(40.927 7.505)" fill="none" stroke="#ccdaff" stroke-linecap="round" stroke-linejoin="round" stroke-miterlimit="10" stroke-width="2"/>
      <path id="Path_463" data-name="Path 463" d="M-65.57-107.882l-2.5.4-4.349-4.346.4-2.5a2.628,2.628,0,0,1,.738-1.445l2.611-2.61a2.632,2.632,0,0,1,3.721,0l3.44,3.438a2.628,2.628,0,0,1,0,3.719" transform="translate(124.384 120.102)" fill="none" stroke="#ccdaff" stroke-linecap="round" stroke-linejoin="round" stroke-miterlimit="10" stroke-width="2"/>
      <path id="Path_464" data-name="Path 464" d="M-71.853-101.016l-7.508-7.5,3.054-3.052,7.508,7.5Z" transform="translate(87.717 157.287)" fill="none" stroke="#ccdaff" stroke-linecap="round" stroke-linejoin="round" stroke-miterlimit="10" stroke-width="2"/>
      <path id="Path_465" data-name="Path 465" d="M-288.228,0l-30.119,30.119" transform="translate(331.324 17.132)" fill="none" stroke="#ccdaff" stroke-linecap="round" stroke-linejoin="round" stroke-miterlimit="10" stroke-width="2"/>
      <path id="Path_466" data-name="Path 466" d="M-288.228,0l-30.119,30.119" transform="translate(335.695 21.503)" fill="none" stroke="#ccdaff" stroke-linecap="round" stroke-linejoin="round" stroke-miterlimit="10" stroke-width="2"/>
      <path id="Path_467" data-name="Path 467" d="M-288.228,0l-30.119,30.119" transform="translate(333.51 19.318)" fill="none" stroke="#ccdaff" stroke-linecap="round" stroke-linejoin="round" stroke-miterlimit="10" stroke-width="2"/>
    </g>
  </g>
</svg>
