<svg xmlns="http://www.w3.org/2000/svg" xmlns:xlink="http://www.w3.org/1999/xlink" width="114" height="48" viewBox="0 0 114 48">
  <defs>
    <clipPath id="clip-path">
      <circle id="Ellipse_34" data-name="Ellipse 34" cx="20" cy="20" r="20" transform="translate(0.269 -0.065)" fill="#f5f1f6" stroke="#f5f1f6" stroke-width="1"/>
    </clipPath>
    <clipPath id="clip-path-2">
      <circle id="Ellipse_39" data-name="Ellipse 39" cx="20" cy="20" r="20" transform="translate(0.118 -0.065)" fill="#defee6"/>
    </clipPath>
    <clipPath id="clip-path-3">
      <path id="Path_429" data-name="Path 429" d="M23.1,23.468a3.578,3.578,0,0,1-1.41-2.644,16.933,16.933,0,0,1-7.122.014,3.526,3.526,0,0,1-1.408,2.62C11.081,24.578-1.231,25.126.1,37.619H36.179C37.505,25.152,25.194,24.588,23.1,23.468Z" transform="translate(0.004 -20.825)" fill="none"/>
    </clipPath>
    <clipPath id="clip-path-4">
      <circle id="Ellipse_34-2" data-name="Ellipse 34" cx="20" cy="20" r="20" transform="translate(-0.032 -0.065)" fill="#f5f1f6" stroke="#f5f1f6" stroke-width="1"/>
    </clipPath>
  </defs>
  <g id="pepole-icon" transform="translate(-397 -2129)">
    <g id="Group_24" data-name="Group 24" transform="translate(396.516 2130.85)">
      <circle id="Ellipse_36" data-name="Ellipse 36" cx="22" cy="22" r="22" transform="translate(0.484 0.15)" fill="#f5f1f6"/>
      <g id="Mask_Group_1" data-name="Mask Group 1" transform="translate(2.215 2.215)" clip-path="url(#clip-path)">
        <ellipse id="Ellipse_35" data-name="Ellipse 35" cx="23.5" cy="23" rx="23.5" ry="23" transform="translate(-3.731 -3.065)" fill="#defee6"/>
        <g id="Layer_2" data-name="Layer 2" transform="translate(2.517 0.211)">
          <g id="OBJECTS" transform="translate(0 0)">
            <path id="Path_395" data-name="Path 395" d="M17.446,27.687s-3.459,2.182-1.58,5.492,14.893,2.405,8.2-5.492C18.545,21.164,17.446,27.687,17.446,27.687Z" transform="translate(-3.23 -5.23)" fill="#76413b"/>
            <path id="Path_396" data-name="Path 396" d="M31.263,17.726a5.263,5.263,0,0,0-1.2,3.61c.433,2.6-3.534,6.018-7.6,4.89s.3-8.726.3-8.726Z" transform="translate(-4.375 -3.692)" fill="#76413b"/>
            <path id="Path_397" data-name="Path 397" d="M10.01,17.726a5.254,5.254,0,0,1,1.2,3.61c-.424,2.6,3.536,6.018,7.6,4.89s-.3-8.726-.3-8.726Z" transform="translate(-2.112 -3.692)" fill="#76413b"/>
            <path id="Path_398" data-name="Path 398" d="M22.61,23.408a11.454,11.454,0,0,0,5.415-1.169,5.8,5.8,0,0,0,2.031-1.785,5.984,5.984,0,0,1,1.216-2.728l-8.5-.226a16.717,16.717,0,0,0-2.017,5.781A17.869,17.869,0,0,0,22.61,23.408Z" transform="translate(-4.38 -3.692)" fill="#965450"/>
            <path id="Path_399" data-name="Path 399" d="M11.256,21.021a20.382,20.382,0,0,0,9.087,2.387h.2c-.115-2.577-2.031-5.905-2.031-5.905l-8.5.223A5.424,5.424,0,0,1,11.256,21.021Z" transform="translate(-2.112 -3.693)" fill="#965450"/>
            <path id="Path_400" data-name="Path 400" d="M22.016,31.6C20.1,30.56,20.624,25.51,20.624,25.51l-2.866.181v-.185l-.309.1-.307-.093v.178l-2.852-.178S14.811,30.56,12.9,31.6-.776,33.171.44,44.83H34.474C35.692,33.169,23.932,32.647,22.016,31.6Z" transform="translate(-0.074 -5.382)" fill="#ffac9d"/>
            <path id="Path_401" data-name="Path 401" d="M17.495,30.3q3.434-.512,6.864-1.056a15.274,15.274,0,0,1-.117-3.732l-2.866.178v-.185l-.309.1-.307-.093v.178l-2.852-.178A13.065,13.065,0,0,1,17.495,30.3Z" transform="translate(-3.691 -5.382)" fill="#cc887f"/>
            <path id="Path_402" data-name="Path 402" d="M25.834,34.372a12.143,12.143,0,0,1-6.97,2.841L17.345,42.68l-.806-5.415A12.355,12.355,0,0,1,9,34.379C5.027,35.647-.779,38.406.086,46.7H34.749C35.615,38.406,29.81,35.647,25.834,34.372Z" transform="translate(0.001 -7.253)" fill="#5d8584"/>
            <path id="Path_403" data-name="Path 403" d="M18.591,38.652l-.208-1.385a12.355,12.355,0,0,1-7.539-2.886,20.685,20.685,0,0,0-2.108.8C10.145,37.088,13.984,38.5,18.591,38.652Z" transform="translate(-1.843 -7.255)" fill="#78a8a5"/>
            <path id="Path_404" data-name="Path 404" d="M33.116,35.277a19.478,19.478,0,0,0-2.342-.9,12.143,12.143,0,0,1-6.97,2.841l-.4,1.435C27.9,38.488,31.654,37.132,33.116,35.277Z" transform="translate(-4.939 -7.254)" fill="#78a8a5"/>
            <path id="Path_405" data-name="Path 405" d="M21.547,46.418a.632.632,0,1,0,.632-.632A.632.632,0,0,0,21.547,46.418Z" transform="translate(-4.547 -9.662)" fill="#78a8a5"/>
            <path id="Path_406" data-name="Path 406" d="M14.033,15.785c-.564-1.751-1.9-1.354-2.031-1.3s-1.51.226-1.273,2.044,1.309,2.827,2.306,2.536C14.062,18.9,14.6,17.543,14.033,15.785Z" transform="translate(-2.258 -3.04)" fill="#cc887f"/>
            <path id="Path_407" data-name="Path 407" d="M29.133,15.785c.564-1.751,1.9-1.354,2.031-1.3s1.512.226,1.273,2.044-1.311,2.827-2.308,2.536C29.1,18.9,28.565,17.543,29.133,15.785Z" transform="translate(-6.099 -3.04)" fill="#cc887f"/>
            <path id="Path_408" data-name="Path 408" d="M13.163,10.865c.7-7.672,6.53-7.241,7.081-7.182.548-.059,6.379-.487,7.078,7.182.709,7.715-2.733,12.753-7.078,12.471C15.9,23.619,12.461,18.58,13.163,10.865Z" transform="translate(-2.758 -0.772)" fill="#ffac9d"/>
            <path id="Path_409" data-name="Path 409" d="M12.869,13.993s-.377,10.08,5.567,11.208,9.626-3.836,9.1-11.733l-.751-.077s-.49,7.974-2.295,8.049.864-2.482-2.595-2.633-5.172-1.3-5.454,1.618c-.187,1.956-2.586-1.392-2.9-6.582S12.869,13.993,12.869,13.993Z" transform="translate(-2.714 -2.442)" fill="#965450"/>
            <path id="Path_410" data-name="Path 410" d="M13.839,16.16a18.126,18.126,0,0,1-.293-2.317c-.3-5.19-.677.151-.677.151a20.4,20.4,0,0,0,.117,2.6Z" transform="translate(-2.714 -2.442)" fill="#76413b"/>
            <path id="Path_411" data-name="Path 411" d="M31.214,16.711a20.849,20.849,0,0,0,0-2.757l-.751-.077s-.068,1.092-.244,2.471Z" transform="translate(-6.377 -2.928)" fill="#76413b"/>
            <path id="Path_412" data-name="Path 412" d="M23.2,13.934c.1.352.171.706.239,1.061s.124.713.174,1.07c.027.178.045.357.068.537s.043.357.059.537c.038.359.065.718.086,1.079v.1l-.07.043c-.226.142-.463.278-.7.411s-.474.264-.722.379c.2-.187.406-.361.614-.535s.42-.338.636-.5l-.065.142c-.059-.357-.111-.715-.151-1.072-.023-.181-.045-.359-.061-.537s-.038-.359-.052-.539c-.029-.359-.052-.72-.063-1.081S23.186,14.3,23.2,13.934Z" transform="translate(-4.714 -2.94)" fill="#cc887f"/>
            <path id="Path_413" data-name="Path 413" d="M28.157,12.854l-.167-.093-.187-.1-.237-.124c-.088-.038-.178-.09-.28-.129l-.149-.068-.158-.056c-.1-.047-.226-.063-.323-.1a2.482,2.482,0,0,0-.334-.047l-.165-.016h-.165a1.9,1.9,0,0,0-.32.05c-.106.018-.2.07-.3.095l-.074.023-.068.036-.133.061a2.107,2.107,0,0,0-.226.117c-.068.043-.131.077-.183.106-.106.056-.174.086-.174.086s.027-.063.086-.171c.029-.054.065-.12.113-.192A1.1,1.1,0,0,1,24.9,12.1a1.4,1.4,0,0,1,.259-.239,2.074,2.074,0,0,1,.325-.194c.068-.027.135-.05.205-.074a.81.81,0,0,1,.226-.052c.074,0,.151-.023.226-.029h.226a1.943,1.943,0,0,1,.451.09c.07.025.138.056.2.083a.977.977,0,0,1,.187.1c.059.036.117.07.171.106l.149.12a2.3,2.3,0,0,1,.248.239,2.148,2.148,0,0,1,.3.417,1.178,1.178,0,0,1,.088.19Z" transform="translate(-5.173 -2.429)" fill="#352c38"/>
            <path id="Path_414" data-name="Path 414" d="M18.947,12.852l-.167-.093-.187-.1-.226-.124c-.088-.038-.178-.09-.278-.129l-.151-.068-.156-.056c-.1-.047-.226-.063-.325-.1a2.482,2.482,0,0,0-.345-.047l-.167-.014h-.165a1.932,1.932,0,0,0-.32.05c-.106.018-.2.07-.3.095l-.074.023-.068.036-.133.061a2.32,2.32,0,0,0-.237.117c-.068.043-.131.077-.183.106-.106.056-.174.086-.174.086s.027-.063.086-.171c.032-.054.068-.12.115-.192a1.018,1.018,0,0,1,.183-.226,1.4,1.4,0,0,1,.259-.239,2.074,2.074,0,0,1,.347-.205c.068-.027.135-.05.205-.074a.81.81,0,0,1,.226-.052c.074,0,.151-.023.226-.029h.226a1.988,1.988,0,0,1,.451.09c.068.025.135.056.2.083a.977.977,0,0,1,.187.1c.059.036.117.07.171.106l.151.12a2.809,2.809,0,0,1,.246.259,2.223,2.223,0,0,1,.293.417A1.178,1.178,0,0,1,18.947,12.852Z" transform="translate(-3.226 -2.426)" fill="#352c38"/>
            <path id="Path_415" data-name="Path 415" d="M19,16.333s-.016-.061-.052-.167a2.807,2.807,0,0,0-.176-.4,1.415,1.415,0,0,0-.379-.451.851.851,0,0,0-.284-.147.521.521,0,0,0-.158-.056.584.584,0,0,0-.167-.014h-.165a1.176,1.176,0,0,0-.176.032.857.857,0,0,0-.275.131.9.9,0,0,0-.208.226,1.333,1.333,0,0,0-.138.244,2.242,2.242,0,0,0-.12.431c-.018.108-.025.171-.025.171a1.462,1.462,0,0,1-.029-.174,1.622,1.622,0,0,1,.025-.472,1.144,1.144,0,0,1,.106-.309.963.963,0,0,1,.226-.3.934.934,0,0,1,.368-.2,1.37,1.37,0,0,1,.19-.041,1.823,1.823,0,0,1,.226,0,1.06,1.06,0,0,1,.205.023.794.794,0,0,1,.2.054.742.742,0,0,1,.185.09.862.862,0,0,1,.162.12,1.336,1.336,0,0,1,.368.58,1.758,1.758,0,0,1,.088.451,1.175,1.175,0,0,1,0,.176Z" transform="translate(-3.512 -3.13)" fill="#352c38"/>
            <path id="Path_416" data-name="Path 416" d="M27.276,16.2s-.016-.063-.052-.167a2.678,2.678,0,0,0-.176-.413,1.4,1.4,0,0,0-.377-.451.918.918,0,0,0-.284-.147.639.639,0,0,0-.16-.038.835.835,0,0,0-.167-.014,1.266,1.266,0,0,0-.165,0,.97.97,0,0,0-.178.032.828.828,0,0,0-.275.129.945.945,0,0,0-.208.226,1.686,1.686,0,0,0-.131.253,2.155,2.155,0,0,0-.117.429,1.673,1.673,0,0,0-.025.174,1.11,1.11,0,0,1-.029-.176,1.534,1.534,0,0,1,.023-.472,1.324,1.324,0,0,1,.106-.309.955.955,0,0,1,.226-.3.934.934,0,0,1,.37-.2,1.228,1.228,0,0,1,.19-.038,1.155,1.155,0,0,1,.212,0,.8.8,0,0,1,.208.023.779.779,0,0,1,.2.054.711.711,0,0,1,.187.088,1.076,1.076,0,0,1,.162.12,1.336,1.336,0,0,1,.368.58,1.79,1.79,0,0,1,.088.451A1.384,1.384,0,0,1,27.276,16.2Z" transform="translate(-5.259 -3.105)" fill="#352c38"/>
            <path id="Path_417" data-name="Path 417" d="M24.453,22.288c-1.388,1.354-3.739,1.275-5.519.072" transform="translate(-3.995 -4.703)" fill="#fff"/>
            <path id="Path_418" data-name="Path 418" d="M19.363,4.03s-4.213-.754-4.89,1.88.3,6.167-2.782,5.641c0,0-2.236.451-.808,3.987,0,0-4.231-4.062-1.749-6.995,2.013-2.394,1.2-7.6,6.167-8.426S19.363,3.05,19.363,4.03Z" transform="translate(-1.762 0.001)" fill="#76413b"/>
            <path id="Path_419" data-name="Path 419" d="M19.363,4.03s-4.213-.754-4.89,1.88.3,6.167-2.782,5.641c0,0-2.236.451-.808,3.987,0,0-4.231-4.062-1.749-6.995,2.013-2.394,1.2-7.6,6.167-8.426S19.363,3.05,19.363,4.03Z" transform="translate(-1.762 0.001)" fill="#965450"/>
            <path id="Path_420" data-name="Path 420" d="M21.791,4.03S26,3.276,26.678,5.909s-.3,6.167,2.784,5.641c0,0,2.236.451.806,3.987,0,0,4.233-4.062,1.751-6.995-2.031-2.394-1.2-7.6-6.167-8.426S21.791,3.05,21.791,4.03Z" transform="translate(-4.584 0.001)" fill="#965450"/>
            <path id="Path_421" data-name="Path 421" d="M21.719,4.319c.3,0,.573,0,.857.027s.566.056.848.1a6.246,6.246,0,0,1,1.649.505A3.227,3.227,0,0,1,26.442,6.1a2.559,2.559,0,0,1,.341.848,6.092,6.092,0,0,1,.1.857,16.472,16.472,0,0,1,0,1.67,15.117,15.117,0,0,0,0,1.629,3.511,3.511,0,0,0,.131.776,1.5,1.5,0,0,0,.363.643,1.385,1.385,0,0,0,.677.345,2.92,2.92,0,0,0,.8.056h.014a2.356,2.356,0,0,1,.487.133,1.713,1.713,0,0,1,.438.248,1.061,1.061,0,0,1,.3.388,1.024,1.024,0,0,1,.086.483,1,1,0,0,0-.12-.465,1.049,1.049,0,0,0-.323-.345,1.7,1.7,0,0,0-.431-.2,2.089,2.089,0,0,0-.465-.09h.014a3.145,3.145,0,0,1-.848,0,1.638,1.638,0,0,1-.8-.357,1.722,1.722,0,0,1-.5-.756,3.809,3.809,0,0,1-.185-.839,15.426,15.426,0,0,1-.07-1.67c0-.548,0-1.094-.052-1.629a5.3,5.3,0,0,0-.117-.778,1.986,1.986,0,0,0-.291-.663,2.751,2.751,0,0,0-1.16-.914,6.092,6.092,0,0,0-1.5-.431q-.393-.065-.792-.095c-.264-.018-.537-.029-.792-.023Z" transform="translate(-4.583 -0.911)" fill="#965450"/>
          </g>
        </g>
      </g>
    </g>
    <g id="Group_27" data-name="Group 27" transform="translate(418.667 2130.85)">
      <circle id="Ellipse_38" data-name="Ellipse 38" cx="22" cy="22" r="22" transform="translate(0.333 0.15)" fill="#f5f1f6"/>
      <circle id="Ellipse_37" data-name="Ellipse 37" cx="20" cy="20" r="20" transform="translate(2.333 2.15)" fill="#defee6"/>
      <g id="Mask_Group_2" data-name="Mask Group 2" transform="translate(2.215 2.215)" clip-path="url(#clip-path-2)">
        <g id="Layer_2-2" data-name="Layer 2" transform="translate(1.794 0)">
          <g id="OBJECTS-2" data-name="OBJECTS" transform="translate(0 0)">
            <path id="Path_422" data-name="Path 422" d="M11.032,12.849S9.1,12.417,8.81,14.066s.862,2.008.862,2.008S7.95,14.137,6.733,15.5s.788,2.51.788,2.51-2.232-1.22-2.653.286,1.374,2.437,1.374,2.437-1.936-.143-1.863.715,1.934.143,1.934.143-2.725.5-2.294,2.653,2.58.931,2.58.931-1.648.86-1.217,3.573,12.688-2.8,12.688-2.8l.214-7.384Z" transform="translate(0.432 1.377)" fill="#352c38"/>
            <path id="Path_423" data-name="Path 423" d="M23.825,12.849s1.936-.431,2.222,1.217-.86,2.008-.86,2.008,1.72-1.936,2.939-.574-.788,2.51-.788,2.51,2.222-1.22,2.651.286-1.36,2.437-1.36,2.437,1.934-.143,1.863.715-1.936.143-1.936.143,2.725.5,2.3,2.653-2.582.931-2.582.931,1.648.86,1.22,3.573S16.8,25.965,16.8,25.965l-.217-7.384Z" transform="translate(1.787 1.377)" fill="#352c38"/>
            <path id="Path_424" data-name="Path 424" d="M11.032,12.849S9.1,12.417,8.81,14.066s.862,2.008.862,2.008S7.95,14.137,6.733,15.5s.788,2.51.788,2.51-2.232-1.22-2.653.286,1.374,2.437,1.374,2.437-1.936-.143-1.863.715,1.934.143,1.934.143-2.725.5-2.294,2.653,2.58.931,2.58.931-1.648.86-1.217,3.573,12.688-2.8,12.688-2.8l.214-7.384Z" transform="translate(0.432 1.377)" fill="#2a242d"/>
            <path id="Path_425" data-name="Path 425" d="M23.825,12.849s1.936-.431,2.222,1.217-.86,2.008-.86,2.008,1.72-1.936,2.939-.574-.788,2.51-.788,2.51,2.222-1.22,2.651.286-1.36,2.437-1.36,2.437,1.934-.143,1.863.715-1.936.143-1.936.143,2.725.5,2.3,2.653-2.582.931-2.582.931,1.648.86,1.22,3.573S16.8,25.965,16.8,25.965l-.217-7.384Z" transform="translate(1.787 1.377)" fill="#2a242d"/>
            <path id="Path_426" data-name="Path 426" d="M22.943,24.019c-2.02-1.1-1.47-6.431-1.47-6.431l-3.025.193v-.193l-.324.1-.319-.1v.193l-3.025-.193s.55,5.326-1.47,6.431S-.647,25.674.64,37.979H35.617C36.9,25.672,24.966,25.119,22.943,24.019Z" transform="translate(0.063 1.892)" fill="#965450"/>
            <path id="Path_427" data-name="Path 427" d="M13.011,22.642q3.628-.541,7.246-1.115a16.123,16.123,0,0,1-.124-3.94l-3.025.193v-.193l-.324.1-.319-.1v.193L13.44,17.59A13.71,13.71,0,0,1,13.011,22.642Z" transform="translate(1.403 1.892)" fill="#76413b"/>
            <path id="Path_428" data-name="Path 428" d="M23.1,23.468a3.578,3.578,0,0,1-1.41-2.644,16.933,16.933,0,0,1-7.122.014,3.526,3.526,0,0,1-1.408,2.62C11.081,24.578-1.231,25.126.1,37.619H36.179C37.505,25.152,25.194,24.588,23.1,23.468Z" transform="translate(0.004 2.24)" fill="#fc6a5a"/>
            <g id="Group_26" data-name="Group 26" transform="translate(0 23.064)" opacity="0.9">
              <g id="Group_25" data-name="Group 25" clip-path="url(#clip-path-3)">
                <line id="Line_1" data-name="Line 1" x2="39.615" transform="translate(-2.039 1.674)" fill="none" stroke="#fdedee" stroke-miterlimit="10" stroke-width="0.658"/>
                <line id="Line_2" data-name="Line 2" x2="39.615" transform="translate(-2.039 3.606)" fill="none" stroke="#fdedee" stroke-miterlimit="10" stroke-width="0.658"/>
                <line id="Line_3" data-name="Line 3" x2="39.615" transform="translate(-2.039 5.538)" fill="none" stroke="#fdedee" stroke-miterlimit="10" stroke-width="0.658"/>
                <line id="Line_4" data-name="Line 4" x2="39.615" transform="translate(-2.039 7.47)" fill="none" stroke="#fdedee" stroke-miterlimit="10" stroke-width="0.658"/>
                <line id="Line_5" data-name="Line 5" x2="39.615" transform="translate(-2.039 9.401)" fill="none" stroke="#fdedee" stroke-miterlimit="10" stroke-width="0.658"/>
                <line id="Line_6" data-name="Line 6" x2="39.615" transform="translate(-2.039 11.333)" fill="none" stroke="#fdedee" stroke-miterlimit="10" stroke-width="0.658"/>
                <line id="Line_7" data-name="Line 7" x2="39.615" transform="translate(-2.039 13.265)" fill="none" stroke="#fdedee" stroke-miterlimit="10" stroke-width="0.658"/>
                <line id="Line_8" data-name="Line 8" x2="39.615" transform="translate(-2.039 15.194)" fill="none" stroke="#fdedee" stroke-miterlimit="10" stroke-width="0.658"/>
              </g>
            </g>
            <path id="Path_430" data-name="Path 430" d="M1.148,36.859H36.055c.436-4.094-.6-6.907-2.256-8.877C22.845,30.664,12.065,34.02,1.148,36.859Z" transform="translate(0.128 3.009)" fill="#2a242d" opacity="0.3"/>
            <path id="Path_431" data-name="Path 431" d="M11.419,10.69c-.6-1.846-2.006-1.429-2.144-1.374a1.686,1.686,0,0,0-1.343,2.144c.25,1.905,1.377,2.984,2.43,2.677C11.45,13.977,12.012,12.548,11.419,10.69Z" transform="translate(0.854 0.994)" fill="#76413b"/>
            <path id="Path_432" data-name="Path 432" d="M21.833,10.69c.6-1.846,2-1.429,2.144-1.374a1.684,1.684,0,0,1,1.343,2.144c-.252,1.905-1.377,2.984-2.43,2.677C21.8,13.977,21.233,12.548,21.833,10.69Z" transform="translate(2.326 0.994)" fill="#76413b"/>
            <path id="Path_433" data-name="Path 433" d="M9.782,8.76c.738-8.1,6.893-7.641,7.474-7.582.579-.06,6.734-.514,7.472,7.582.743,8.146-2.884,13.465-7.472,13.172C12.669,22.225,9.041,16.906,9.782,8.76Z" transform="translate(1.046 0.125)" fill="#965450"/>
            <path id="Path_434" data-name="Path 434" d="M17.522,11.463a3.89,3.89,0,0,1,.238.572c.071.193.131.391.183.586.029.1.048.2.071.3s.045.2.062.3c.04.2.069.4.091.6v.1l-.052.048c-.164.152-.336.3-.507.443a6.558,6.558,0,0,1-.538.412c.124-.193.26-.372.4-.553s.276-.353.422-.522l-.04.143c-.06-.2-.117-.393-.16-.593-.024-.1-.048-.2-.064-.3s-.04-.2-.055-.3c-.029-.2-.055-.4-.067-.61a4.194,4.194,0,0,1,.021-.624Z" transform="translate(1.84 1.233)" fill="#76413b"/>
            <path id="Path_435" data-name="Path 435" d="M19.921,15.809c-1.465,1.429-3.947,1.346-5.826.076" transform="translate(1.52 1.7)" fill="#fff"/>
            <path id="Path_436" data-name="Path 436" d="M22.136,9.121l-.176-.1-.2-.107-.25-.131c-.093-.04-.188-.1-.3-.138l-.157-.069-.167-.062c-.11-.048-.238-.064-.341-.1a2.62,2.62,0,0,0-.353-.052l-.176-.014a.866.866,0,0,0-.174.012,2,2,0,0,0-.338.052,2.765,2.765,0,0,0-.319.1l-.079.024-.071.036-.141.067a1.882,1.882,0,0,0-.238.124c-.071.045-.138.079-.193.11-.112.06-.183.093-.183.093a1.988,1.988,0,0,1,.091-.181c.031-.057.069-.129.119-.2a1.219,1.219,0,0,1,.2-.238,1.479,1.479,0,0,1,.274-.252,2.039,2.039,0,0,1,.367-.217l.217-.081a.853.853,0,0,1,.238-.052c.079-.012.16-.024.238-.031a.994.994,0,0,1,.238.012,2.051,2.051,0,0,1,.476.1c.074.026.145.057.214.088a1.031,1.031,0,0,1,.2.1c.062.038.124.074.181.112l.157.126a2.427,2.427,0,0,1,.262.252,2.2,2.2,0,0,1,.3.445,1.3,1.3,0,0,1,.086.183Z" transform="translate(1.971 0.829)" fill="#352c38"/>
            <path id="Path_437" data-name="Path 437" d="M15.214,9.121l-.176-.1-.2-.107-.25-.131c-.093-.04-.188-.1-.293-.138l-.16-.069-.164-.062c-.11-.048-.238-.064-.343-.1a2.62,2.62,0,0,0-.353-.052L13.1,8.345a.866.866,0,0,0-.174.012,2.039,2.039,0,0,0-.338.052,2.765,2.765,0,0,0-.319.1l-.079.024-.071.036-.141.067a2.039,2.039,0,0,0-.25.124c-.071.045-.138.079-.193.11-.112.06-.183.093-.183.093a1.989,1.989,0,0,1,.091-.181c.033-.057.071-.129.121-.2a1.122,1.122,0,0,1,.193-.238,1.479,1.479,0,0,1,.274-.252,2.039,2.039,0,0,1,.367-.217l.217-.081a.853.853,0,0,1,.238-.052c.079-.012.16-.024.238-.031a.994.994,0,0,1,.238.012,2.1,2.1,0,0,1,.476.1c.071.026.143.057.212.088a1.031,1.031,0,0,1,.2.1c.062.038.124.074.181.112l.16.126a2.965,2.965,0,0,1,.262.252,2.272,2.272,0,0,1,.31.445A1.3,1.3,0,0,1,15.214,9.121Z" transform="translate(1.225 0.829)" fill="#352c38"/>
            <path id="Path_438" data-name="Path 438" d="M14.867,11.786s-.017-.067-.055-.176a2.963,2.963,0,0,0-.183-.434,1.5,1.5,0,0,0-.4-.476.938.938,0,0,0-.314-.162.629.629,0,0,0-.169-.043.715.715,0,0,0-.176-.012,1.039,1.039,0,0,0-.174,0,1.241,1.241,0,0,0-.186.033.858.858,0,0,0-.291.138.938.938,0,0,0-.219.226,1.429,1.429,0,0,0-.138.267,2.368,2.368,0,0,0-.126.455c-.019.114-.026.181-.026.181a1.543,1.543,0,0,1-.031-.183,1.71,1.71,0,0,1,.026-.5,1.222,1.222,0,0,1,.112-.329,1.008,1.008,0,0,1,.238-.314.989.989,0,0,1,.388-.212,1.429,1.429,0,0,1,.2-.04,1.925,1.925,0,0,1,.238,0,.953.953,0,0,1,.217.024.838.838,0,0,1,.214.057.715.715,0,0,1,.2.1.91.91,0,0,1,.171.126,1.384,1.384,0,0,1,.388.612,1.855,1.855,0,0,1,.1.479,1.241,1.241,0,0,1,0,.186Z" transform="translate(1.335 1.098)" fill="#352c38"/>
            <path id="Path_439" data-name="Path 439" d="M21.081,11.684s-.017-.064-.055-.176a2.72,2.72,0,0,0-.186-.434,1.479,1.479,0,0,0-.4-.476.922.922,0,0,0-.291-.162.586.586,0,0,0-.169-.04.631.631,0,0,0-.176-.014h-.174a1.277,1.277,0,0,0-.188.033.929.929,0,0,0-.291.138,1,1,0,0,0-.219.238,1.758,1.758,0,0,0-.148.269,2.334,2.334,0,0,0-.124.455,1.782,1.782,0,0,0-.026.181,1.1,1.1,0,0,1-.031-.183,1.62,1.62,0,0,1,.024-.5,1.4,1.4,0,0,1,.112-.326,1.015,1.015,0,0,1,.636-.526,1.313,1.313,0,0,1,.2-.043,1.86,1.86,0,0,1,.224,0,1.122,1.122,0,0,1,.219.024.929.929,0,0,1,.212.057.841.841,0,0,1,.2.1,1,1,0,0,1,.171.126,1.41,1.41,0,0,1,.388.612,1.855,1.855,0,0,1,.093.488,1.409,1.409,0,0,1,0,.162Z" transform="translate(2.004 1.088)" fill="#352c38"/>
            <path id="Path_440" data-name="Path 440" d="M17.627,1.3s.379,4.964-7.146,7.043a15.911,15.911,0,0,1-.434,4.873A9.957,9.957,0,0,1,8.759,5.55C9.9,1.391,15.717-1.939,17.627,1.3Z" transform="translate(0.913 0.001)" fill="#352c38"/>
            <path id="Path_441" data-name="Path 441" d="M16.2,1.3s-.143,4.964,7.384,7.043a17.586,17.586,0,0,0,.288,5.519S26.452,9.709,25.3,5.55,18.109-1.939,16.2,1.3Z" transform="translate(1.746 0.001)" fill="#352c38"/>
            <path id="Path_442" data-name="Path 442" d="M11.617,7.487A9.616,9.616,0,0,1,8.885,4.648c-.045.133-.088.267-.126.4a9.957,9.957,0,0,0,1.289,7.67,15.911,15.911,0,0,0,.431-4.883C10.881,7.734,11.258,7.613,11.617,7.487Z" transform="translate(0.913 0.5)" fill="#2a242d"/>
          </g>
        </g>
      </g>
    </g>
    <g id="Group_28" data-name="Group 28" transform="translate(440.817 2130.85)">
      <circle id="Ellipse_36-2" data-name="Ellipse 36" cx="22" cy="22" r="22" transform="translate(0.183 0.15)" fill="#f5f1f6"/>
      <g id="Mask_Group_1-2" data-name="Mask Group 1" transform="translate(2.215 2.215)" clip-path="url(#clip-path-4)">
        <circle id="Ellipse_35-2" data-name="Ellipse 35" cx="23" cy="23" r="23" transform="translate(-3.032 -3.065)" fill="#defee6"/>
        <g id="Layer_2-3" data-name="Layer 2" transform="translate(2.517 0.211)">
          <g id="OBJECTS-3" data-name="OBJECTS" transform="translate(0 0)">
            <path id="Path_395-2" data-name="Path 395" d="M17.446,27.687s-3.459,2.182-1.58,5.492,14.893,2.405,8.2-5.492C18.545,21.164,17.446,27.687,17.446,27.687Z" transform="translate(-3.23 -5.23)" fill="#76413b"/>
            <path id="Path_396-2" data-name="Path 396" d="M31.263,17.726a5.263,5.263,0,0,0-1.2,3.61c.433,2.6-3.534,6.018-7.6,4.89s.3-8.726.3-8.726Z" transform="translate(-4.375 -3.692)" fill="#76413b"/>
            <path id="Path_397-2" data-name="Path 397" d="M10.01,17.726a5.254,5.254,0,0,1,1.2,3.61c-.424,2.6,3.536,6.018,7.6,4.89s-.3-8.726-.3-8.726Z" transform="translate(-2.112 -3.692)" fill="#76413b"/>
            <path id="Path_398-2" data-name="Path 398" d="M22.61,23.408a11.454,11.454,0,0,0,5.415-1.169,5.8,5.8,0,0,0,2.031-1.785,5.984,5.984,0,0,1,1.216-2.728l-8.5-.226a16.717,16.717,0,0,0-2.017,5.781A17.869,17.869,0,0,0,22.61,23.408Z" transform="translate(-4.38 -3.692)" fill="#965450"/>
            <path id="Path_399-2" data-name="Path 399" d="M11.256,21.021a20.382,20.382,0,0,0,9.087,2.387h.2c-.115-2.577-2.031-5.905-2.031-5.905l-8.5.223A5.424,5.424,0,0,1,11.256,21.021Z" transform="translate(-2.112 -3.693)" fill="#965450"/>
            <path id="Path_400-2" data-name="Path 400" d="M22.016,31.6C20.1,30.56,20.624,25.51,20.624,25.51l-2.866.181v-.185l-.309.1-.307-.093v.178l-2.852-.178S14.811,30.56,12.9,31.6-.776,33.171.44,44.83H34.474C35.692,33.169,23.932,32.647,22.016,31.6Z" transform="translate(-0.074 -5.382)" fill="#ffac9d"/>
            <path id="Path_401-2" data-name="Path 401" d="M17.495,30.3q3.434-.512,6.864-1.056a15.274,15.274,0,0,1-.117-3.732l-2.866.178v-.185l-.309.1-.307-.093v.178l-2.852-.178A13.065,13.065,0,0,1,17.495,30.3Z" transform="translate(-3.691 -5.382)" fill="#cc887f"/>
            <path id="Path_402-2" data-name="Path 402" d="M25.834,34.372a12.143,12.143,0,0,1-6.97,2.841L17.345,42.68l-.806-5.415A12.355,12.355,0,0,1,9,34.379C5.027,35.647-.779,38.406.086,46.7H34.749C35.615,38.406,29.81,35.647,25.834,34.372Z" transform="translate(0.001 -7.253)" fill="#5d8584"/>
            <path id="Path_403-2" data-name="Path 403" d="M18.591,38.652l-.208-1.385a12.355,12.355,0,0,1-7.539-2.886,20.685,20.685,0,0,0-2.108.8C10.145,37.088,13.984,38.5,18.591,38.652Z" transform="translate(-1.843 -7.255)" fill="#78a8a5"/>
            <path id="Path_404-2" data-name="Path 404" d="M33.116,35.277a19.478,19.478,0,0,0-2.342-.9,12.143,12.143,0,0,1-6.97,2.841l-.4,1.435C27.9,38.488,31.654,37.132,33.116,35.277Z" transform="translate(-4.939 -7.254)" fill="#78a8a5"/>
            <path id="Path_405-2" data-name="Path 405" d="M21.547,46.418a.632.632,0,1,0,.632-.632A.632.632,0,0,0,21.547,46.418Z" transform="translate(-4.547 -9.662)" fill="#78a8a5"/>
            <path id="Path_406-2" data-name="Path 406" d="M14.033,15.785c-.564-1.751-1.9-1.354-2.031-1.3s-1.51.226-1.273,2.044,1.309,2.827,2.306,2.536C14.062,18.9,14.6,17.543,14.033,15.785Z" transform="translate(-2.258 -3.04)" fill="#cc887f"/>
            <path id="Path_407-2" data-name="Path 407" d="M29.133,15.785c.564-1.751,1.9-1.354,2.031-1.3s1.512.226,1.273,2.044-1.311,2.827-2.308,2.536C29.1,18.9,28.565,17.543,29.133,15.785Z" transform="translate(-6.099 -3.04)" fill="#cc887f"/>
            <path id="Path_408-2" data-name="Path 408" d="M13.163,10.865c.7-7.672,6.53-7.241,7.081-7.182.548-.059,6.379-.487,7.078,7.182.709,7.715-2.733,12.753-7.078,12.471C15.9,23.619,12.461,18.58,13.163,10.865Z" transform="translate(-2.758 -0.772)" fill="#ffac9d"/>
            <path id="Path_409-2" data-name="Path 409" d="M12.869,13.993s-.377,10.08,5.567,11.208,9.626-3.836,9.1-11.733l-.751-.077s-.49,7.974-2.295,8.049.864-2.482-2.595-2.633-5.172-1.3-5.454,1.618c-.187,1.956-2.586-1.392-2.9-6.582S12.869,13.993,12.869,13.993Z" transform="translate(-2.714 -2.442)" fill="#965450"/>
            <path id="Path_410-2" data-name="Path 410" d="M13.839,16.16a18.126,18.126,0,0,1-.293-2.317c-.3-5.19-.677.151-.677.151a20.4,20.4,0,0,0,.117,2.6Z" transform="translate(-2.714 -2.442)" fill="#76413b"/>
            <path id="Path_411-2" data-name="Path 411" d="M31.214,16.711a20.849,20.849,0,0,0,0-2.757l-.751-.077s-.068,1.092-.244,2.471Z" transform="translate(-6.377 -2.928)" fill="#76413b"/>
            <path id="Path_412-2" data-name="Path 412" d="M23.2,13.934c.1.352.171.706.239,1.061s.124.713.174,1.07c.027.178.045.357.068.537s.043.357.059.537c.038.359.065.718.086,1.079v.1l-.07.043c-.226.142-.463.278-.7.411s-.474.264-.722.379c.2-.187.406-.361.614-.535s.42-.338.636-.5l-.065.142c-.059-.357-.111-.715-.151-1.072-.023-.181-.045-.359-.061-.537s-.038-.359-.052-.539c-.029-.359-.052-.72-.063-1.081S23.186,14.3,23.2,13.934Z" transform="translate(-4.714 -2.94)" fill="#cc887f"/>
            <path id="Path_413-2" data-name="Path 413" d="M28.157,12.854l-.167-.093-.187-.1-.237-.124c-.088-.038-.178-.09-.28-.129l-.149-.068-.158-.056c-.1-.047-.226-.063-.323-.1a2.482,2.482,0,0,0-.334-.047l-.165-.016h-.165a1.9,1.9,0,0,0-.32.05c-.106.018-.2.07-.3.095l-.074.023-.068.036-.133.061a2.107,2.107,0,0,0-.226.117c-.068.043-.131.077-.183.106-.106.056-.174.086-.174.086s.027-.063.086-.171c.029-.054.065-.12.113-.192A1.1,1.1,0,0,1,24.9,12.1a1.4,1.4,0,0,1,.259-.239,2.074,2.074,0,0,1,.325-.194c.068-.027.135-.05.205-.074a.81.81,0,0,1,.226-.052c.074,0,.151-.023.226-.029h.226a1.943,1.943,0,0,1,.451.09c.07.025.138.056.2.083a.977.977,0,0,1,.187.1c.059.036.117.07.171.106l.149.12a2.3,2.3,0,0,1,.248.239,2.148,2.148,0,0,1,.3.417,1.178,1.178,0,0,1,.088.19Z" transform="translate(-5.173 -2.429)" fill="#352c38"/>
            <path id="Path_414-2" data-name="Path 414" d="M18.947,12.852l-.167-.093-.187-.1-.226-.124c-.088-.038-.178-.09-.278-.129l-.151-.068-.156-.056c-.1-.047-.226-.063-.325-.1a2.482,2.482,0,0,0-.345-.047l-.167-.014h-.165a1.932,1.932,0,0,0-.32.05c-.106.018-.2.07-.3.095l-.074.023-.068.036-.133.061a2.32,2.32,0,0,0-.237.117c-.068.043-.131.077-.183.106-.106.056-.174.086-.174.086s.027-.063.086-.171c.032-.054.068-.12.115-.192a1.018,1.018,0,0,1,.183-.226,1.4,1.4,0,0,1,.259-.239,2.074,2.074,0,0,1,.347-.205c.068-.027.135-.05.205-.074a.81.81,0,0,1,.226-.052c.074,0,.151-.023.226-.029h.226a1.988,1.988,0,0,1,.451.09c.068.025.135.056.2.083a.977.977,0,0,1,.187.1c.059.036.117.07.171.106l.151.12a2.809,2.809,0,0,1,.246.259,2.223,2.223,0,0,1,.293.417A1.178,1.178,0,0,1,18.947,12.852Z" transform="translate(-3.226 -2.426)" fill="#352c38"/>
            <path id="Path_415-2" data-name="Path 415" d="M19,16.333s-.016-.061-.052-.167a2.807,2.807,0,0,0-.176-.4,1.415,1.415,0,0,0-.379-.451.851.851,0,0,0-.284-.147.521.521,0,0,0-.158-.056.584.584,0,0,0-.167-.014h-.165a1.176,1.176,0,0,0-.176.032.857.857,0,0,0-.275.131.9.9,0,0,0-.208.226,1.333,1.333,0,0,0-.138.244,2.242,2.242,0,0,0-.12.431c-.018.108-.025.171-.025.171a1.462,1.462,0,0,1-.029-.174,1.622,1.622,0,0,1,.025-.472,1.144,1.144,0,0,1,.106-.309.963.963,0,0,1,.226-.3.934.934,0,0,1,.368-.2,1.37,1.37,0,0,1,.19-.041,1.823,1.823,0,0,1,.226,0,1.06,1.06,0,0,1,.205.023.794.794,0,0,1,.2.054.742.742,0,0,1,.185.09.862.862,0,0,1,.162.12,1.336,1.336,0,0,1,.368.58,1.758,1.758,0,0,1,.088.451,1.175,1.175,0,0,1,0,.176Z" transform="translate(-3.512 -3.13)" fill="#352c38"/>
            <path id="Path_416-2" data-name="Path 416" d="M27.276,16.2s-.016-.063-.052-.167a2.678,2.678,0,0,0-.176-.413,1.4,1.4,0,0,0-.377-.451.918.918,0,0,0-.284-.147.639.639,0,0,0-.16-.038.835.835,0,0,0-.167-.014,1.266,1.266,0,0,0-.165,0,.97.97,0,0,0-.178.032.828.828,0,0,0-.275.129.945.945,0,0,0-.208.226,1.686,1.686,0,0,0-.131.253,2.155,2.155,0,0,0-.117.429,1.673,1.673,0,0,0-.025.174,1.11,1.11,0,0,1-.029-.176,1.534,1.534,0,0,1,.023-.472,1.324,1.324,0,0,1,.106-.309.955.955,0,0,1,.226-.3.934.934,0,0,1,.37-.2,1.228,1.228,0,0,1,.19-.038,1.155,1.155,0,0,1,.212,0,.8.8,0,0,1,.208.023.779.779,0,0,1,.2.054.711.711,0,0,1,.187.088,1.076,1.076,0,0,1,.162.12,1.336,1.336,0,0,1,.368.58,1.79,1.79,0,0,1,.088.451A1.384,1.384,0,0,1,27.276,16.2Z" transform="translate(-5.259 -3.105)" fill="#352c38"/>
            <path id="Path_417-2" data-name="Path 417" d="M24.453,22.288c-1.388,1.354-3.739,1.275-5.519.072" transform="translate(-3.995 -4.703)" fill="#fff"/>
            <path id="Path_418-2" data-name="Path 418" d="M19.363,4.03s-4.213-.754-4.89,1.88.3,6.167-2.782,5.641c0,0-2.236.451-.808,3.987,0,0-4.231-4.062-1.749-6.995,2.013-2.394,1.2-7.6,6.167-8.426S19.363,3.05,19.363,4.03Z" transform="translate(-1.762 0.001)" fill="#76413b"/>
            <path id="Path_419-2" data-name="Path 419" d="M19.363,4.03s-4.213-.754-4.89,1.88.3,6.167-2.782,5.641c0,0-2.236.451-.808,3.987,0,0-4.231-4.062-1.749-6.995,2.013-2.394,1.2-7.6,6.167-8.426S19.363,3.05,19.363,4.03Z" transform="translate(-1.762 0.001)" fill="#965450"/>
            <path id="Path_420-2" data-name="Path 420" d="M21.791,4.03S26,3.276,26.678,5.909s-.3,6.167,2.784,5.641c0,0,2.236.451.806,3.987,0,0,4.233-4.062,1.751-6.995-2.031-2.394-1.2-7.6-6.167-8.426S21.791,3.05,21.791,4.03Z" transform="translate(-4.584 0.001)" fill="#965450"/>
            <path id="Path_421-2" data-name="Path 421" d="M21.719,4.319c.3,0,.573,0,.857.027s.566.056.848.1a6.246,6.246,0,0,1,1.649.505A3.227,3.227,0,0,1,26.442,6.1a2.559,2.559,0,0,1,.341.848,6.092,6.092,0,0,1,.1.857,16.472,16.472,0,0,1,0,1.67,15.117,15.117,0,0,0,0,1.629,3.511,3.511,0,0,0,.131.776,1.5,1.5,0,0,0,.363.643,1.385,1.385,0,0,0,.677.345,2.92,2.92,0,0,0,.8.056h.014a2.356,2.356,0,0,1,.487.133,1.713,1.713,0,0,1,.438.248,1.061,1.061,0,0,1,.3.388,1.024,1.024,0,0,1,.086.483,1,1,0,0,0-.12-.465,1.049,1.049,0,0,0-.323-.345,1.7,1.7,0,0,0-.431-.2,2.089,2.089,0,0,0-.465-.09h.014a3.145,3.145,0,0,1-.848,0,1.638,1.638,0,0,1-.8-.357,1.722,1.722,0,0,1-.5-.756,3.809,3.809,0,0,1-.185-.839,15.426,15.426,0,0,1-.07-1.67c0-.548,0-1.094-.052-1.629a5.3,5.3,0,0,0-.117-.778,1.986,1.986,0,0,0-.291-.663,2.751,2.751,0,0,0-1.16-.914,6.092,6.092,0,0,0-1.5-.431q-.393-.065-.792-.095c-.264-.018-.537-.029-.792-.023Z" transform="translate(-4.583 -0.911)" fill="#965450"/>
          </g>
        </g>
      </g>
    </g>
    <g id="Group_29" data-name="Group 29" transform="translate(465.183 2130.85)">
      <g id="Ellipse_40" data-name="Ellipse 40" transform="translate(-0.183 0.15)" fill="#f3ecb0" stroke="#f5f1f6" stroke-width="2">
        <circle cx="22" cy="22" r="22" stroke="none"/>
        <circle cx="22" cy="22" r="23" fill="none"/>
      </g>
      <text id="_10" data-name="+10" transform="translate(10.817 26.15)" fill="#7262af" font-size="13" font-family="Nunito-ExtraBold, Nunito" font-weight="800"><tspan x="0" y="0">+10</tspan></text>
    </g>
  </g>
</svg>
