<svg xmlns="http://www.w3.org/2000/svg" xmlns:xlink="http://www.w3.org/1999/xlink" width="140.849" height="140.849" viewBox="0 0 140.849 140.849">
  <defs>
    <clipPath id="clip-path">
      <path id="Path_522" data-name="Path 522" d="M0,0H55.126V55.126H0Z" fill="#7586ff"/>
    </clipPath>
  </defs>
  <g id="piano-icon" transform="translate(0 0)">
    <path id="Path_518" data-name="Path 518" d="M120.222,20.627a70.425,70.425,0,0,0-99.6,99.6,70.425,70.425,0,0,0,99.6-99.6Zm-49.8,114.611a64.813,64.813,0,1,1,64.813-64.813A64.887,64.887,0,0,1,70.425,135.238Z" fill="#7586ff"/>
    <path id="Path_519" data-name="Path 519" d="M100.738,154.047a53.37,53.37,0,0,1-53.309-53.309,2.806,2.806,0,1,0-5.611,0,58.988,58.988,0,0,0,58.921,58.921,2.806,2.806,0,0,0,0-5.611Zm48.427-86.883a58.843,58.843,0,0,0-26.92-21.3A2.806,2.806,0,0,0,120.2,51.09a53.019,53.019,0,0,1,33.852,49.648,2.806,2.806,0,1,0,5.611,0A58.577,58.577,0,0,0,149.164,67.164ZM107.51,42.2a59.768,59.768,0,0,0-6.773-.385,2.806,2.806,0,1,0,0,5.611,54.072,54.072,0,0,1,6.134.349,2.806,2.806,0,0,0,.639-5.575Z" transform="translate(-30.313 -30.313)" fill="#7586ff"/>
    <g id="svgexport-17_10_" data-name="svgexport-17 (10)" transform="translate(42.862 42.861)">
      <g id="Group_94" data-name="Group 94" clip-path="url(#clip-path)">
        <path id="Path_521" data-name="Path 521" d="M55.126,21.821A17.245,17.245,0,0,0,37.9,4.594C29.479,4.594,24.958.365,24.915.322a1.158,1.158,0,0,0-.8-.322H10.336A1.148,1.148,0,0,0,9.3,1.633l8.131,17.422a1.146,1.146,0,0,0,2,.152l4.13-6.193A1.178,1.178,0,0,1,25.14,12.7a1.15,1.15,0,0,1,.322,1.594L12.017,34.454H8.039A1.148,1.148,0,0,0,6.891,35.6a5.75,5.75,0,0,1-5.742,5.742A1.148,1.148,0,0,0,0,42.493v4.594a1.148,1.148,0,0,0,1.148,1.148H9.188v5.742a1.148,1.148,0,0,0,2.3,0V48.235H39.048v5.742a1.148,1.148,0,0,0,2.3,0V48.235h8.039a1.148,1.148,0,0,0,1.148-1.148V35.6a1.148,1.148,0,0,0-1.148-1.148H47.578C51.162,31.959,55.126,27.549,55.126,21.821ZM20.562,25.778l4.049,8.675H14.778Z" fill="#7586ff"/>
      </g>
    </g>
  </g>
</svg>
