<svg xmlns="http://www.w3.org/2000/svg" width="98.873" height="101" viewBox="0 0 98.873 101">
  <g id="prize-icon" transform="translate(-0.296)">
    <path id="Path_513" data-name="Path 513" d="M.3,94.288l1.309,2.947L48.587,77.755l8.185.982,2.946,9-3.929,3.765a4.718,4.718,0,0,0-1.145,5.4L56.281,101,83.454,90.36l-1.473-3.929a4.628,4.628,0,0,0-4.583-3.11H72l-2.946-7.039,7.2-3.6a4.919,4.919,0,0,0,2.455-6.057L69.377,41.578a5.043,5.043,0,0,0-6.385-2.947.16.16,0,0,0-.163.164l-6.875,2.947-.982-2.455,3.765-4.419A19.266,19.266,0,0,0,63.484,24.39l4.747-5.729A8.6,8.6,0,0,0,67.084,6.546a13.7,13.7,0,0,0-1.964-1.309,8.135,8.135,0,0,0-5.566-.491l-.491-1.474A4.734,4.734,0,0,0,52.843.326L18.3,12.767a4.791,4.791,0,0,0-2.946,6.22v.164l.818,2.128a9.07,9.07,0,0,0-4.748,11.132,9.31,9.31,0,0,0,7.53,6.056l7.694.818a21.316,21.316,0,0,0,10.64,4.092l5.4.492.982,2.455A4.876,4.876,0,0,0,41.384,49.6l-1.146,5.566L.3,71.371l1.146,3.11L24.36,65.314l5.566,16.7Zm78.411-6.875.327.982L58.081,96.744l-.491-.982a2.271,2.271,0,0,1,.328-1.8l5.566-5.239,7.039-2.292H77.07a1.642,1.642,0,0,1,1.637.982ZM68.394,83.484,62.5,85.449l-2.128-6.22a3.639,3.639,0,0,0,2.619-.492l2.783-1.309ZM63.974,41.25a1.624,1.624,0,0,1,2.128.818l1.309,3.438-8.021,2.619.982,3.11,8.021-2.619,1.964,5.239-7.693,2.619.982,3.111L71.5,56.966,73.469,62.2l-7.53,2.455.982,3.111,7.693-2.619.818,2.128a1.445,1.445,0,0,1-.818,1.965L61.682,75.627a2.076,2.076,0,0,1-.982.164l-11.131-1.31-6.057-18.17,1.146-6.057a1.731,1.731,0,0,1,.982-1.146ZM63.81,8.183a5.423,5.423,0,0,1,2.783,7.04,5.734,5.734,0,0,1-.818,1.309L63.81,18.987a24.459,24.459,0,0,0-.982-4.747L60.7,7.856a6.544,6.544,0,0,1,3.11.327ZM14.7,31.593a5.639,5.639,0,0,1,2.783-7.04l2.292,5.566a23.7,23.7,0,0,0,3.274,5.566l-3.438-.328A5.475,5.475,0,0,1,14.7,31.593Zm23.245,8.676a17.89,17.89,0,0,1-15.061-11.3l-4.256-10.8a1.624,1.624,0,0,1,.818-2.128L53.988,3.6a1.807,1.807,0,0,1,1.31,0,1.678,1.678,0,0,1,.818.982l3.6,10.8a17.993,17.993,0,0,1-3.437,17.351l-5.075,5.893,1.473,3.929-5.893,2.455-1.637-4.092ZM27.47,64l3.765-1.473,4.092,12.441,3.11-.982L34.182,61.222,40.73,58.6,46.3,75.136,33.036,80.7ZM81.162,28.645v1.637h3.274V28.645a8.106,8.106,0,0,1,8.185-8.185V17.187A8.105,8.105,0,0,1,84.436,9V7.365H81.162V9a8.1,8.1,0,0,1-8.185,8.185v3.274A8.105,8.105,0,0,1,81.162,28.645ZM82.8,14.895a11.282,11.282,0,0,0,3.929,3.929A11.287,11.287,0,0,0,82.8,22.753a11.289,11.289,0,0,0-3.929-3.929A11.28,11.28,0,0,0,82.8,14.895Zm0,0" transform="translate(0 0)" fill="#02241a"/>
    <path id="Path_514" data-name="Path 514" d="M11.681,93.194v1.637h3.274V93.194a8.106,8.106,0,0,1,8.185-8.185V81.735a8.105,8.105,0,0,1-8.185-8.185V71.913H11.681V73.55A8.1,8.1,0,0,1,3.5,81.735v3.274a8.105,8.105,0,0,1,8.185,8.185Zm1.637-13.75a11.282,11.282,0,0,0,3.929,3.929A11.287,11.287,0,0,0,13.318,87.3a11.289,11.289,0,0,0-3.929-3.929A11.28,11.28,0,0,0,13.318,79.443ZM93.529,73.55V71.913H90.256V73.55a8.1,8.1,0,0,1-8.185,8.185v3.274a8.105,8.105,0,0,1,8.185,8.185v1.637h3.274V93.194a8.106,8.106,0,0,1,8.185-8.185V81.735A8.105,8.105,0,0,1,93.529,73.55ZM91.893,87.3a11.289,11.289,0,0,0-3.929-3.929,11.28,11.28,0,0,0,3.929-3.929,11.282,11.282,0,0,0,3.929,3.929A11.287,11.287,0,0,0,91.893,87.3ZM51.46,60.946l2.292,2.292c9-9,.655-22.754.164-23.245l-2.783,1.8C51.3,41.793,58.662,53.743,51.46,60.946Zm0,0" transform="translate(-2.545 -31.809)" fill="#02241a"/>
  </g>
</svg>
