<svg id="stat-container" xmlns="http://www.w3.org/2000/svg" xmlns:xlink="http://www.w3.org/1999/xlink" width="1529.678" height="736.313" viewBox="0 0 1529.678 736.313">
  <defs>
    <clipPath id="clip-path">
      <rect id="Rectangle_26" data-name="Rectangle 26" width="1529.678" height="736.313" fill="none"/>
    </clipPath>
  </defs>
  <g id="Group_73" data-name="Group 73" clip-path="url(#clip-path)">
    <path id="Path_507" data-name="Path 507" d="M683.877,682.917a49.1,49.1,0,0,0,9.707,27.237,2.367,2.367,0,0,0,1.854.911l141.622-.377a2.4,2.4,0,0,0,1.948-1.037,52.6,52.6,0,0,0,8.388-28.714,46.277,46.277,0,0,0-9.519-26.609,2.37,2.37,0,0,0-1.852-.911H692.83a2.4,2.4,0,0,0-2.011,1.131,50.713,50.713,0,0,0-6.942,28.369m39.646,10.524a9.221,9.221,0,0,1-6.815-4.807,14.033,14.033,0,0,1-.473-12.027,9.527,9.527,0,0,1,7.32-5.749v22.583Zm4.713-35.343h73.672V706.07l-73.67.189Zm78.382,12.629a8.921,8.921,0,0,1,8.7,4.273,14.377,14.377,0,0,1,.848,13.1c-1.759,3.864-5.467,6.315-9.017,5.906a2.536,2.536,0,0,0-.5.032V670.727Zm36.067,10.3a47.443,47.443,0,0,1-6.944,24.912l-29.123.1v-7.357c.409.032.817.063,1.194.063,5.121,0,10.179-3.424,12.6-8.671a19.071,19.071,0,0,0-1.162-17.655,13.719,13.719,0,0,0-12.661-6.472v-7.885H834.8a41.535,41.535,0,0,1,7.884,22.965M694.181,658.1h29.342v8.1a14.2,14.2,0,0,0-11.592,8.519,18.61,18.61,0,0,0,.66,16.273,13.851,13.851,0,0,0,10.932,7.2v8.1l-26.954.063a44.534,44.534,0,0,1-8.011-23.651,46.615,46.615,0,0,1,5.623-24.6" fill="#7586ff"/>
    <path id="Path_508" data-name="Path 508" d="M737.064,689.388a2.382,2.382,0,0,0,2.168,2.325c5.906.44,11.718.628,17.5.628,9.425,0,18.756-.471,28.432-.942l3.675-.189a2.358,2.358,0,0,0,2.229-2.1c.6-5.183,1.068-12.346.157-16.964a2.372,2.372,0,0,0-2.2-1.885c-8.451-.377-16.933-.189-25.1.031-8.106.22-16.462.408-24.756.031a2.364,2.364,0,0,0-2.479,2.245c0,.047,0,.095,0,.142.031,2.7.094,5.529.189,8.357s.157,5.654.188,8.324m6.472-47.721h50.893a2.356,2.356,0,0,0,0-4.712H743.536a2.356,2.356,0,1,0,0,4.712m-59.847.346a2.422,2.422,0,0,0,2.261-1.383,4.757,4.757,0,0,0,.535-2.984,3.431,3.431,0,0,0-1.917-2.388,2.99,2.99,0,0,0-2.733.1,2.681,2.681,0,0,0-1.382,2.1,3.5,3.5,0,0,0,.155,2.449,3.344,3.344,0,0,0,3.079,2.105m163.582-3.582h.565a2.307,2.307,0,0,0,1.7-.911,3.273,3.273,0,0,0,.408-.722,2.9,2.9,0,0,0-.063-2.451,2.609,2.609,0,0,0-.722-.848,2.334,2.334,0,0,0-1.288-.6.715.715,0,0,1-.252-.031,2.819,2.819,0,0,0-2.513,1.665,2.373,2.373,0,0,0-.22,1.225,2.685,2.685,0,0,0,.252,1.1,2.481,2.481,0,0,0,2.135,1.574Zm-1.257,78.54a2.7,2.7,0,0,0-1.979,1.508,2.465,2.465,0,0,0-.22,1.1,2.836,2.836,0,0,0,.723,2.23,2.761,2.761,0,0,0,2.073.911h.283a2.407,2.407,0,0,0,1.885-1.288,3.227,3.227,0,0,0-.786-3.864,2.306,2.306,0,0,0-1.977-.6Zm-158.964.754a2.314,2.314,0,0,0-2.231.44,2.35,2.35,0,0,0-.3,3.311l.016.019.628.754a2.331,2.331,0,0,0,1.508.817c.094,0,.22.031.314.031a2.738,2.738,0,0,0,1.917-4.649,2.267,2.267,0,0,0-1.852-.722Z" fill="#7586ff"/>
    <path id="Path_509" data-name="Path 509" d="M859.366,712.322c-.409-3.707-.566-7.351-.817-10.964l.031-65.408c0-2.2,0-5.843-2.356-8.388-2.513-2.67-6.063-2.8-8.953-2.89-.723-.031-1.445-.031-2.137-.126a81.439,81.439,0,0,0-11.781-.314c-2.551.2-3.551.2-4.461,1.665a2.474,2.474,0,0,0-.125,1.508l.157.5c-5.278.22-10.619.251-15.834.251-1.476,0-2.984,0-4.461.032a4.244,4.244,0,0,0-1.194-2.168c-1.319-1.225-2.921-1.131-4.618-1.037-.5.032-1.037.063-1.665.063l-11.749.063-16.934.094c-15.582.063-27.52-.031-38.641-.283a2.407,2.407,0,0,0-2.42,2.234l-.094,2.073-19.352-.188a5.075,5.075,0,0,0-2.074-2.985,8.787,8.787,0,0,0-5.089-1.162h-2.858c-2.482,0-14.012.377-14.7.471l-1.728.189c-3.55.345-8.293.816-10.932,4.555a5.823,5.823,0,0,0-2.173,2.639c-1.885,3.833-1.948,8.514-1.948,12.723q-.187,33.176-.345,66.288c-.032,5.435.031,11.184,2.953,15.771,2.607,4.115,7.225,6.66,11.969,7.791s9.708,1.036,14.577.942q71.346-1.508,142.691-2.984c4.492-.063,9.33-.283,12.912-2.985,6.032-4.555,4.838-11.592,4.147-17.97m-5.5,6.629a6.616,6.616,0,0,1-1.665,4.964c-2.639,2.513-8.482,2.167-13.635,1.885-1.665-.1-3.267-.189-4.712-.189-5.938,0-11.907,0-17.876.032-5.466.031-10.964.031-16.461.031-22.211.094-44.8.314-67.2.628-11.215.157-22.4.346-33.615.534-.848,0-1.728.063-2.67.1-6.252.251-14.043.565-16.714-4.367-1.036-1.948-1.068-4.556-1.068-6.88l-.314-76.529c0-.566-.031-1.194-.094-1.854-.094-1.382-.189-3.141.251-3.99,1.194-2.23,3.99-2.67,7.854-3.016l1.863-.193a91.2,91.2,0,0,1,11.4-.534H704.8a4.473,4.473,0,0,1,2.482.471,2.3,2.3,0,0,0-.189,2.168,2.371,2.371,0,0,0,2.168,1.476l24.284.252h.032a2.35,2.35,0,0,0,2.356-2.233l.094-2.042c10.524.22,21.928.283,36.474.22l16.964-.094,11.75-.063c.691,0,1.32-.032,1.885-.063.346-.031.754-.031,1.068-.031a6.19,6.19,0,0,1,.063.942,2.367,2.367,0,0,0,2.356,2.325h.032c2.2-.031,4.366-.031,6.565-.031,6.252-.032,12.692-.032,19.07-.409a2.341,2.341,0,0,0,2.1-3.016l-.157-.5a77.4,77.4,0,0,1,10.493.377,20.688,20.688,0,0,0,2.45.125c2.293.063,4.492.126,5.655,1.382,1.005,1.069,1.1,3.142,1.1,5.153Z" fill="#7586ff"/>
    <path id="Path_510" data-name="Path 510" d="M734.128,628.186c-3.73-7.024-27.378-8.194-35.35-9.369-7.6-.829-15.158-2.97-22.779-3.9-15.149-2.171-30.516-2.644-45.823-2.57a92.278,92.278,0,0,1-15.65-.922c-15.486-2.318-29.532-8.6-44.849-10.371l-3.716-.323c-1.239-.1-2.48-.079-3.719-.127-24.073.008-76.258.494-100.032.569-41.111-.607-82.992,4.344-123.559-5-16.37-3.7-32.084-9.5-48.139-14-43.528-11.619-88.82-3.387-133.4-5.732-28.584-1.525-56.071-10.965-83.346-18.648-24.137-6.63-48.941-8.934-60.592-35.225-9.073-19.63-9.194-41.493-9.292-62.383-.059-30.747-.094-92.441-.125-123.166.353-43.242-2.683-87.981.621-131.2.587-7.225,1.332-15.26.909-22.481-1.255-26.852-8.8-54.443-3.3-81.546C7.21,74.257,22.438,46.751,47.965,33.4c16.668-8.991,36.583-10.27,54.935-9.491,10.305.4,20.459,1.415,30.722,1.725a285.783,285.783,0,0,0,45.342-1.74c30.506-4.977,61.939-5.138,92.773-4.7A1137,1137,0,0,1,441.05,33.732c30.5,5.088,60.225,14.953,90.008,21.989,4.946,1.179,9.9,2.245,14.866,3.25,14.515,2.761,29.274.655,43.719-2.774,19.532-4.738,38.49-12.327,57.9-19.331C667.15,29.979,686.923,23.7,707.3,19.55c20.586-4.195,42.43-5.877,62.942-.964,15.388,3.472,29.822,7.891,44.955,11.422,14.825,3.851,29.607,8.663,44.435,11.843,39.743,8.773,80.842,1.085,119.893-8.3,14.851-3.291,45.131-10.319,60.008-13.639C1073.59,13.091,1107.042-.3,1142.267,0c37.688.785,73.93,14.266,109.834,23.528a315.769,315.769,0,0,0,59.937,9.863c30.428,2.184,61.138.491,91.474-2.911,20.745-2.5,41.808-5.6,62.559-.425a72.169,72.169,0,0,1,25.639,11.8,78.57,78.57,0,0,1,14.629,13.863c16.828,20.722,24.133,48,23.271,74.419-.446,20.31-5.521,41.238-7.72,61.341-1.052,9.855-.557,19.937.365,30.049,1.165,12.637,3,25.618,3.478,38.507a1071.839,1071.839,0,0,1-1.8,115.76c-3.292,30.808,2.993,60.906,2.338,92.082-.253,31.933-11.659,65.045-41.456,80.8-18.576,10.118-39.69,13.217-60.265,15.722-20.325,2.483-40.857,3.613-60.908,7.519-27.927,4.782-53.2,20.4-81.9,21.795-32.565.25-83.491-.647-115.563-.558-25.644.194-51.179,1.968-76.875,2.755-20.684.772-41.263-1.287-61.677-2.81a525.219,525.219,0,0,0-61.354-1.051c-25.588.907-51.146,3.194-76.6,6.085-15.241,1.868-30.809,1.918-45.9,4.408a86.411,86.411,0,0,0-14.709,3.63,63.53,63.53,0,0,0-13.274,7.174c-8.506,5.743-16.532,12.542-26.235,16.4l-.734-1.861a70.185,70.185,0,0,0,13.2-7.413c8.477-5.816,16.441-12.727,26.238-16.454,14.727-5.184,30.518-5.745,45.84-7.054,30.663-3.027,61.214-7.067,92.059-8.124a527.548,527.548,0,0,1,61.728.751c20.5,1.432,40.909,3.367,61.3,2.5,25.594-.907,51.276-2.817,76.961-3.134,29.009.03,78.61.018,107.8.111,20.572.717,39.634-6.844,58.748-13.785,19.4-7.29,40.131-10.8,60.637-12.945,37.893-4.9,86.057-4.394,110.709-38.026,27.349-39.287,11.481-88.894,12.562-133.443.053-4.394.571-11.017.881-15.519,2.067-30.624,2.711-61.342,2.092-92.03-.169-10.024-.507-20.562-1.158-30.575-1.563-20.513-5.7-41.115-3.606-61.99,2.808-25.386,9.349-50.182,7-75.759-3.026-33.715-22.45-69.406-57.552-77.494-19.552-4.816-40.049-1.671-59.849.754-51.247,5.98-104.136,6.695-154.34-6.769-35.278-9.018-69.508-21.637-106-22.984-29.768-.67-58.464,9.584-87.532,16.447-21.45,4.843-53.531,12.312-75.094,17.194-40.118,9.747-82.574,17.526-123.669,8.5-17.783-3.8-34.634-9.575-52.2-13.682-29.911-7.283-49.953-15.716-81.569-10.846C698.889,29.5,674.532,37.29,650.7,45.645c-19.17,6.937-38.427,14.715-58.837,19.71-15.35,3.71-31.884,5.986-47.77,2.933-5.1-1.024-10.178-2.109-15.218-3.3-30.13-7.1-59.076-16.747-89.4-21.817-10.036-1.629-20.184-3.143-30.3-4.474A1155.243,1155.243,0,0,0,225.683,29.15c-10.131.371-20.242,1.055-30.284,2.294-20.527,3.179-41.366,4.844-62.117,3.911-20.027-.654-40.674-3.764-60.386-.19C42.381,40.258,22.735,64.148,14.2,92.88A107.722,107.722,0,0,0,9.83,121.906c-.319,22.917,5.812,45.79,5.385,69.025.014,2.665-.215,5.349-.387,8.028-2.332,25.381-2.45,50.818-2.057,76.415.8,56.707.724,127.851.556,184.814.119,23.325-.3,51.885,15.754,70.072,10.451,10.678,25,13.1,39.566,16.93,19.487,5.085,39.6,12.129,59.2,16.372,19.875,4.683,39.874,5.278,60.229,4.9,35.785-.49,73.273-3.166,108.2,7.51,24.258,7.535,48.347,16.408,73.846,18.055,30.406,2.389,61.472.679,92.083,1.167,18.94,0,72.6.514,92.374.558,5.047.091,10.581-.042,15.655.66,15.36,1.912,29.94,8.56,44.916,11.031,1.985.368,5.369.715,7.452.9,7.659.277,15.369.232,23.029.579a261.757,261.757,0,0,1,30.828,2.929c7.665,1.057,14.955,3.327,22.655,4.3,7.459,1.025,15.583,1.924,22.909,3.664,3.818.94,7.754,2.029,11.093,4.289a8.122,8.122,0,0,1,2.85,3.3Z" fill="#7586ff"/>
  </g>
</svg>
