<svg xmlns="http://www.w3.org/2000/svg" width="700.849" height="436.212" viewBox="0 0 700.849 436.212">
  <g id="tape-body" transform="translate(0 -70.621)">
    <path id="Path_533" data-name="Path 533" d="M664.623,506.833H36.227C16.217,506.833,0,492.9,0,475.7V101.758c0-17.2,16.217-31.137,36.227-31.137H664.635c20,0,36.214,13.938,36.214,31.137V475.707C700.849,492.9,684.633,506.833,664.623,506.833Z" fill="#aed2ff"/>
    <path id="Path_538" data-name="Path 538" d="M186.829,403.117H157.421a7.352,7.352,0,1,1,0-14.7h29.407a7.352,7.352,0,0,1,0,14.7Zm132.334,0H289.755a7.352,7.352,0,1,1,0-14.7h29.407a7.352,7.352,0,1,1,0,14.7Zm-66.167,0H223.588a7.352,7.352,0,1,1,0-14.7H253a7.352,7.352,0,1,1,0,14.7Z" transform="translate(112.133 73.299)" fill="#e9f6ff"/>
  </g>
</svg>
