<svg xmlns="http://www.w3.org/2000/svg" xmlns:xlink="http://www.w3.org/1999/xlink" width="104.195" height="104.195" viewBox="0 0 104.195 104.195">
  <defs>
    <clipPath id="clip-path">
      <path id="Path_512" data-name="Path 512" d="M0-682.665H104.195V-578.47H0Z" transform="translate(0 682.665)" fill="none"/>
    </clipPath>
  </defs>
  <g id="teacher-icon" transform="translate(0 -0.002)">
    <g id="Group_75" data-name="Group 75" transform="translate(0 0.002)" clip-path="url(#clip-path)">
      <path id="Path_511" data-name="Path 511" d="M-388.736-172.061c0-11.874-6.105-8.839-6.105-19.189,0,0-1.948,3.446-3.6,3.446-3.087,0-11.406-7.1-18.85-7.1a15.449,15.449,0,0,0-10.353,3.653c0,10.35-6.105,5.056-6.105,19.189m-5.928,26.686v1.795m3.827,0H-443.5a.892.892,0,0,0-.666.3.891.891,0,0,0-.219.7l1.032,8.858a.892.892,0,0,0,.886.788h5.589a.891.891,0,0,0,.885-.788l1.032-8.858a.891.891,0,0,0-.22-.7A.891.891,0,0,0-435.846-143.581Zm-6.693,10.64a4.571,4.571,0,0,0-1.713,3.571v9.38m9.158-1.152v-8.227a4.571,4.571,0,0,0-1.712-3.571m5.708,18.221-11.961,1.82m0,6.919,11.961-1.82m.074,5.89v-14.481a4.308,4.308,0,0,0-3.431-4.213c-4.923-1.032-9.674.78-12.388,2.168a4.285,4.285,0,0,0-2.322,3.819v12.707m37.924-9.259v9.259m7.247-27.065,5.433,9.6s3.256-7.173,3.256-13.4c0-5.126-2.642-7.253-3.161-7.622m34.741,38.49c0-4.611-2.894-20.337-8.6-24.753m-5.317-2.561c-3.386-1.29-7.612-2.613-11.093-3.722a20.761,20.761,0,0,1-7.084-3.546m-28.2-3.9c-.532.38-3.156,2.51-3.156,7.618,0,6.226,3.256,13.4,3.256,13.4l5.478-9.841m26.986-51.73a12.432,12.432,0,0,0-6.813-1.561c-3.253,0-6.27.577-8.188,2.007m-9.567,0c-1.919-1.43-4.935-2.007-8.188-2.007a12.432,12.432,0,0,0-6.813,1.561m17.034,11.926c.825-5.474-4.307-7.381-10.221-7.381s-9.533,2.071-9.533,7.209,3.618,8.657,9.533,8.657S-414.816-163.551-413.991-169.025Zm4.26,11.173c3.223-1.272,3.718-2.636,2.968-4.962l-1.864-5.782a2.771,2.771,0,0,0-5.226,0l-1.864,5.782c-.75,2.326-.255,3.69,2.968,4.962A4.062,4.062,0,0,0-409.731-157.852Zm11.462-2.688c5.914,0,9.533-3.519,9.533-8.657s-3.618-7.209-9.533-7.209-11.046,1.907-10.221,7.381,4.307,8.485,10.221,8.485Zm9.327,2.792c3.937,0,6.792-4.193,6.792-9.3,0-4.38-2.326-5.924-3.842-5.924a2.744,2.744,0,0,0-2.744,2.744m-45.009,0a2.744,2.744,0,0,0-2.744-2.744c-1.516,0-3.842,1.545-3.842,5.924,0,5.108,2.854,9.3,6.792,9.3m32-12.489v3.081m-19.4-3.081v3.081m-5.713,30.655a20.68,20.68,0,0,1-7.093,3.554l-2.285.727m-8.292,2.8a25.676,25.676,0,0,0-5.832,2.755c-5.707,4.416-8.6,20.143-8.6,24.753m38.9-49.3a15.269,15.269,0,0,0,17.239,0m-21.305,10.875a13.239,13.239,0,0,0,5.563,10.971l2.1,5.352m2.056,5.251,2.971,7.589,7.123-18.026c2.082-1.163,5.519-4.964,5.563-11.146M-422.189-201.4a36.391,36.391,0,0,1,10.948-1.649c12.429,0,22.5,6.055,22.5,11.8v30.325c0,13.209-10.8,25.335-22.5,25.335s-22.5-12.127-22.5-25.335V-191.25c0-2.514,1.927-5.086,5.135-7.185" transform="translate(463.338 204.579)" fill="none" stroke="#02241a" stroke-linecap="round" stroke-linejoin="round" stroke-miterlimit="10" stroke-width="3"/>
    </g>
  </g>
</svg>
