<svg xmlns="http://www.w3.org/2000/svg" width="77.242" height="77.285" viewBox="0 0 77.242 77.285">
  <path id="testimonial-icon" d="M131.664,263.514A38.643,38.643,0,1,0,93.043,224.85,38.752,38.752,0,0,0,131.664,263.514Zm-7.5-60.912v6.819a7.5,7.5,0,1,0,15,0V202.6a23.588,23.588,0,0,1,14.78,14.842h-6.756a7.5,7.5,0,0,0,0,15h6.693A23.59,23.59,0,0,1,139.164,247.1v-6.632a7.5,7.5,0,0,0-15,0V247.1a23.594,23.594,0,0,1-14.717-14.655h6.694a7.5,7.5,0,1,0,0-15h-6.757a23.588,23.588,0,0,1,14.78-14.842Z" transform="translate(-93.043 -186.229)" fill="#e9f6ff"/>
</svg>
