<svg id="time-icon" xmlns="http://www.w3.org/2000/svg" width="39.837" height="39.837" viewBox="0 0 39.837 39.837">
  <path id="Path_558" data-name="Path 558" d="M244.809,132.973l-5.554-4.166v-8.486a1.543,1.543,0,0,0-3.086,0v9.257a1.54,1.54,0,0,0,.617,1.234l6.171,4.629a1.543,1.543,0,0,0,1.852-2.469Z" transform="translate(-217.793 -109.537)" fill="#7586ff"/>
  <path id="Path_559" data-name="Path 559" d="M19.919,0A19.919,19.919,0,1,0,39.837,19.919,19.94,19.94,0,0,0,19.919,0Zm0,36.751A16.833,16.833,0,1,1,36.751,19.919,16.853,16.853,0,0,1,19.919,36.751Z" fill="#7586ff"/>
</svg>
