<svg id="title-icon-l" xmlns="http://www.w3.org/2000/svg" xmlns:xlink="http://www.w3.org/1999/xlink" width="47.479" height="81.351" viewBox="0 0 47.479 81.351">
  <defs>
    <clipPath id="clip-path">
      <rect id="Rectangle_19" data-name="Rectangle 19" width="47.479" height="81.351" fill="#dbdffd"/>
    </clipPath>
  </defs>
  <g id="Group_51" data-name="Group 51" clip-path="url(#clip-path)">
    <path id="Path_392" data-name="Path 392" d="M79.781,0C77.8.243,59.723,3.046,54.084,25.236a.031.031,0,0,0,.037.038l3.393-.814a.03.03,0,0,0,.023-.024c.115-.6,3.084-15.191,22.26-24.377A.03.03,0,0,0,79.781,0" transform="translate(-37.236 0)" fill="#dbdffd"/>
    <path id="Path_393" data-name="Path 393" d="M35.141,0c0,.009.018.021.025.028.024.028.047.056.069.084q.055.069.107.139.071.1.137.193.083.122.161.247.092.147.177.3.1.173.186.351.1.2.188.4.1.223.183.451.093.247.171.5.084.271.151.547.072.3.125.594.056.318.091.64.037.342.05.685.014.365,0,.729-.013.387-.053.773-.043.409-.116.815-.077.431-.185.856-.115.453-.262.9-.156.474-.346.936-.2.495-.436.975-.251.515-.535,1.013-.3.534-.64,1.05-.36.554-.752,1.086-.42.572-.872,1.121-.484.59-1,1.155-.552.607-1.132,1.188-.623.624-1.273,1.22-.7.64-1.421,1.251-.776.656-1.576,1.282c-.539.422-1.1.822-1.627,1.254-.141.115-.28.233-.423.346q-.155.122-.313.241-.188.142-.378.281-.221.161-.445.318-.255.179-.514.353-.29.2-.583.386-.325.211-.654.416-.361.225-.727.444-.4.238-.8.469-.435.25-.875.493-.473.261-.951.513-.512.27-1.029.531-.551.278-1.108.547-.591.285-1.188.56-.632.291-1.269.57-.673.3-1.352.579-.716.3-1.436.584-.758.3-1.522.587-.8.3-1.608.588-.845.3-1.7.587-.89.3-1.786.583-.936.3-1.876.576-.982.292-1.968.567l-.186.052a.028.028,0,0,1-.035-.019c-.09-.331-.523-3.816,18.283-11.05,0,0,21.219-9.036,16.84-22.862" transform="translate(10.51)" fill="#dbdffd"/>
    <path id="Path_394" data-name="Path 394" d="M181.812,171.943c.026.525.184,7.131-8.676,6.891a.044.044,0,0,1-.043-.049c.087-.673,1.236-8.241,8.682-6.881a.042.042,0,0,1,.036.039" transform="translate(-150.022 -156.178)" fill="#dbdffd"/>
    <path id="Path_395" data-name="Path 395" d="M281.755,435.706c.009.549.211,10.542,2.762,17.54a.019.019,0,0,1-.012.025l-3.426,1.1a.019.019,0,0,1-.023-.01c-.138-.287-2.238-4.85-3.176-17.69a.019.019,0,0,1,.015-.02l3.837-.959a.019.019,0,0,1,.024.018" transform="translate(-262.219 -396.206)" fill="#dbdffd"/>
    <path id="Path_396" data-name="Path 396" d="M124.893,695.426a46.373,46.373,0,0,0,12.056,18.283.021.021,0,0,1-.023.034c-1.17-.636-9.193-5.323-15.211-17.345a.021.021,0,0,1,.013-.03l3.14-.956a.021.021,0,0,1,.026.013" transform="translate(-100.506 -632.396)" fill="#dbdffd"/>
    <path id="Path_397" data-name="Path 397" d="M168.043,267.855a.029.029,0,0,0-.043-.04,19.778,19.778,0,0,1-2.062,1.6,44.969,44.969,0,0,1-4.663,2.787,80.318,80.318,0,0,1-7.844,3.565q-2.454.973-4.952,1.829c-3.124,1.076-6.285,1.917-9.008,3.864a16.286,16.286,0,0,0-4.692,5.173,16.956,16.956,0,0,0-2.057,6.3,19.466,19.466,0,0,0,.355,6.657,20.426,20.426,0,0,0,2.545,6.232,18.861,18.861,0,0,0,4.512,5.029,17.341,17.341,0,0,0,3.851,2.242.03.03,0,0,0,.029-.052,24.5,24.5,0,0,1-4.58-4.406,17.739,17.739,0,0,1-4.125-9.514,14.11,14.11,0,0,1,.837-6.24,12.679,12.679,0,0,1,3.936-5.063,53.676,53.676,0,0,1,6.7-5.013,52.986,52.986,0,0,1,8.46-4.045c4.657-1.875,8.123-5,11.247-8.9q.794-.99,1.55-2.009" transform="translate(-132.585 -243.539)" fill="#dbdffd"/>
    <path id="Path_398" data-name="Path 398" d="M255.775,758.824s8.129-.138,10.092-1.513a.015.015,0,0,1,.023.005l1.364,2.455a.016.016,0,0,1-.012.024c-.558.043-10.525.778-11.467-.971" transform="translate(-242.955 -688.683)" fill="#dbdffd"/>
    <path id="Path_399" data-name="Path 399" d="M216.457,479.453a.024.024,0,0,0-.038-.018c-.575.449-7.64,6.168-4.186,13.609,3.6,7.753,15.367,6.507,17.167.138,1.7-6.027-3.289-7.342-3.83-7.466a.023.023,0,0,0-.026.033c.231.469,2.214,4.683.255,7.295-2.077,2.769-10.384,3.046-11.076-3.876a10.2,10.2,0,0,1,1.8-6.778.023.023,0,0,0,0-.013Z" transform="translate(-201.42 -435.985)" fill="#dbdffd"/>
    <path id="Path_400" data-name="Path 400" d="M126.185,477.757a.026.026,0,0,1,0-.032c.343-.362,7.134-7.64,5.109-14.523-2.072-7.043-7.863-8.989-11.189-8.862a.026.026,0,0,1-.027-.024l-.2-2.094a.026.026,0,0,1,.024-.029c.52-.036,8.427-.488,12.71,5.4,4.43,6.092,3.461,11.076,1.108,15.506a22.364,22.364,0,0,1-6.068,7.044.027.027,0,0,1-.038-.008Z" transform="translate(-99.094 -411.198)" fill="#dbdffd"/>
  </g>
</svg>
