<svg xmlns="http://www.w3.org/2000/svg" width="140.849" height="140.849" viewBox="0 0 140.849 140.849">
  <g id="violin-icon" transform="translate(0 0)">
    <path id="Path_518" data-name="Path 518" d="M120.222,20.627a70.425,70.425,0,0,0-99.6,99.6,70.425,70.425,0,0,0,99.6-99.6Zm-49.8,114.611a64.813,64.813,0,1,1,64.813-64.813A64.887,64.887,0,0,1,70.425,135.238Z" fill="#7586ff"/>
    <path id="Path_519" data-name="Path 519" d="M100.738,154.047a53.37,53.37,0,0,1-53.309-53.309,2.806,2.806,0,1,0-5.611,0,58.988,58.988,0,0,0,58.921,58.921,2.806,2.806,0,0,0,0-5.611Zm48.427-86.883a58.843,58.843,0,0,0-26.92-21.3A2.806,2.806,0,0,0,120.2,51.09a53.019,53.019,0,0,1,33.852,49.648,2.806,2.806,0,1,0,5.611,0A58.577,58.577,0,0,0,149.164,67.164ZM107.51,42.2a59.768,59.768,0,0,0-6.773-.385,2.806,2.806,0,1,0,0,5.611,54.072,54.072,0,0,1,6.134.349,2.806,2.806,0,0,0,.639-5.575Z" transform="translate(-30.313 -30.313)" fill="#7586ff"/>
    <g id="svgexport-17_14_" data-name="svgexport-17 (14)" transform="translate(2.378 16.238)">
      <path id="Path_529" data-name="Path 529" d="M96.338,35.677a.988.988,0,0,1-1.4,0l-1.053-1.052,1.139-1.661,1.313,1.313A.989.989,0,0,1,96.338,35.677Zm-3.656.7-1.139,1.662,1.173,1.173a.99.99,0,0,0,1.4-1.4Zm-.754-8.09-1.972,1.275a.05.05,0,0,1-.013.008l-3.485,2.256-.02.012-1.622,1.049.832.833L88.62,36.7l.857.855,1.1-1.6,2.34-3.412.015-.021,1.315-1.917Zm-8.8-.062a.99.99,0,0,0,0,1.4l1.21,1.21,1.7-1.1L84.528,28.23a.989.989,0,0,0-1.4,0Zm4.939-2.223a.99.99,0,1,0-1.4,1.4l1.172,1.172,1.7-1.1ZM84.9,35.771,69.057,50.439l-2.235,2.07,3.016,3.01,2.05-2.212c.012-.015.025-.029.038-.042L86.574,37.45Zm.017,47.62-4.248-7.357L78.78,72.769l-4.666-8.083a8.118,8.118,0,0,1-1.334,1.649L76.57,72.9l-1.55.895-3.68-6.374a8.465,8.465,0,0,1-1.208.591,3.025,3.025,0,0,1-.235.871l3.9,6.76,1.885,3.264a.99.99,0,0,0,1.352.363l2.408-1.39,3.753,6.5a.991.991,0,0,0,.858.495.974.974,0,0,0,.494-.133.989.989,0,0,0,.363-1.352ZM72.2,64.01l0,0a.922.922,0,0,0-.082.111l0,0a6.132,6.132,0,0,1-2.476,1.948s-.005,0-.008,0a.476.476,0,0,0-.09.037l-.016.007a6.56,6.56,0,0,1-.657.235.99.99,0,0,0-.7,1.053,1.09,1.09,0,0,1-.242.9,3.149,3.149,0,0,1-2.429.21,1.019,1.019,0,0,0-.219-.013,2.759,2.759,0,0,0-1.86.966,4.378,4.378,0,0,0-.789,3.429c.044.4.091.775.133,1.1a5.07,5.07,0,0,1,.073,1.828c-.032.038-.247.239-1.444.351a.991.991,0,0,0-.869.752c-.974,4-4.608,6.373-9.044,5.895a14.126,14.126,0,0,1-11.951-11.95c-.479-4.436,1.89-8.072,5.895-9.046a.99.99,0,0,0,.752-.869c.114-1.2.313-1.412.351-1.444a5.049,5.049,0,0,1,1.828.074c.327.042.7.09,1.1.133a4.378,4.378,0,0,0,3.429-.789,2.759,2.759,0,0,0,.968-1.861,1.02,1.02,0,0,0-.015-.219,3.148,3.148,0,0,1,.211-2.429,1.1,1.1,0,0,1,.9-.242.989.989,0,0,0,1.053-.7c.919-3.069,3.726-4.835,7.186-4.545h0a.533.533,0,0,0,.065.005l.148.015a10.319,10.319,0,0,1,3.3.956l-1.98,1.833a.99.99,0,0,0-.026,1.427l4.472,4.463a.992.992,0,0,0,.7.289h.02a.991.991,0,0,0,.706-.317l1.833-1.98a10.273,10.273,0,0,1,.965,3.318A7.244,7.244,0,0,1,72.2,64.01ZM52.057,76.242,46.116,70.3a.989.989,0,0,0-1.4,1.4l5.94,5.941a.99.99,0,1,0,1.4-1.4Zm4.465-17.677c.125.005.319.124.487.44a.99.99,0,0,0,1.749-.929A2.583,2.583,0,0,0,56.6,56.588,2.331,2.331,0,0,0,54.553,57.7,38.759,38.759,0,0,0,52.3,62.843c-.3.838-.628,1.168-.814,1.2-.322.05-.938-.469-1.241-.863a.99.99,0,0,0-1.581,1.192,4.04,4.04,0,0,0,2.782,1.654,2.17,2.17,0,0,0,.33-.024c1.04-.154,1.843-.989,2.385-2.478a37.416,37.416,0,0,1,2.056-4.745.392.392,0,0,1,.3-.21Zm9.249,7.189A2.587,2.587,0,0,0,64.283,63.6a.99.99,0,1,0-.928,1.749c.315.168.433.362.438.487a.393.393,0,0,1-.21.3A37.608,37.608,0,0,1,58.838,68.2c-1.489.541-2.322,1.344-2.478,2.384-.246,1.651,1.439,2.969,1.631,3.112a.988.988,0,0,0,1.382-.2.991.991,0,0,0-.19-1.385c-.395-.3-.913-.919-.865-1.242.029-.185.359-.51,1.2-.814a38.513,38.513,0,0,0,5.139-2.251A2.33,2.33,0,0,0,65.772,65.754ZM52.5,27.257l-1.885-3.264a.989.989,0,0,0-1.352-.363L46,25.515a.991.991,0,0,0-.362,1.353l1.885,3.264L57.9,48.108a8.654,8.654,0,0,1,1.835-.781L49.734,30l1.55-.895L61.6,46.976A10.4,10.4,0,0,1,63.615,47c.1.011.206.024.31.038Z" transform="translate(0 0)" fill="#7586ff"/>
    </g>
  </g>
</svg>
