<svg xmlns="http://www.w3.org/2000/svg" width="140.849" height="140.849" viewBox="0 0 140.849 140.849">
  <g id="vocal-icon" transform="translate(0 0)">
    <path id="Path_518" data-name="Path 518" d="M120.222,20.627a70.425,70.425,0,0,0-99.6,99.6,70.425,70.425,0,0,0,99.6-99.6Zm-49.8,114.611a64.813,64.813,0,1,1,64.813-64.813A64.887,64.887,0,0,1,70.425,135.238Z" fill="#7586ff"/>
    <path id="Path_519" data-name="Path 519" d="M100.738,154.047a53.37,53.37,0,0,1-53.309-53.309,2.806,2.806,0,1,0-5.611,0,58.988,58.988,0,0,0,58.921,58.921,2.806,2.806,0,0,0,0-5.611Zm48.427-86.883a58.843,58.843,0,0,0-26.92-21.3A2.806,2.806,0,0,0,120.2,51.09a53.019,53.019,0,0,1,33.852,49.648,2.806,2.806,0,1,0,5.611,0A58.577,58.577,0,0,0,149.164,67.164ZM107.51,42.2a59.768,59.768,0,0,0-6.773-.385,2.806,2.806,0,1,0,0,5.611,54.072,54.072,0,0,1,6.134.349,2.806,2.806,0,0,0,.639-5.575Z" transform="translate(-30.313 -30.313)" fill="#7586ff"/>
    <g id="svgexport-17_12_" data-name="svgexport-17 (12)" transform="translate(38.247 38.236)">
      <path id="Path_525" data-name="Path 525" d="M37.043,39.246,25.125,27.328a.973.973,0,0,0-1.424.052L4.791,49.231a7.328,7.328,0,0,0,5.547,12.133,7.231,7.231,0,0,0,4.8-1.784L36.992,40.67a.973.973,0,0,0,.052-1.424Zm-9.781,1.3-3.225,3.218A2.433,2.433,0,1,1,20.6,40.32L23.821,37.1a2.436,2.436,0,0,1,3.442,3.445Zm29.52-13.2L37.027,7.6a.993.993,0,0,1,.091-1.486A14.017,14.017,0,0,1,56.511,7.86a14.017,14.017,0,0,1,1.749,19.393.993.993,0,0,1-1.486.091ZM31.963,10.887A12.765,12.765,0,0,0,27.5,22.566a1.019,1.019,0,0,0,.285.551L41.231,36.563a1.019,1.019,0,0,0,.551.285,12.765,12.765,0,0,0,11.678-4.467.973.973,0,0,0,.023-1.431L33.426,10.894a.973.973,0,0,0-1.463-.006Z" transform="translate(0 0)" fill="#7586ff"/>
    </g>
  </g>
</svg>
