<svg xmlns="http://www.w3.org/2000/svg" width="40" height="41" viewBox="0 0 40 41">
  <g id="circle_twitter" transform="translate(-0.412 0.146)">
    <ellipse id="Ellipse_30" data-name="Ellipse 30" cx="20" cy="20.5" rx="20" ry="20.5" transform="translate(0.412 -0.146)" fill="#aed2ff"/>
    <path id="Icon_akar-youtube-fill" data-name="Icon akar-youtube-fill" d="M27.413,8.923a3.25,3.25,0,0,0-.894-1.481,3.558,3.558,0,0,0-1.561-.866C22.768,6,13.991,6,13.991,6a89.381,89.381,0,0,0-10.953.548,3.686,3.686,0,0,0-1.561.887A3.379,3.379,0,0,0,.569,8.922,33.934,33.934,0,0,0,0,15.33a33.872,33.872,0,0,0,.569,6.409,3.3,3.3,0,0,0,.9,1.48,3.611,3.611,0,0,0,1.564.867c2.22.576,10.953.576,10.953.576a89.586,89.586,0,0,0,10.967-.548,3.558,3.558,0,0,0,1.561-.866,3.243,3.243,0,0,0,.892-1.481A33.1,33.1,0,0,0,28,15.357a31,31,0,0,0-.583-6.436ZM11.2,19.324V11.337l7.3,3.994-7.3,3.993Z" transform="translate(6.413 5.024)" fill="#627bbc"/>
  </g>
</svg>
